<?xml version="1.0" standalone="no"?>
<!DOCTYPE svg PUBLIC "-//W3C//DTD SVG 1.1//EN" "http://www.w3.org/Graphics/SVG/1.1/DTD/svg11.dtd" >
<svg xmlns="http://www.w3.org/2000/svg" xmlns:xlink="http://www.w3.org/1999/xlink" version="1.1">
<metadata></metadata>
<defs>
<font id="ubunturegular" horiz-adv-x="1233" >
<font-face units-per-em="2048" ascent="1638" descent="-410" />
<missing-glyph horiz-adv-x="496" />
<glyph unicode="&#xd;" horiz-adv-x="496" />
<glyph horiz-adv-x="0" />
<glyph horiz-adv-x="0" />
<glyph unicode=" "  horiz-adv-x="496" />
<glyph unicode="&#x09;" horiz-adv-x="496" />
<glyph unicode="&#xa0;" horiz-adv-x="496" />
<glyph unicode="!" horiz-adv-x="593" d="M152 117q0 57 39 100t106 43q66 0 105 -43t39 -100q0 -58 -39 -101.5t-105 -43.5t-105.5 43t-39.5 102zM189 1086v404h215v-404q0 -181 -13 -328t-32 -294h-125q-19 146 -32 293.5t-13 328.5z" />
<glyph unicode="&#x22;" horiz-adv-x="898" d="M154 1529v105h209v-107q0 -105 -12.5 -220t-32.5 -230h-118q-19 115 -32.5 230t-13.5 222zM534 1529v105h209v-107q0 -105 -12.5 -220t-32.5 -230h-118q-19 115 -32.5 230t-13.5 222z" />
<glyph unicode="#" horiz-adv-x="1434" d="M105 394v158h219l74 386h-293v158h325l75 394h181l-75 -394h348l75 394h181l-76 -394h190v-158h-221l-74 -386h295v-158h-325l-75 -394h-180l74 394h-347l-76 -394h-181l76 394h-190zM505 552h349l75 386h-348z" />
<glyph unicode="$" horiz-adv-x="1212" d="M131 125l54 161q64 -31 154.5 -56t224.5 -25q166 0 232 52.5t66 134.5q0 60 -29 103t-77 75t-111.5 58t-131.5 49q-64 24 -127.5 53t-112.5 71t-80 101t-31 145q0 152 91 250t266 125v246h178v-240q95 -4 176 -23.5t129 -36.5l-41 -168q-52 19 -129 39.5t-194 20.5 q-129 0 -198.5 -49.5t-69.5 -139.5q0 -49 20.5 -84t59 -61.5t91 -48t117.5 -44.5q84 -33 159 -67.5t132 -83t91.5 -115t34.5 -161.5q0 -152 -92.5 -246t-285.5 -117v-277h-178v271q-150 4 -245.5 33t-142.5 55z" />
<glyph unicode="%" horiz-adv-x="1844" d="M107 1127q0 96 26.5 169.5t72.5 124t108 76t135 25.5q74 0 136 -25.5t108.5 -76t72.5 -124t26 -169.5q0 -97 -26 -170t-72.5 -124t-108.5 -76.5t-136 -25.5q-73 0 -135 25.5t-108 76.5t-72.5 124t-26.5 170zM275 1127q0 -117 45 -182t129 -65t129.5 65t45.5 182 q0 116 -45.5 181.5t-129.5 65.5t-129 -65.5t-45 -181.5zM404 0l841 1490h196l-841 -1490h-196zM1054 363q0 97 26 170.5t72 124t108.5 76t134.5 25.5q74 0 136.5 -25.5t108.5 -76t72 -124t26 -170.5q0 -96 -26 -169t-72 -124t-108.5 -77t-136.5 -26q-73 0 -135 26t-108 77 t-72 124t-26 169zM1221 363q0 -116 45 -181t129 -65t129.5 65t45.5 181q0 117 -45.5 182.5t-129.5 65.5t-129 -65.5t-45 -182.5z" />
<glyph unicode="&#x26;" horiz-adv-x="1431" d="M99 396q0 84 25.5 149.5t69.5 118t102.5 92.5t120.5 69q-160 160 -159 330q0 86 29 155t79.5 116t120 73t153.5 26q87 0 154.5 -26t113.5 -69t70 -103.5t24 -126.5q0 -75 -25 -135.5t-67 -110t-95.5 -90.5t-113.5 -72l348 -355q73 135 95 300l165 -21 q-8 -88 -43.5 -192.5t-99.5 -207.5q75 -82 138.5 -161t103.5 -155h-210q-26 43 -64 88t-78 90q-88 -88 -204.5 -142.5t-266.5 -54.5q-140 0 -232.5 39.5t-149.5 101t-80.5 135t-23.5 139.5zM299 400q0 -39 15 -84t49.5 -83t89 -62.5t136.5 -24.5q105 0 194.5 39t158.5 110 l-419 423q-39 -19 -79 -45t-72 -63.5t-52.5 -89t-20.5 -120.5zM445 1170q0 -140 146 -273q47 24 89 51.5t73.5 64t49.5 81t18 100.5q0 73 -48.5 123.5t-132.5 50.5q-94 0 -144.5 -57t-50.5 -141z" />
<glyph unicode="'" horiz-adv-x="517" d="M154 1529v105h209v-107q0 -105 -12.5 -220t-32.5 -230h-118q-19 115 -32.5 230t-13.5 222z" />
<glyph unicode="(" horiz-adv-x="696" d="M168 643q0 305 102 570.5t270 470.5l141 -97q-154 -200 -233.5 -434.5t-79.5 -509.5t79.5 -509.5t233.5 -434.5l-141 -97q-168 205 -270 470.5t-102 570.5z" />
<glyph unicode=")" horiz-adv-x="696" d="M15 -301q154 199 234 434t80 510t-79.5 509.5t-234.5 434.5l143 97q168 -205 269.5 -470.5t101.5 -570.5q0 -306 -102.5 -571t-268.5 -470z" />
<glyph unicode="*" horiz-adv-x="1032" d="M80 1108l60 180l12 -4q88 -30 164 -71t152 -84q-16 88 -32.5 171t-16.5 173v17h194v-17q0 -90 -16 -173t-33 -171q78 43 153 84t163 71l12 4l60 -180l-16 -7q-87 -32 -173 -42t-176 -16q71 -60 133 -117.5t117 -131.5l10 -16l-157 -109l-9 12q-51 78 -89 154t-75 158 q-39 -82 -77 -158t-89 -154l-9 -12l-157 109l10 16q54 75 116.5 132t133.5 117q-90 6 -176 16t-172 42z" />
<glyph unicode="+" horiz-adv-x="1212" d="M114 559v170h407v443h171v-443h407v-170h-407v-445h-171v445h-407z" />
<glyph unicode="," horiz-adv-x="528" d="M82 -293q53 109 70.5 222.5t17.5 212.5q0 28 -1 54t-3 49h217q2 -17 2 -33.5v-33.5q0 -135 -39.5 -267.5t-109.5 -252.5z" />
<glyph unicode="-" horiz-adv-x="642" d="M56 550v187h531v-187h-531z" />
<glyph unicode="." horiz-adv-x="528" d="M121 117q0 57 38 100t106 43q66 0 104.5 -43t38.5 -100q0 -58 -38.5 -101.5t-104.5 -43.5q-67 0 -105.5 43t-38.5 102z" />
<glyph unicode="/" horiz-adv-x="825" d="M-51 -398l728 2082h201l-726 -2082h-203z" />
<glyph unicode="0" horiz-adv-x="1212" d="M107 747q0 373 132.5 575.5t367.5 202.5q234 0 366.5 -202.5t132.5 -575.5q0 -374 -132.5 -577t-366.5 -203t-367 203t-133 577zM318 747q0 -123 14 -233t47.5 -192t89.5 -130t138 -48t137.5 48t88.5 130t47.5 192t14.5 233q0 122 -14.5 231.5t-47.5 191.5t-89 130 t-137 48q-82 0 -138 -48t-89.5 -130t-47.5 -192t-14 -231z" />
<glyph unicode="1" horiz-adv-x="1212" d="M200 1182q122 48 238 122.5t214 185.5h142v-1490h-201v1213q-26 -24 -63.5 -50t-81.5 -49.5t-92 -45t-94 -36.5z" />
<glyph unicode="2" horiz-adv-x="1212" d="M121 1346q19 21 57.5 52.5t92 59.5t120.5 47.5t145 19.5q234 0 351 -109t117 -306q0 -78 -31 -150t-82.5 -141.5t-116 -137.5t-129.5 -133q-37 -37 -85.5 -86t-91 -102.5t-71.5 -103t-29 -86.5h686v-170h-904q-2 13 -2 26v23q0 101 33.5 188t87 165t120.5 146.5 t132 132.5q53 52 101.5 103t86.5 101.5t60.5 104t22.5 114.5q0 64 -20.5 109t-55.5 75t-81 44t-97 14q-62 0 -114 -17.5t-93 -40t-69 -47t-43 -37.5z" />
<glyph unicode="3" horiz-adv-x="1212" d="M119 45l39 174q36 -16 120.5 -44.5t207.5 -28.5q191 0 274 75.5t83 201.5q0 82 -34.5 138t-90 89.5t-130.5 47.5t-151 14h-52v164h71q53 0 110.5 10.5t104.5 38t77 76t30 121.5q0 60 -21.5 103t-56.5 71.5t-81.5 40t-97.5 11.5q-103 0 -175.5 -30t-121.5 -62l-78 152 q26 17 66 38t89.5 38.5t106 29t119.5 11.5q119 0 204.5 -29t141.5 -82t84 -125t28 -156q0 -117 -66.5 -199t-161.5 -126q58 -16 112 -48.5t93.5 -82t64 -114t24.5 -144.5q0 -97 -33 -179t-103 -142.5t-175.5 -95.5t-249.5 -35q-55 0 -114.5 9t-111 21.5t-90.5 26t-55 21.5z " />
<glyph unicode="4" horiz-adv-x="1212" d="M86 380v137q41 94 112 219.5t160 259t191.5 262.5t205.5 232h191v-946h176v-164h-176v-380h-193v380h-667zM279 544h474v710q-64 -70 -130.5 -154.5t-128 -176.5t-117 -189.5t-98.5 -189.5z" />
<glyph unicode="5" horiz-adv-x="1212" d="M140 45l38 174q37 -16 119.5 -44.5t203.5 -28.5q96 0 162 21.5t107 58t59 85t18 102.5q0 82 -27.5 145.5t-99 106.5t-189.5 65.5t-299 22.5q13 105 20.5 197.5t14 180.5t10.5 175t9 184h718v-170h-544q-2 -33 -6.5 -87.5t-8.5 -113.5t-8 -115t-9 -88q325 -13 476.5 -142 t151.5 -351q0 -99 -33.5 -182t-101 -143.5t-171 -95.5t-245.5 -35q-56 0 -114 9t-107.5 21.5t-87.5 26t-56 21.5z" />
<glyph unicode="6" horiz-adv-x="1212" d="M135 597q0 218 60.5 385t171.5 281t269 172.5t355 60.5l15 -167q-127 -2 -231 -28t-186 -82t-137.5 -145t-83.5 -220q55 26 125.5 43t144.5 17q127 0 215.5 -38.5t144.5 -102t81 -146.5t25 -173q0 -82 -28.5 -168t-85.5 -157t-145 -116.5t-209 -45.5q-244 0 -372.5 167.5 t-128.5 462.5zM344 597q0 -94 13 -178t46.5 -147t89 -101t141.5 -38q72 0 121 30t81 77.5t46.5 102.5t14.5 106q0 146 -70 224t-210 78q-75 0 -139.5 -14.5t-128.5 -41.5q-3 -24 -4 -48.5t-1 -49.5z" />
<glyph unicode="7" horiz-adv-x="1212" d="M129 1316v174h948v-165q-71 -82 -156.5 -225t-162.5 -320.5t-131.5 -378.5t-67.5 -401h-208q12 172 60.5 362t119.5 369.5t156 333.5t167 251h-725z" />
<glyph unicode="8" horiz-adv-x="1212" d="M119 376q0 62 20.5 119t53.5 107t77 89.5t93 69.5q-211 121 -211 355q0 82 32.5 156t91.5 130t143 89.5t188 33.5q121 0 206.5 -37t140.5 -93.5t79.5 -125.5t24.5 -134q0 -62 -18 -116.5t-49.5 -102.5t-71 -84t-82.5 -64q253 -120 257 -381q0 -90 -31 -166.5 t-92.5 -133.5t-154 -88.5t-212.5 -31.5q-140 0 -233.5 40t-149 100.5t-79 132.5t-23.5 136zM320 374q0 -39 14.5 -80.5t48.5 -77t88 -59.5t136 -24q73 0 128 21.5t89 55t51 76.5t17 88q0 69 -25.5 120.5t-74 90.5t-116 65.5t-153.5 46.5q-97 -53 -150 -133.5t-53 -189.5z M353 1131q0 -47 17 -94.5t53.5 -88.5t96 -73t140.5 -52q91 54 144.5 126t53.5 188q0 33 -13.5 71.5t-44 72t-78 56t-115.5 22.5q-69 0 -117.5 -21.5t-79 -54.5t-44 -73t-13.5 -79z" />
<glyph unicode="9" horiz-adv-x="1212" d="M109 1041q0 79 28.5 165.5t85 157t145 116t208.5 45.5q123 0 216.5 -43.5t157 -125t95.5 -198.5t32 -263q0 -443 -220.5 -670t-653.5 -229l-8 168q136 0 244.5 25.5t190.5 82.5t136.5 147t80.5 221q-55 -26 -126.5 -41.5t-146.5 -15.5q-127 0 -215 37.5t-143.5 101 t-81 146t-25.5 173.5zM316 1045q0 -146 70 -222t209 -76q76 0 142.5 13.5t128.5 41.5q2 24 2 46v47q0 92 -12.5 177t-46 148.5t-89 101t-141.5 37.5q-72 0 -121.5 -30t-81.5 -76.5t-46 -101.5t-14 -106z" />
<glyph unicode=":" horiz-adv-x="528" d="M121 117q0 57 38 100t106 43q66 0 104.5 -43t38.5 -100q0 -58 -38.5 -101.5t-104.5 -43.5q-67 0 -105.5 43t-38.5 102zM121 975q0 57 38 100t106 43q66 0 104.5 -43t38.5 -100q0 -58 -38.5 -101.5t-104.5 -43.5q-67 0 -105.5 43t-38.5 102z" />
<glyph unicode=";" horiz-adv-x="528" d="M82 -293q53 109 70.5 222.5t17.5 212.5q0 28 -1 54t-3 49h217q2 -17 2 -33.5v-33.5q0 -135 -39.5 -267.5t-109.5 -252.5zM121 975q0 57 38 100t106 43q66 0 104.5 -43t38.5 -100q0 -58 -38.5 -101.5t-104.5 -43.5q-67 0 -105.5 43t-38.5 102z" />
<glyph unicode="&#x3c;" horiz-adv-x="1212" d="M114 556v173l929 393l56 -165l-764 -314l764 -314l-56 -165z" />
<glyph unicode="=" horiz-adv-x="1212" d="M114 329v170h985v-170h-985zM114 788v169h985v-169h-985z" />
<glyph unicode="&#x3e;" horiz-adv-x="1212" d="M114 329l764 314l-764 314l56 165l929 -393v-173l-929 -392z" />
<glyph unicode="?" horiz-adv-x="868" d="M41 1438q73 39 164.5 63t194.5 24q123 0 201 -33.5t125.5 -85.5t66 -115.5t18.5 -120.5q0 -74 -28 -130.5t-69 -106t-90.5 -94.5t-90.5 -93.5t-68.5 -105.5t-27.5 -129v-22.5t2 -24.5h-168q-9 43 -9 90q0 70 25 125.5t64 104.5t82 90.5t81 84.5t63 90t25 104 q0 90 -58.5 147t-169.5 57q-142 0 -277 -73zM222 117q0 57 38.5 100t104.5 43q67 0 105.5 -43t38.5 -100q0 -58 -38 -101.5t-106 -43.5q-66 0 -104.5 43t-38.5 102z" />
<glyph unicode="@" horiz-adv-x="2042" d="M140 597q0 233 73 407t196.5 289t286 173.5t342.5 58.5q177 0 334 -57.5t275 -165.5t187 -262t69 -348q0 -146 -33.5 -258t-89.5 -188t-133 -115t-163 -39q-70 0 -114.5 19.5t-74.5 52.5q-48 -26 -114.5 -44.5t-133.5 -18.5q-103 0 -188 32.5t-147.5 96t-96.5 156 t-34 214.5q0 102 32 194t95.5 160t154.5 106.5t208 38.5q109 0 200.5 -17t141.5 -35v-657q0 -70 24 -97.5t61 -27.5q56 0 98.5 38.5t69.5 100.5t39.5 141t12.5 161q0 135 -47.5 254t-135.5 209.5t-213.5 142t-283.5 51.5q-157 0 -287.5 -52.5t-225.5 -150t-148 -240 t-53 -323.5q0 -189 56.5 -331.5t156 -238.5t236 -144.5t300.5 -48.5q127 0 209.5 15.5t106.5 23.5l21 -159q-37 -12 -132.5 -27.5t-204.5 -15.5q-191 0 -361 55t-297 167.5t-201 288t-74 415.5zM782 600q0 -153 73.5 -243t198.5 -90q45 0 91.5 9.5t81.5 29.5q-6 28 -8 56 t-2 53v506q-13 4 -49.5 8t-81.5 4q-153 0 -228.5 -94.5t-75.5 -238.5z" />
<glyph unicode="A" horiz-adv-x="1424" d="M17 0q86 236 161.5 437t147.5 382t143 345.5t148 325.5h191q78 -162 149 -326t143 -345t147.5 -382t160.5 -437h-228q-37 97 -69 190.5t-66 189.5h-675l-136 -380h-217zM430 552h555q-69 187 -137 362.5t-140 337.5q-76 -162 -143.5 -337t-134.5 -363z" />
<glyph unicode="B" horiz-adv-x="1381" d="M185 24v1445q43 10 94.5 16.5t104.5 11.5t104.5 7t96.5 2q129 0 242 -19.5t196 -66t130 -122t47 -184.5q0 -123 -58 -201t-155 -117q131 -39 208.5 -123t77.5 -236q0 -224 -164.5 -337t-521.5 -113q-45 0 -97.5 2.5t-105.5 6.5t-104.5 10.5t-94.5 17.5zM392 170 q24 -2 55 -4q29 -2 66 -3t87 -1q92 0 175 11.5t145.5 41.5t100 84t37.5 136q0 73 -28 123.5t-80.5 80.5t-125.5 43t-164 13h-268v-525zM392 862h219q78 0 146 11t119 39t80 73t29 114q0 64 -30 108.5t-83 71t-124 39.5t-151 13q-79 0 -124 -2t-81 -6v-461z" />
<glyph unicode="C" horiz-adv-x="1332" d="M125 747q0 186 56.5 331t154 244.5t226 151t275.5 51.5q92 0 166 -13.5t128.5 -30t89.5 -34t47 -25.5l-59 -172q-19 12 -56 27.5t-83 30.5t-101 24.5t-111 9.5q-119 0 -213.5 -41t-161 -118t-102 -188t-35.5 -248q0 -134 31 -243.5t93.5 -188.5t156 -122t218.5 -43 q144 0 238.5 30.5t141.5 53.5l55 -172q-15 -11 -54.5 -27t-97 -30.5t-135 -26t-168.5 -11.5q-157 0 -285.5 52t-221 151t-143 244t-50.5 333z" />
<glyph unicode="D" horiz-adv-x="1533" d="M185 24v1445q88 21 196.5 29t199.5 8q182 0 335 -46.5t262.5 -140.5t169.5 -236.5t60 -335.5q0 -194 -60 -337t-169.5 -236.5t-262.5 -140t-335 -46.5q-91 0 -199.5 7.5t-196.5 29.5zM394 176q19 -2 67 -4t136 -2q298 0 443.5 152t145.5 425t-145.5 424.5t-443.5 151.5 q-88 0 -136 -2.5t-67 -4.5v-1140z" />
<glyph unicode="E" horiz-adv-x="1227" d="M185 0v1490h909v-179h-700v-443h623v-173h-623v-517h755v-178h-964z" />
<glyph unicode="F" horiz-adv-x="1153" d="M185 0v1490h899v-179h-690v-449h612v-176h-612v-686h-209z" />
<glyph unicode="G" horiz-adv-x="1444" d="M125 747q0 186 56.5 331t154 244.5t227 151t278.5 51.5q101 0 179.5 -13.5t134.5 -30t91.5 -34t48.5 -25.5l-68 -175q-61 41 -164.5 68t-210.5 27q-115 0 -208.5 -41t-159 -118t-102 -188t-36.5 -248q0 -134 31 -243.5t95 -188.5t157 -122t220 -43q91 0 154.5 10t90.5 18 v555h209v-696q-26 -9 -74.5 -20t-111.5 -21.5t-138.5 -18t-153.5 -7.5q-157 0 -285.5 52t-221 150.5t-143 242.5t-50.5 332z" />
<glyph unicode="H" horiz-adv-x="1515" d="M185 0v1490h209v-622h728v622h209v-1490h-209v688h-728v-688h-209z" />
<glyph unicode="I" horiz-adv-x="577" d="M185 0v1490h209v-1490h-209z" />
<glyph unicode="J" horiz-adv-x="1075" d="M17 88l82 166q45 -32 117 -68t180 -36q154 0 225 79t71 270v991h209v-1010q0 -107 -22.5 -200t-79.5 -163t-153 -110t-240 -40q-73 0 -134 12.5t-111 30.5t-86 38.5t-58 39.5z" />
<glyph unicode="K" horiz-adv-x="1352" d="M185 0v1490h209v-657q75 71 165 160t178 179t167 173t132 145h252q-66 -74 -150 -162.5t-176 -182.5t-182 -184.5t-169 -166.5q93 -64 195.5 -159t202 -203t186.5 -219.5t145 -212.5h-246q-64 101 -148 203.5t-177.5 195.5t-189 173t-185.5 136v-708h-209z" />
<glyph unicode="L" horiz-adv-x="1115" d="M185 0v1490h209v-1309h688v-181h-897z" />
<glyph unicode="M" horiz-adv-x="1872" d="M144 0q8 193 19 390t25.5 387.5t30 371t35.5 341.5h183q58 -95 124.5 -224t133 -269.5t129 -281.5t114.5 -257q51 116 113.5 257t129 281.5t133.5 269.5t124 224h183q74 -720 110 -1490h-204q-11 301 -26 596.5t-38 550.5q-21 -37 -57 -106t-77 -156t-87 -185t-87 -190.5 t-76.5 -172t-56.5 -130.5h-168q-21 51 -57 130.5t-77 172t-87 190.5t-87 185t-76 156t-57 106q-25 -255 -39.5 -550.5t-24.5 -596.5h-205z" />
<glyph unicode="N" horiz-adv-x="1564" d="M185 0v1490h166q101 -107 215.5 -250.5t227.5 -294.5t213.5 -297.5t168.5 -260.5v1103h205v-1490h-175q-47 80 -108.5 178.5t-132 205t-147 216.5t-152 212t-146.5 192t-130 159v-1163h-205z" />
<glyph unicode="O" horiz-adv-x="1672" d="M125 747q0 191 56.5 337t155 244t228.5 147.5t276 49.5q144 0 272 -49.5t224.5 -147.5t154 -244t57.5 -337q0 -192 -57.5 -338.5t-154 -244.5t-224.5 -147.5t-272 -49.5q-146 0 -276 49.5t-228.5 147.5t-155 244.5t-56.5 338.5zM344 747q0 -136 34.5 -246.5t98 -188.5 t154.5 -120t206 -42q114 0 204 42t153.5 120t98 188.5t34.5 246.5q0 135 -34.5 246t-98 188t-154 119t-203.5 42q-115 0 -206 -42t-154.5 -119t-98 -188t-34.5 -246z" />
<glyph unicode="P" horiz-adv-x="1307" d="M185 0v1469q88 21 196.5 29t199.5 8q314 0 483 -120t169 -356q0 -129 -47 -220.5t-133.5 -148.5t-211.5 -83t-282 -26h-165v-552h-209zM394 731h156q107 0 194 14t145.5 47t91 91.5t32.5 148.5q0 86 -33.5 142t-90 89.5t-132.5 46.5t-160 13q-133 0 -203 -7v-585z" />
<glyph unicode="Q" horiz-adv-x="1672" d="M125 747q0 191 56.5 337t155 244t228.5 147.5t276 49.5q144 0 272 -49.5t224.5 -147.5t154 -244t57.5 -337q0 -168 -43 -299.5t-120 -227t-178.5 -155t-218.5 -80.5q2 -49 44 -87t106.5 -63.5t144 -43t159.5 -25.5l-50 -164q-111 15 -213.5 40t-185.5 65.5t-138.5 104 t-75.5 158.5q-135 8 -255.5 63t-208.5 153t-139.5 238t-51.5 323zM344 747q0 -136 34.5 -246.5t98 -188.5t154.5 -120t206 -42q114 0 204 42t153.5 120t98 188.5t34.5 246.5q0 135 -34.5 246t-98 188t-154 119t-203.5 42q-115 0 -206 -42t-154.5 -119t-98 -188t-34.5 -246z " />
<glyph unicode="R" horiz-adv-x="1352" d="M185 0v1469q88 21 196.5 29t199.5 8q314 0 478 -119t164 -353q0 -148 -78.5 -253.5t-230.5 -156.5q34 -43 87 -113t109 -155t110.5 -177.5t93.5 -178.5h-228q-43 82 -93.5 166t-102 160t-102.5 143t-91 116q-28 -2 -57 -2h-59h-187v-583h-209zM394 755h148 q107 0 193 10.5t145.5 41t91.5 85t32 144.5q0 84 -32 140.5t-86.5 88.5t-129.5 45t-159 13q-133 0 -203 -7v-561z" />
<glyph unicode="S" horiz-adv-x="1143" d="M71 74l62 171q50 -29 151 -63t247 -34q327 0 327 224q0 69 -29 117.5t-78.5 84t-113 61t-134.5 51.5q-82 28 -155 63.5t-126.5 84t-85 115t-31.5 161.5q0 195 133.5 305t368.5 110q135 0 246 -29t162 -64l-67 -170q-45 28 -134.5 55t-206.5 27q-60 0 -112 -13t-91 -39 t-61.5 -66t-22.5 -93q0 -60 24 -101t67 -72t100 -56.5t125 -51.5q97 -39 178 -78t140 -92.5t91 -127.5t32 -180q0 -196 -142.5 -301.5t-403.5 -105.5q-88 0 -162 12.5t-132.5 28.5t-100.5 34t-65 32z" />
<glyph unicode="T" horiz-adv-x="1214" d="M35 1309v181h1145v-181h-468v-1309h-209v1309h-468z" />
<glyph unicode="U" horiz-adv-x="1479" d="M174 554v936h209v-911q0 -224 99 -325.5t258 -101.5q80 0 145 25.5t112.5 77t73 131.5t25.5 193v911h209v-936q0 -125 -33 -232t-103 -185.5t-176.5 -124t-252.5 -45.5t-254 45.5t-177 124t-102 186t-33 231.5z" />
<glyph unicode="V" horiz-adv-x="1410" d="M21 1490h231q117 -340 228 -653.5t230 -588.5q118 273 229.5 588t226.5 654h223q-82 -236 -156 -437t-145 -382t-140.5 -345t-143.5 -326h-195q-73 162 -143 326t-142 345t-147.5 382t-155.5 437z" />
<glyph unicode="W" horiz-adv-x="1997" d="M60 1490h219q31 -168 63 -335.5t66.5 -325.5t68.5 -302t71 -267q86 226 182.5 496t180.5 558h181q84 -288 183 -558t186 -496q34 121 68 265t67.5 302t66 327t61.5 336h213q-77 -431 -164 -796t-199 -694h-209q-95 232 -185 477.5t-180 533.5q-91 -288 -183.5 -533.5 t-184.5 -477.5h-209q-114 329 -201 694.5t-162 795.5z" />
<glyph unicode="X" horiz-adv-x="1356" d="M49 0q97 189 225 385t272 403l-477 702h241l367 -554l364 554h239l-469 -694q146 -209 275 -407t228 -389h-235q-32 64 -77 143t-99 164t-112 170t-112 159q-53 -75 -111.5 -159.5t-111 -169.5t-98.5 -164t-79 -143h-230z" />
<glyph unicode="Y" horiz-adv-x="1285" d="M13 1490h245q82 -176 183 -358t208 -350q105 168 206.5 350t185.5 358h232q-117 -215 -247.5 -437t-276.5 -451v-602h-209v597q-148 230 -279.5 454t-247.5 439z" />
<glyph unicode="Z" horiz-adv-x="1231" d="M71 0v140q46 86 106.5 189.5t130.5 210.5t145.5 216.5t149.5 211t144 189.5t129 154h-767v179h1022v-165q-49 -56 -115 -134.5t-139 -174t-150.5 -202t-151.5 -215.5t-140.5 -216.5t-120.5 -204.5h839v-178h-1082z" />
<glyph unicode="[" horiz-adv-x="706" d="M207 -398v2082h483v-157h-296v-1767h296v-158h-483z" />
<glyph unicode="\" horiz-adv-x="825" d="M-51 1684h199l730 -2082h-205z" />
<glyph unicode="]" horiz-adv-x="706" d="M17 -240h297v1767h-297v157h484v-2082h-484v158z" />
<glyph unicode="^" horiz-adv-x="1212" d="M101 759l418 731h176l417 -731l-160 -82l-345 607l-347 -607z" />
<glyph unicode="_" horiz-adv-x="1057" d="M-8 -228h1075v-170h-1075v170z" />
<glyph unicode="`" horiz-adv-x="808" d="M131 1541l129 127l276 -330l-101 -91z" />
<glyph unicode="a" horiz-adv-x="1122" d="M92 333q0 92 38 159t102.5 107.5t150 60t181.5 19.5q30 0 62 -3t61 -8t50.5 -9.5t30.5 -6.5v56q0 49 -10.5 97.5t-39 86t-77 60t-124.5 22.5q-99 0 -173.5 -14t-111.5 -29l-23 165q39 17 129 34t195 17q121 0 203.5 -31.5t133.5 -88.5t72.5 -135.5t21.5 -173.5v-699 q-26 -4 -72.5 -11.5t-104.5 -14t-126 -12t-134 -5.5q-94 0 -174 19.5t-137.5 61.5t-90.5 110.5t-33 165.5zM295 335q0 -107 68.5 -149t186.5 -42q72 0 126.5 3t91.5 13v332q-21 11 -70 19t-117 8q-45 0 -95.5 -7t-92.5 -27.5t-70 -55.5t-28 -94z" />
<glyph unicode="b" horiz-adv-x="1266" d="M172 33v1601l200 34v-599q36 24 110 49.5t172 25.5q121 0 214 -43t157.5 -120.5t98 -185t33.5 -236.5q0 -136 -40 -244t-113 -183.5t-176.5 -116.5t-232.5 -41q-139 0 -247 19.5t-176 39.5zM372 174q30 -8 84.5 -16t136.5 -8q162 0 258.5 106.5t96.5 302.5 q0 86 -17 161.5t-55.5 130t-100 86t-147.5 31.5q-82 0 -151 -28.5t-105 -57.5v-708z" />
<glyph unicode="c" horiz-adv-x="999" d="M109 556q0 130 38 237.5t106.5 186t169 123t222.5 44.5q75 0 150 -13.5t145 -41.5l-45 -169q-46 21 -105 34t-125 13q-168 0 -257.5 -105.5t-89.5 -308.5q0 -90 20.5 -165t64.5 -128.5t113 -83t168 -29.5q79 0 143.5 15.5t101.5 31.5l28 -167q-17 -10 -49 -20t-73 -17.5 t-87.5 -13t-89.5 -5.5q-135 0 -237.5 43t-172.5 120.5t-104.5 184t-34.5 234.5z" />
<glyph unicode="d" horiz-adv-x="1266" d="M109 559q0 129 33.5 236.5t98.5 185t158 120.5t214 43q97 0 171 -26t111 -49v565l199 34v-1635q-69 -19 -176 -39t-247 -20q-129 0 -232.5 41t-176.5 116.5t-113 183.5t-40 244zM318 559q0 -196 96.5 -302.5t258.5 -106.5q82 0 136.5 8t85.5 16v708q-37 30 -106 58 t-151 28q-86 0 -147 -31.5t-99.5 -86t-56 -130t-17.5 -161.5z" />
<glyph unicode="e" horiz-adv-x="1201" d="M109 556q0 149 43 260t114.5 184t164 110t189.5 37q225 0 345.5 -141.5t120.5 -429.5v-32.5t-2 -38.5h-766q13 -174 101 -264.5t276 -90.5q105 0 177 18.5t109 36.5l28 -168q-37 -19 -128 -41t-208 -22q-146 0 -252.5 44t-175.5 121.5t-102.5 183.5t-33.5 233zM322 667 h556v7q0 130 -68 215q-70 87 -193 87q-69 0 -121.5 -26.5t-89 -69.5t-57 -99.5t-27.5 -113.5z" />
<glyph unicode="f" horiz-adv-x="829" d="M172 0v1219q0 215 105.5 332t331.5 117q88 0 151 -12.5t89 -23.5l-36 -171q-27 12 -74 23.5t-115 11.5q-140 0 -196 -76t-56 -205v-97h430v-168h-430v-950h-200z" />
<glyph unicode="g" horiz-adv-x="1242" d="M109 583q0 123 37 224.5t106.5 176t171 116t228.5 41.5q140 0 244 -20t175 -37v-998q0 -258 -133.5 -374t-404.5 -116q-105 0 -199 17t-162 41l37 174q60 -24 147 -42t182 -18q178 0 256.5 71t78.5 225v47q-27 -17 -100.5 -43.5t-172.5 -26.5q-101 0 -190.5 32t-156 99.5 t-105.5 169t-39 241.5zM318 581q0 -97 25 -166t67 -114t97 -66.5t113 -21.5q79 0 146 22.5t104 52.5v654q-30 8 -80 16t-136 8q-162 0 -249 -105.5t-87 -279.5z" />
<glyph unicode="h" horiz-adv-x="1227" d="M172 0v1634l200 34v-572q55 21 118.5 33t126.5 12q134 0 222 -37t140.5 -105t74 -162.5t21.5 -208.5v-628h-199v585q0 103 -14.5 176.5t-47 118.5t-86 65.5t-133.5 20.5q-32 0 -66 -4.5t-65 -10t-56 -12t-36 -10.5v-929h-200z" />
<glyph unicode="i" horiz-adv-x="543" d="M142 1451q0 60 37.5 95.5t91.5 35.5q53 0 91 -35t38 -96q0 -60 -38 -95.5t-91 -35.5q-54 0 -91.5 35.5t-37.5 95.5zM172 0v1118h200v-1118h-200z" />
<glyph unicode="j" horiz-adv-x="543" d="M-146 -378l25 163q21 -7 49.5 -11t52.5 -4q103 0 147 63.5t44 185.5v1099h200v-1097q0 -215 -98 -319t-284 -104q-27 0 -68 6t-68 18zM142 1451q0 60 37.5 95.5t91.5 35.5q53 0 91 -35t38 -96q0 -60 -38 -95.5t-91 -35.5q-54 0 -91.5 35.5t-37.5 95.5z" />
<glyph unicode="k" horiz-adv-x="1122" d="M172 0v1634l200 34v-1019l113.5 113.5t123 127t114 124t92.5 104.5h234q-49 -53 -107 -117.5t-120.5 -130.5t-126 -131.5t-119.5 -123.5q64 -49 136.5 -122.5t142.5 -158t132 -171.5t105 -163h-234q-45 76 -104 154t-123.5 150t-131 132.5t-127.5 101.5v-538h-200z" />
<glyph unicode="l" horiz-adv-x="586" d="M168 293v1341l200 34v-1344q0 -49 8.5 -81t27.5 -51.5t51.5 -29.5t80.5 -16l-29 -167q-185 4 -262 79t-77 235z" />
<glyph unicode="m" horiz-adv-x="1851" d="M172 0v1086q70 16 182 35.5t261 19.5q107 0 180 -28.5t123 -84.5q14 10 47 29.5t80 38t105.5 32t124.5 13.5q129 0 211 -37t128 -106t62.5 -163.5t16.5 -206.5v-628h-201v585q0 99 -9.5 169.5t-36 118.5t-73 70.5t-119.5 22.5q-101 0 -166.5 -27.5t-89.5 -48.5 q16 -55 25 -122t9 -140v-628h-199v585q0 99 -11 169.5t-38 118.5t-73 70.5t-118 22.5q-30 0 -64 -2.5t-65 -6t-57.5 -7.5t-34.5 -6v-944h-200z" />
<glyph unicode="n" d="M172 0v1086q70 16 183 35.5t262 19.5q134 0 222 -37t140.5 -105t74 -162.5t21.5 -208.5v-628h-199v585q0 103 -14.5 176.5t-47 118.5t-86 65.5t-133.5 20.5q-32 0 -66 -2.5t-65 -6t-56 -7.5t-36 -6v-944h-200z" />
<glyph unicode="o" horiz-adv-x="1268" d="M109 559q0 131 39 239.5t109 186.5t167 120t210 42q115 0 211.5 -42t166.5 -120t108.5 -186.5t38.5 -239.5q0 -134 -38.5 -241t-108.5 -184.5t-166.5 -119.5t-211.5 -42q-114 0 -210.5 42t-166.5 119.5t-109 185t-39 240.5zM318 559q0 -189 85 -300t231 -111t231 111 t85 300t-85 300t-231 111t-231 -110.5t-85 -300.5z" />
<glyph unicode="p" horiz-adv-x="1266" d="M172 -398v1482q72 16 178 36.5t245 20.5q129 0 232.5 -40.5t176.5 -116t113 -184t40 -244.5q0 -127 -33.5 -234t-98 -184.5t-158 -120.5t-213.5 -43q-96 0 -171 26t-111 49v-447h-200zM372 236q36 -30 105 -58t151 -28q86 0 147.5 31.5t100 86t55.5 128.5t17 160 q0 196 -96.5 302t-258.5 106q-90 0 -140.5 -7t-80.5 -15v-706z" />
<glyph unicode="q" horiz-adv-x="1266" d="M109 556q0 136 40 244.5t113 184t176.5 116t232.5 40.5q140 0 246.5 -20t176.5 -37v-1482h-199v447q-37 -24 -111 -49.5t-171 -25.5q-121 0 -214 43t-158 120.5t-98.5 184.5t-33.5 234zM318 556q0 -86 17.5 -160t56 -128.5t99.5 -86t147 -31.5q82 0 151 28.5t106 57.5 v706q-31 8 -81.5 15t-140.5 7q-162 0 -258.5 -106t-96.5 -302z" />
<glyph unicode="r" horiz-adv-x="829" d="M172 0v1071q72 26 177 48t236 22q26 0 59 -3t65.5 -8t59.5 -10.5t39 -9.5l-34 -174q-24 8 -79 20t-141 12q-55 0 -109.5 -12t-72.5 -16v-940h-200z" />
<glyph unicode="s" horiz-adv-x="958" d="M86 37l37 172q35 -13 110 -39t200 -26q122 0 181 32.5t59 102.5q0 74 -58.5 117t-191.5 96q-64 27 -123.5 53.5t-102.5 63t-68.5 88.5t-25.5 126q0 148 109.5 236t298.5 88q48 0 95.5 -6t88 -13.5t72 -15.5t48.5 -16l-37 -171q-32 17 -100.5 35.5t-166.5 18.5 q-84 0 -146 -34t-62 -104q0 -37 14 -64.5t43.5 -50t72.5 -42t103 -41.5q79 -31 141.5 -60t106 -67t68 -93t24.5 -135q0 -155 -115.5 -234.5t-327.5 -79.5q-148 0 -232 25t-115 38z" />
<glyph unicode="t" horiz-adv-x="864" d="M160 433v997l199 35v-347h423v-168h-423v-515q0 -84 13 -139.5t39 -86.5t64 -44t91 -13q90 0 144.5 20.5t77.5 30.5l37 -166q-30 -15 -105 -38t-172 -23q-114 0 -188 29.5t-119.5 87t-63 142.5t-17.5 198z" />
<glyph unicode="u" d="M160 490v628h199v-585q0 -204 64.5 -292.5t216.5 -88.5q33 0 67.5 3t64.5 6t55 6t35 7v944h201v-1085q-70 -17 -182.5 -37t-260.5 -20q-130 0 -218 37.5t-141.5 106.5t-77 162.5t-23.5 207.5z" />
<glyph unicode="v" horiz-adv-x="1079" d="M35 1118h215q26 -105 61 -224.5t75 -236.5t80.5 -227t77.5 -196q37 86 78 196t80.5 227t75 236.5t61.5 224.5h206q-84 -314 -197 -602t-218 -516h-181q-105 228 -217.5 516t-196.5 602z" />
<glyph unicode="w" horiz-adv-x="1670" d="M39 1118h215q21 -101 51 -219.5t63.5 -236.5t70.5 -228t68 -191q37 100 72.5 213.5t67.5 228.5t61 226t51 207h166q19 -96 47 -207t60.5 -226t67.5 -228t72 -214q32 81 67.5 191t70 228t64.5 236.5t52 219.5h206q-84 -328 -178.5 -612t-193.5 -506h-174q-60 154 -128 353 t-123 415q-56 -216 -123 -415t-127 -353h-174q-99 222 -193.5 506t-178.5 612z" />
<glyph unicode="x" horiz-adv-x="1098" d="M35 0q75 146 179 297.5t207 289.5l-370 531h226l267 -391l269 391h213l-361 -518q103 -140 211.5 -296t183.5 -304h-219q-24 47 -58 105.5t-75 119.5t-84 121t-84 114q-41 -54 -84 -115t-83 -122t-74 -119.5t-59 -103.5h-205z" />
<glyph unicode="y" horiz-adv-x="1067" d="M4 -370l37 161q24 -10 61.5 -19.5t73.5 -9.5q119 0 185.5 52.5t120.5 170.5q-136 259 -253.5 547.5t-193.5 585.5h215q24 -96 57 -208t73.5 -230t88.5 -237t99 -228q82 226 142 447.5t113 455.5h207q-78 -316 -172.5 -607.5t-203.5 -545.5q-43 -96 -89 -166t-102.5 -115 t-126 -66.5t-158.5 -21.5q-24 0 -49.5 3t-50 8.5t-45 12t-29.5 10.5z" />
<glyph unicode="z" horiz-adv-x="1012" d="M78 0v133q51 95 126 209t158 226.5t161.5 213t136.5 168.5h-553v168h807v-150q-46 -49 -120 -140t-159 -200t-170 -230t-149 -230h615v-168h-853z" />
<glyph unicode="{" horiz-adv-x="715" d="M86 566v154q52 0 88.5 18.5t61 47.5t36.5 66.5t12 76.5v387q0 88 19 156.5t66.5 115t126 71.5t194.5 25h9v-157q-123 0 -175.5 -44.5t-52.5 -168.5v-331q0 -142 -37.5 -219.5t-106.5 -120.5q69 -43 106.5 -120.5t37.5 -219.5v-331q0 -125 52.5 -168.5t175.5 -43.5v-158 h-9q-117 0 -195 23.5t-125.5 71t-66.5 116t-19 157.5v387q0 39 -12 76.5t-36.5 66.5t-61 47.5t-88.5 18.5z" />
<glyph unicode="|" horiz-adv-x="599" d="M207 -398v2082h187v-2082h-187z" />
<glyph unicode="}" horiz-adv-x="715" d="M17 -240q123 0 175.5 44t52.5 168v331q0 142 37.5 219.5t107.5 120.5q-70 43 -107.5 120.5t-37.5 219.5v331q0 124 -52.5 168.5t-175.5 44.5v157h9q117 0 195 -25t125.5 -71.5t67 -115t19.5 -156.5v-387q0 -39 11.5 -76.5t36 -66.5t61.5 -47.5t88 -18.5v-154 q-51 0 -88 -18.5t-61.5 -47.5t-36 -66.5t-11.5 -76.5v-387q0 -89 -19.5 -157.5t-67 -116t-126 -71t-194.5 -23.5h-9v158z" />
<glyph unicode="~" horiz-adv-x="1212" d="M90 521q9 41 28.5 93.5t53 98.5t86 77t127.5 31q64 0 119 -25.5t105 -55.5q58 -34 111.5 -68t114.5 -34q34 0 57.5 16.5t40.5 41t28 53.5t20 57l137 -38q-8 -44 -26.5 -95t-53 -97.5t-87 -78t-128.5 -31.5q-64 0 -119 26.5t-104 55.5q-58 35 -111.5 68t-114.5 33 q-35 0 -58 -16t-40.5 -40.5t-28.5 -54t-19 -56.5z" />
<glyph unicode="&#xa2;" horiz-adv-x="1212" d="M185 626q0 105 29 197.5t82 166t130 122.5t174 68v310h178v-298q125 -7 237 -51l-45 -165q-45 19 -104.5 32.5t-125.5 13.5q-168 0 -257 -101.5t-89 -294.5q0 -86 20.5 -158t64.5 -123.5t112.5 -80t167.5 -28.5q80 0 144.5 15.5t100.5 29.5l28 -162q-30 -17 -103 -33.5 t-151 -21.5v-298h-178v310q-103 18 -180.5 66.5t-129.5 120.5t-78.5 165t-26.5 198z" />
<glyph unicode="&#xa3;" horiz-adv-x="1212" d="M129 640v162h200v179q0 159 33.5 263t95 165.5t147 85t189.5 23.5q94 0 158.5 -17t124.5 -40l-49 -173q-114 54 -243 54q-57 0 -105 -17.5t-81 -58.5t-51.5 -109.5t-18.5 -171.5v-183h407v-162h-407v-16q0 -107 -9 -226t-25 -226h621v-172h-847q24 152 42 304t18 305v31 h-200z" />
<glyph unicode="&#xa5;" horiz-adv-x="1212" d="M37 1490h221q78 -168 168.5 -335.5t186.5 -321.5q95 154 182 322t166 335h217q-94 -179 -198 -364.5t-221 -372.5h295v-153h-348v-220h348v-152h-348v-228h-197v228h-347v152h347v220h-347v153h292q-117 189 -221 375t-196 362z" />
<glyph unicode="&#xa8;" horiz-adv-x="808" d="M76 1451q0 56 37 91.5t87 35.5q49 0 86.5 -35t37.5 -92q0 -56 -37.5 -91t-86.5 -35q-50 0 -87 35t-37 91zM484 1451q0 56 37.5 91.5t87.5 35.5q49 0 86.5 -35t37.5 -92q0 -56 -37.5 -91t-86.5 -35t-87 35t-38 91z" />
<glyph unicode="&#xa9;" horiz-adv-x="1750" d="M140 747q0 182 60 327t161 245.5t234.5 153t280.5 52.5q146 0 279 -52.5t234 -153t161.5 -245.5t60.5 -327q0 -183 -60.5 -328.5t-161.5 -245t-234 -153t-279 -53.5t-280 53.5t-235 153t-161 245t-60 328.5zM297 747q0 -142 43 -259.5t119.5 -201t183 -129.5t233.5 -46 t233 46t182.5 129.5t119 201t42.5 259.5q0 141 -42.5 258t-119 201t-183 129.5t-232.5 45.5q-127 0 -233.5 -45.5t-183 -129.5t-119.5 -201t-43 -258zM488 747q0 105 33 186.5t89.5 138.5t131.5 87.5t159 30.5q56 0 102 -9t80.5 -20.5t57 -23.5t31.5 -19l-50 -129 q-26 15 -82.5 35.5t-132.5 20.5q-109 0 -182 -76.5t-73 -221.5q0 -134 66.5 -219t195.5 -85q84 0 139 18.5t84 33.5l41 -130q-10 -6 -35 -18t-61.5 -21.5t-83 -17t-97.5 -7.5q-93 0 -168 30t-130 86.5t-85 138.5t-30 191z" />
<glyph unicode="&#xab;" horiz-adv-x="1072" d="M64 611l336 475l140 -75l-239 -400l239 -400l-140 -76zM511 611l336 475l140 -75l-239 -400l239 -400l-140 -76z" />
<glyph unicode="&#xad;" horiz-adv-x="642" d="M56 550v187h531v-187h-531z" />
<glyph unicode="&#xae;" horiz-adv-x="1750" d="M140 747q0 182 60 327t161 245.5t234.5 153t280.5 52.5q146 0 279 -52.5t234 -153t161.5 -245.5t60.5 -327q0 -183 -60.5 -328.5t-161.5 -245t-234 -153t-279 -53.5t-280 53.5t-235 153t-161 245t-60 328.5zM297 747q0 -142 43 -259.5t119.5 -201t183 -129.5t233.5 -46 t233 46t182.5 129.5t119 201t42.5 259.5q0 141 -42.5 258t-119 201t-183 129.5t-232.5 45.5q-127 0 -233.5 -45.5t-183 -129.5t-119.5 -201t-43 -258zM574 318v835q58 13 122.5 19t118.5 6q185 0 282 -68.5t97 -208.5q0 -80 -42 -138.5t-120 -91.5q21 -26 49.5 -64.5 t58.5 -85.5t60 -99t54 -104h-166q-50 97 -111 184t-107 138h-143v-322h-153zM727 765h81q97 0 161.5 27t64.5 111q0 80 -61.5 111t-147.5 31q-24 0 -49 -1t-49 -3v-276z" />
<glyph unicode="&#xb4;" horiz-adv-x="808" d="M273 1338l275 330l129 -127l-303 -294z" />
<glyph unicode="&#xb8;" horiz-adv-x="808" d="M148 -378l24 122q26 -9 55 -15t66 -6q78 0 77 49q0 24 -24 40t-67 34l-14 6q6 21 19 50t25.5 57t24.5 51t19 33h137q-12 -24 -31.5 -60.5t-30.5 -62.5q62 -30 90 -65.5t28 -104.5q0 -24 -10.5 -51.5t-36 -51t-69 -38.5t-106.5 -15q-55 0 -101.5 8t-74.5 20z" />
<glyph unicode="&#xbb;" horiz-adv-x="1072" d="M86 211l238 400l-238 400l140 75l336 -475l-336 -476zM533 211l238 400l-238 400l140 75l336 -475l-336 -476z" />
<glyph unicode="&#xc2;" horiz-adv-x="1424" d="M17 0q86 236 161.5 437t147.5 382t143 345.5t148 325.5h191q78 -162 149 -326t143 -345t147.5 -382t160.5 -437h-228q-37 97 -69 190.5t-66 189.5h-675l-136 -380h-217zM419 1681l293 308l293 -308l-84 -94l-209 189l-209 -189zM430 552h555q-69 187 -137 362.5 t-140 337.5q-76 -162 -143.5 -337t-134.5 -363z" />
<glyph unicode="&#xc7;" horiz-adv-x="1332" d="M125 747q0 186 56.5 331t154 244.5t226 151t275.5 51.5q92 0 166 -13.5t128.5 -30t89.5 -34t47 -25.5l-59 -172q-19 12 -56 27.5t-83 30.5t-101 24.5t-111 9.5q-119 0 -213.5 -41t-161 -118t-102 -188t-35.5 -248q0 -134 31 -243.5t93.5 -188.5t156 -122t218.5 -43 q144 0 238.5 30.5t141.5 53.5l55 -172q-30 -24 -145 -57t-292 -38l-12 -24t-10 -23q62 -30 90.5 -65.5t28.5 -104.5q0 -24 -11 -51.5t-37 -51t-69 -38.5t-105 -15q-55 0 -101.5 8t-74.5 20l24 122q26 -9 54.5 -15t65.5 -6q77 0 77 49q0 24 -23.5 40t-66.5 34l-15 6 q9 26 23 59.5t29 64.5q-134 17 -241.5 76t-183.5 157.5t-118 232.5t-42 305z" />
<glyph unicode="&#xce;" horiz-adv-x="577" d="M-3 1681l293 308l293 -308l-84 -94l-209 189l-209 -189zM185 0v1490h209v-1490h-209z" />
<glyph unicode="&#xd6;" horiz-adv-x="1672" d="M125 747q0 191 56.5 337t155 244t228.5 147.5t276 49.5q144 0 272 -49.5t224.5 -147.5t154 -244t57.5 -337q0 -192 -57.5 -338.5t-154 -244.5t-224.5 -147.5t-272 -49.5q-146 0 -276 49.5t-228.5 147.5t-155 244.5t-56.5 338.5zM344 747q0 -136 34.5 -246.5t98 -188.5 t154.5 -120t206 -42q114 0 204 42t153.5 120t98 188.5t34.5 246.5q0 135 -34.5 246t-98 188t-154 119t-203.5 42q-115 0 -206 -42t-154.5 -119t-98 -188t-34.5 -246zM509 1786q0 56 37 91.5t87 35.5q49 0 86.5 -35t37.5 -92q0 -56 -37.5 -91t-86.5 -35q-50 0 -87 35t-37 91z M917 1786q0 56 37.5 91.5t87.5 35.5q49 0 86.5 -35t37.5 -92q0 -56 -37.5 -91t-86.5 -35t-87 35t-38 91z" />
<glyph unicode="&#xdb;" horiz-adv-x="1479" d="M174 554v936h209v-911q0 -224 99 -325.5t258 -101.5q80 0 145 25.5t112.5 77t73 131.5t25.5 193v911h209v-936q0 -125 -33 -232t-103 -185.5t-176.5 -124t-252.5 -45.5t-254 45.5t-177 124t-102 186t-33 231.5zM446 1681l293 308l293 -308l-84 -94l-209 189l-209 -189z " />
<glyph unicode="&#xdc;" horiz-adv-x="1479" d="M174 554v936h209v-911q0 -224 99 -325.5t258 -101.5q80 0 145 25.5t112.5 77t73 131.5t25.5 193v911h209v-936q0 -125 -33 -232t-103 -185.5t-176.5 -124t-252.5 -45.5t-254 45.5t-177 124t-102 186t-33 231.5zM411 1786q0 56 37 91.5t87 35.5q49 0 86.5 -35t37.5 -92 q0 -56 -37.5 -91t-86.5 -35q-50 0 -87 35t-37 91zM819 1786q0 56 37.5 91.5t87.5 35.5q49 0 86.5 -35t37.5 -92q0 -56 -37.5 -91t-86.5 -35t-87 35t-38 91z" />
<glyph unicode="&#xe2;" horiz-adv-x="1122" d="M92 333q0 92 38 159t102.5 107.5t150 60t181.5 19.5q30 0 62 -3t61 -8t50.5 -9.5t30.5 -6.5v56q0 49 -10.5 97.5t-39 86t-77 60t-124.5 22.5q-99 0 -173.5 -14t-111.5 -29l-23 165q39 17 129 34t195 17q121 0 203.5 -31.5t133.5 -88.5t72.5 -135.5t21.5 -173.5v-699 q-26 -4 -72.5 -11.5t-104.5 -14t-126 -12t-134 -5.5q-94 0 -174 19.5t-137.5 61.5t-90.5 110.5t-33 165.5zM273 1346l293 308l293 -308l-84 -94l-209 189l-209 -189zM295 335q0 -107 68.5 -149t186.5 -42q72 0 126.5 3t91.5 13v332q-21 11 -70 19t-117 8q-45 0 -95.5 -7 t-92.5 -27.5t-70 -55.5t-28 -94z" />
<glyph unicode="&#xe7;" horiz-adv-x="999" d="M109 556q0 130 38 237.5t106.5 186t169 123t222.5 44.5q75 0 150 -13.5t145 -41.5l-45 -169q-46 21 -105 34t-125 13q-168 0 -257.5 -105.5t-89.5 -308.5q0 -90 20.5 -165t64.5 -128.5t113 -83t168 -29.5q79 0 143.5 15.5t101.5 31.5l28 -167q-17 -8 -46 -18t-66 -17.5 t-79 -13t-82 -7.5l-24 -54q62 -30 90 -65.5t28 -104.5q0 -24 -10.5 -51.5t-36 -51t-68.5 -38.5t-107 -15q-55 0 -101.5 8t-74.5 20l24 122q26 -9 55 -15t66 -6q78 0 77 49q0 24 -24 40t-67 34l-14 6q8 26 23.5 62.5t31.5 68.5q-109 15 -192 63t-138.5 123.5t-84 173.5 t-28.5 213z" />
<glyph unicode="&#xee;" horiz-adv-x="543" d="M-20 1346l293 308l293 -308l-84 -94l-209 189l-209 -189zM172 0v1118h200v-1118h-200z" />
<glyph unicode="&#xf6;" horiz-adv-x="1268" d="M109 559q0 131 39 239.5t109 186.5t167 120t210 42q115 0 211.5 -42t166.5 -120t108.5 -186.5t38.5 -239.5q0 -134 -38.5 -241t-108.5 -184.5t-166.5 -119.5t-211.5 -42q-114 0 -210.5 42t-166.5 119.5t-109 185t-39 240.5zM306 1451q0 56 37 91.5t87 35.5q49 0 86.5 -35 t37.5 -92q0 -56 -37.5 -91t-86.5 -35q-50 0 -87 35t-37 91zM318 559q0 -189 85 -300t231 -111t231 111t85 300t-85 300t-231 111t-231 -110.5t-85 -300.5zM714 1451q0 56 37.5 91.5t87.5 35.5q49 0 86.5 -35t37.5 -92q0 -56 -37.5 -91t-86.5 -35t-87 35t-38 91z" />
<glyph unicode="&#xfb;" d="M160 490v628h199v-585q0 -204 64.5 -292.5t216.5 -88.5q33 0 67.5 3t64.5 6t55 6t35 7v944h201v-1085q-70 -17 -182.5 -37t-260.5 -20q-130 0 -218 37.5t-141.5 106.5t-77 162.5t-23.5 207.5zM318 1346l293 308l293 -308l-84 -94l-209 189l-209 -189z" />
<glyph unicode="&#xfc;" d="M160 490v628h199v-585q0 -204 64.5 -292.5t216.5 -88.5q33 0 67.5 3t64.5 6t55 6t35 7v944h201v-1085q-70 -17 -182.5 -37t-260.5 -20q-130 0 -218 37.5t-141.5 106.5t-77 162.5t-23.5 207.5zM283 1451q0 56 37 91.5t87 35.5q49 0 86.5 -35t37.5 -92q0 -56 -37.5 -91 t-86.5 -35q-50 0 -87 35t-37 91zM691 1451q0 56 37.5 91.5t87.5 35.5q49 0 86.5 -35t37.5 -92q0 -56 -37.5 -91t-86.5 -35t-87 35t-38 91z" />
<glyph unicode="&#x100;" horiz-adv-x="1424" d="M17 0q86 236 161.5 437t147.5 382t143 345.5t148 325.5h191q78 -162 149 -326t143 -345t147.5 -382t160.5 -437h-228q-37 97 -69 190.5t-66 189.5h-675l-136 -380h-217zM407 1709v155h611v-155h-611zM430 552h555q-69 187 -137 362.5t-140 337.5q-76 -162 -143.5 -337 t-134.5 -363z" />
<glyph unicode="&#x101;" horiz-adv-x="1122" d="M92 333q0 92 38 159t102.5 107.5t150 60t181.5 19.5q30 0 62 -3t61 -8t50.5 -9.5t30.5 -6.5v56q0 49 -10.5 97.5t-39 86t-77 60t-124.5 22.5q-99 0 -173.5 -14t-111.5 -29l-23 165q39 17 129 34t195 17q121 0 203.5 -31.5t133.5 -88.5t72.5 -135.5t21.5 -173.5v-699 q-26 -4 -72.5 -11.5t-104.5 -14t-126 -12t-134 -5.5q-94 0 -174 19.5t-137.5 61.5t-90.5 110.5t-33 165.5zM261 1374v155h611v-155h-611zM295 335q0 -107 68.5 -149t186.5 -42q72 0 126.5 3t91.5 13v332q-21 11 -70 19t-117 8q-45 0 -95.5 -7t-92.5 -27.5t-70 -55.5t-28 -94 z" />
<glyph unicode="&#x102;" horiz-adv-x="1424" d="M17 0q86 236 161.5 437t147.5 382t143 345.5t148 325.5h191q78 -162 149 -326t143 -345t147.5 -382t160.5 -437h-228q-37 97 -69 190.5t-66 189.5h-675l-136 -380h-217zM428 1946h129q2 -24 9.5 -52t25 -50.5t47 -38t75.5 -15.5q45 0 75.5 15.5t47 38t24.5 50.5t10 52 h129q2 -72 -19.5 -127.5t-61.5 -93.5t-93 -58.5t-112 -20.5q-60 0 -113 20.5t-92.5 58.5t-61 93.5t-19.5 127.5zM430 552h555q-69 187 -137 362.5t-140 337.5q-76 -162 -143.5 -337t-134.5 -363z" />
<glyph unicode="&#x103;" horiz-adv-x="1122" d="M92 333q0 92 38 159t102.5 107.5t150 60t181.5 19.5q30 0 62 -3t61 -8t50.5 -9.5t30.5 -6.5v56q0 49 -10.5 97.5t-39 86t-77 60t-124.5 22.5q-99 0 -173.5 -14t-111.5 -29l-23 165q39 17 129 34t195 17q121 0 203.5 -31.5t133.5 -88.5t72.5 -135.5t21.5 -173.5v-699 q-26 -4 -72.5 -11.5t-104.5 -14t-126 -12t-134 -5.5q-94 0 -174 19.5t-137.5 61.5t-90.5 110.5t-33 165.5zM279 1611h129q2 -24 9.5 -52t25 -50.5t47 -38t75.5 -15.5q45 0 75.5 15.5t47 38t24.5 50.5t10 52h129q2 -72 -19.5 -127.5t-61.5 -93.5t-93 -58.5t-112 -20.5 q-60 0 -113 20.5t-92.5 58.5t-61 93.5t-19.5 127.5zM295 335q0 -107 68.5 -149t186.5 -42q72 0 126.5 3t91.5 13v332q-21 11 -70 19t-117 8q-45 0 -95.5 -7t-92.5 -27.5t-70 -55.5t-28 -94z" />
<glyph unicode="&#x104;" horiz-adv-x="1424" d="M17 0q86 236 161.5 437t147.5 382t143 345.5t148 325.5h191q78 -162 149 -326t142 -344t146 -381t161 -435q-19 -10 -51 -31.5t-65 -56.5q-30 -35 -47.5 -60.5t-17.5 -55.5q0 -61 86 -62q15 0 40.5 3t48.5 11l15 -130q-24 -10 -61.5 -17t-80.5 -7q-121 0 -179 44t-58 120 q0 49 27 95t64 85q16 17 30.5 30t24.5 24q-36 96 -69.5 192t-67.5 192h-675l-136 -380h-217zM430 552h555q-69 187 -137 362.5t-140 337.5q-76 -162 -143.5 -337t-134.5 -363z" />
<glyph unicode="&#x105;" horiz-adv-x="1122" d="M92 333q0 92 38 159t102.5 107.5t150 60t181.5 19.5q30 0 62 -3t61 -8t50.5 -9.5t30.5 -6.5v56q0 49 -10.5 97.5t-39 86t-77 60t-124.5 22.5q-99 0 -173.5 -14t-111.5 -29l-23 165q39 17 129 34t195 17q121 0 203.5 -31.5t133.5 -88.5t72.5 -135.5t21.5 -173.5v-699 q-26 -19 -57 -43.5t-64 -59.5q-30 -35 -49.5 -60.5t-19.5 -55.5q0 -61 86 -62q15 0 40 3t48 11l16 -130q-24 -10 -62 -17t-81 -7q-121 0 -178.5 44t-57.5 120q0 49 30 95t66 85q11 13 26 25t26 23q-49 -5 -101.5 -9.5t-104.5 -4.5q-94 0 -174 19.5t-137.5 61.5t-90.5 110.5 t-33 165.5zM295 335q0 -107 68.5 -149t186.5 -42q72 0 126.5 3t91.5 13v332q-21 11 -70 19t-117 8q-45 0 -95.5 -7t-92.5 -27.5t-70 -55.5t-28 -94z" />
<glyph unicode="&#x106;" horiz-adv-x="1332" d="M125 747q0 186 56.5 331t154 244.5t226 151t275.5 51.5q92 0 166 -13.5t128.5 -30t89.5 -34t47 -25.5l-59 -172q-19 12 -56 27.5t-83 30.5t-101 24.5t-111 9.5q-119 0 -213.5 -41t-161 -118t-102 -188t-35.5 -248q0 -134 31 -243.5t93.5 -188.5t156 -122t218.5 -43 q144 0 238.5 30.5t141.5 53.5l55 -172q-15 -11 -54.5 -27t-97 -30.5t-135 -26t-168.5 -11.5q-157 0 -285.5 52t-221 151t-143 244t-50.5 333zM645 1673l275 330l129 -127l-303 -294z" />
<glyph unicode="&#x107;" horiz-adv-x="999" d="M109 556q0 130 38 237.5t106.5 186t169 123t222.5 44.5q75 0 150 -13.5t145 -41.5l-45 -169q-46 21 -105 34t-125 13q-168 0 -257.5 -105.5t-89.5 -308.5q0 -90 20.5 -165t64.5 -128.5t113 -83t168 -29.5q79 0 143.5 15.5t101.5 31.5l28 -167q-17 -10 -49 -20t-73 -17.5 t-87.5 -13t-89.5 -5.5q-135 0 -237.5 43t-172.5 120.5t-104.5 184t-34.5 234.5zM473 1338l275 330l129 -127l-303 -294z" />
<glyph unicode="&#x108;" horiz-adv-x="1332" d="M125 747q0 186 56.5 331t154 244.5t226 151t275.5 51.5q92 0 166 -13.5t128.5 -30t89.5 -34t47 -25.5l-59 -172q-19 12 -56 27.5t-83 30.5t-101 24.5t-111 9.5q-119 0 -213.5 -41t-161 -118t-102 -188t-35.5 -248q0 -134 31 -243.5t93.5 -188.5t156 -122t218.5 -43 q144 0 238.5 30.5t141.5 53.5l55 -172q-15 -11 -54.5 -27t-97 -30.5t-135 -26t-168.5 -11.5q-157 0 -285.5 52t-221 151t-143 244t-50.5 333zM496 1681l293 308l293 -308l-84 -94l-209 189l-209 -189z" />
<glyph unicode="&#x109;" horiz-adv-x="999" d="M109 556q0 130 38 237.5t106.5 186t169 123t222.5 44.5q75 0 150 -13.5t145 -41.5l-45 -169q-46 21 -105 34t-125 13q-168 0 -257.5 -105.5t-89.5 -308.5q0 -90 20.5 -165t64.5 -128.5t113 -83t168 -29.5q79 0 143.5 15.5t101.5 31.5l28 -167q-17 -10 -49 -20t-73 -17.5 t-87.5 -13t-89.5 -5.5q-135 0 -237.5 43t-172.5 120.5t-104.5 184t-34.5 234.5zM324 1346l293 308l293 -308l-84 -94l-209 189l-209 -189z" />
<glyph unicode="&#x10a;" horiz-adv-x="1332" d="M125 747q0 186 56.5 331t154 244.5t226 151t275.5 51.5q92 0 166 -13.5t128.5 -30t89.5 -34t47 -25.5l-59 -172q-19 12 -56 27.5t-83 30.5t-101 24.5t-111 9.5q-119 0 -213.5 -41t-161 -118t-102 -188t-35.5 -248q0 -134 31 -243.5t93.5 -188.5t156 -122t218.5 -43 q144 0 238.5 30.5t141.5 53.5l55 -172q-15 -11 -54.5 -27t-97 -30.5t-135 -26t-168.5 -11.5q-157 0 -285.5 52t-221 151t-143 244t-50.5 333zM660 1786q0 60 38 95.5t91 35.5q54 0 91.5 -35t37.5 -96q0 -60 -37.5 -95.5t-91.5 -35.5q-53 0 -91 35.5t-38 95.5z" />
<glyph unicode="&#x10b;" horiz-adv-x="999" d="M109 556q0 130 38 237.5t106.5 186t169 123t222.5 44.5q75 0 150 -13.5t145 -41.5l-45 -169q-46 21 -105 34t-125 13q-168 0 -257.5 -105.5t-89.5 -308.5q0 -90 20.5 -165t64.5 -128.5t113 -83t168 -29.5q79 0 143.5 15.5t101.5 31.5l28 -167q-17 -10 -49 -20t-73 -17.5 t-87.5 -13t-89.5 -5.5q-135 0 -237.5 43t-172.5 120.5t-104.5 184t-34.5 234.5zM488 1451q0 60 38 95.5t91 35.5q54 0 91.5 -35t37.5 -96q0 -60 -37.5 -95.5t-91.5 -35.5q-53 0 -91 35.5t-38 95.5z" />
<glyph unicode="&#x10c;" horiz-adv-x="1332" d="M125 747q0 186 56.5 331t154 244.5t226 151t275.5 51.5q92 0 166 -13.5t128.5 -30t89.5 -34t47 -25.5l-59 -172q-19 12 -56 27.5t-83 30.5t-101 24.5t-111 9.5q-119 0 -213.5 -41t-161 -118t-102 -188t-35.5 -248q0 -134 31 -243.5t93.5 -188.5t156 -122t218.5 -43 q144 0 238.5 30.5t141.5 53.5l55 -172q-15 -11 -54.5 -27t-97 -30.5t-135 -26t-168.5 -11.5q-157 0 -285.5 52t-221 151t-143 244t-50.5 333zM496 1903l84 94l209 -189l209 189l84 -94l-293 -308z" />
<glyph unicode="&#x10d;" horiz-adv-x="999" d="M109 556q0 130 38 237.5t106.5 186t169 123t222.5 44.5q75 0 150 -13.5t145 -41.5l-45 -169q-46 21 -105 34t-125 13q-168 0 -257.5 -105.5t-89.5 -308.5q0 -90 20.5 -165t64.5 -128.5t113 -83t168 -29.5q79 0 143.5 15.5t101.5 31.5l28 -167q-17 -10 -49 -20t-73 -17.5 t-87.5 -13t-89.5 -5.5q-135 0 -237.5 43t-172.5 120.5t-104.5 184t-34.5 234.5zM324 1568l84 94l209 -189l209 189l84 -94l-293 -308z" />
<glyph unicode="&#x10e;" horiz-adv-x="1533" d="M185 24v1445q88 21 196.5 29t199.5 8q182 0 335 -46.5t262.5 -140.5t169.5 -236.5t60 -335.5q0 -194 -60 -337t-169.5 -236.5t-262.5 -140t-335 -46.5q-91 0 -199.5 7.5t-196.5 29.5zM394 176q19 -2 67 -4t136 -2q298 0 443.5 152t145.5 425t-145.5 424.5t-443.5 151.5 q-88 0 -136 -2.5t-67 -4.5v-1140zM419 1903l84 94l209 -189l209 189l84 -94l-293 -308z" />
<glyph unicode="&#x10f;" horiz-adv-x="1336" d="M109 559q0 129 33.5 236.5t98.5 185t158 120.5t214 43q97 0 171 -26t111 -49v565l199 34v-1635q-69 -19 -176 -39t-247 -20q-129 0 -232.5 41t-176.5 116.5t-113 183.5t-40 244zM318 559q0 -196 96.5 -302.5t258.5 -106.5q82 0 136.5 8t85.5 16v708q-37 30 -106 58 t-151 28q-86 0 -147 -31.5t-99.5 -86t-56 -130t-17.5 -161.5zM1245 1190v478h191l-57 -478h-134z" />
<glyph unicode="&#x110;" horiz-adv-x="1560" d="M41 697v161h172v611q88 21 197 29t199 8q183 0 335 -46.5t262 -140.5t170 -236.5t60 -335.5q0 -194 -60 -337t-170 -236.5t-262 -140t-335 -46.5q-90 0 -199 7.5t-197 29.5v673h-172zM421 176q19 -2 68 -4t137 -2q297 0 443 152t146 425t-146 424.5t-443 151.5 q-88 0 -136.5 -2.5t-68.5 -4.5v-458h280v-161h-280v-521z" />
<glyph unicode="&#x111;" horiz-adv-x="1266" d="M109 556q0 130 33.5 236.5t98.5 182.5t158 118t214 42q97 0 171 -25.5t111 -49.5v260h-382v149h382v165l199 34v-199h160v-149h-160v-1287q-69 -19 -176 -39t-247 -20q-129 0 -232.5 40t-176.5 116.5t-113 183.5t-40 242zM318 556q0 -195 96.5 -300.5t258.5 -105.5 q82 0 136.5 8t85.5 16v699q-37 30 -106 58t-151 28q-86 0 -147 -30t-99.5 -83.5t-56 -128t-17.5 -161.5z" />
<glyph unicode="&#x112;" horiz-adv-x="1227" d="M185 0v1490h909v-179h-700v-443h623v-173h-623v-517h755v-178h-964zM333 1709v155h611v-155h-611z" />
<glyph unicode="&#x113;" horiz-adv-x="1201" d="M109 556q0 149 43 260t114.5 184t164 110t189.5 37q225 0 345.5 -141.5t120.5 -429.5v-32.5t-2 -38.5h-766q13 -174 101 -264.5t276 -90.5q105 0 177 18.5t109 36.5l28 -168q-37 -19 -128 -41t-208 -22q-146 0 -252.5 44t-175.5 121.5t-102.5 183.5t-33.5 233zM292 1374 v155h611v-155h-611zM322 667h556q2 135 -68 222t-193 87q-69 0 -121.5 -26.5t-89 -69.5t-57 -99.5t-27.5 -113.5z" />
<glyph unicode="&#x114;" horiz-adv-x="1227" d="M185 0v1490h909v-179h-700v-443h623v-173h-623v-517h755v-178h-964zM334 1946h129q2 -24 9.5 -52t25 -50.5t47 -38t75.5 -15.5q45 0 75.5 15.5t47 38t24.5 50.5t10 52h129q2 -72 -19.5 -127.5t-61.5 -93.5t-93 -58.5t-112 -20.5q-60 0 -113 20.5t-92.5 58.5t-61 93.5 t-19.5 127.5z" />
<glyph unicode="&#x115;" horiz-adv-x="1201" d="M109 556q0 149 43 260t114.5 184t164 110t189.5 37q225 0 345.5 -141.5t120.5 -429.5v-32.5t-2 -38.5h-766q13 -174 101 -264.5t276 -90.5q105 0 177 18.5t109 36.5l28 -168q-37 -19 -128 -41t-208 -22q-146 0 -252.5 44t-175.5 121.5t-102.5 183.5t-33.5 233zM320 1611 h129q2 -24 9.5 -52t25 -50.5t47 -38t75.5 -15.5q45 0 75.5 15.5t47 38t24.5 50.5t10 52h129q2 -72 -19.5 -127.5t-61.5 -93.5t-93 -58.5t-112 -20.5q-60 0 -113 20.5t-92.5 58.5t-61 93.5t-19.5 127.5zM322 667h556q2 135 -68 222t-193 87q-69 0 -121.5 -26.5t-89 -69.5 t-57 -99.5t-27.5 -113.5z" />
<glyph unicode="&#x116;" horiz-adv-x="1227" d="M185 0v1490h909v-179h-700v-443h623v-173h-623v-517h755v-178h-964zM509 1786q0 60 38 95.5t91 35.5q54 0 91.5 -35t37.5 -96q0 -60 -37.5 -95.5t-91.5 -35.5q-53 0 -91 35.5t-38 95.5z" />
<glyph unicode="&#x117;" horiz-adv-x="1201" d="M109 556q0 149 43 260t114.5 184t164 110t189.5 37q225 0 345.5 -141.5t120.5 -429.5v-32.5t-2 -38.5h-766q13 -174 101 -264.5t276 -90.5q105 0 177 18.5t109 36.5l28 -168q-37 -19 -128 -41t-208 -22q-146 0 -252.5 44t-175.5 121.5t-102.5 183.5t-33.5 233zM322 667 h556q2 135 -68 222t-193 87q-69 0 -121.5 -26.5t-89 -69.5t-57 -99.5t-27.5 -113.5zM486 1451q0 60 38 95.5t91 35.5q54 0 91.5 -35t37.5 -96q0 -60 -37.5 -95.5t-91.5 -35.5q-53 0 -91 35.5t-38 95.5z" />
<glyph unicode="&#x118;" horiz-adv-x="1227" d="M185 0v1490h909v-179h-700v-443h623v-173h-623v-517h755v-174q-19 -10 -51.5 -31.5t-65.5 -56.5q-30 -35 -47 -60.5t-17 -55.5q0 -61 86 -62q15 0 39.5 3t47.5 11l16 -130q-24 -10 -61.5 -17t-80.5 -7q-120 0 -178.5 44t-58.5 120q0 49 27.5 95t62.5 85q17 17 31.5 31 t31.5 27h-746z" />
<glyph unicode="&#x119;" horiz-adv-x="1201" d="M109 556q0 149 43 260t114.5 184t164 110t189.5 37q225 0 345.5 -141.5t120.5 -429.5v-32.5t-2 -38.5h-766q13 -174 101 -264.5t276 -90.5q105 0 177 18.5t109 36.5l28 -168q-37 -29 -73.5 -56.5t-71.5 -64.5q-37 -37 -52.5 -63.5t-15.5 -52.5q0 -36 24.5 -49t61.5 -13 q26 0 49 5t39 9l15 -130q-26 -13 -66.5 -18.5t-75.5 -5.5q-109 0 -172.5 39t-63.5 125q0 49 35 104.5t102 112.5q-16 -2 -35 -3.5t-36 -1.5q-146 0 -252.5 44t-175.5 121.5t-102.5 183.5t-33.5 233zM322 667h556q2 135 -68 222t-193 87q-69 0 -121.5 -26.5t-89 -69.5 t-57 -99.5t-27.5 -113.5z" />
<glyph unicode="&#x11a;" horiz-adv-x="1227" d="M185 0v1490h909v-179h-700v-443h623v-173h-623v-517h755v-178h-964zM326 1903l84 94l209 -189l209 189l84 -94l-293 -308z" />
<glyph unicode="&#x11b;" horiz-adv-x="1201" d="M109 556q0 149 43 260t114.5 184t164 110t189.5 37q225 0 345.5 -141.5t120.5 -429.5v-32.5t-2 -38.5h-766q13 -174 101 -264.5t276 -90.5q105 0 177 18.5t109 36.5l28 -168q-37 -19 -128 -41t-208 -22q-146 0 -252.5 44t-175.5 121.5t-102.5 183.5t-33.5 233zM322 667 h556q2 135 -68 222t-193 87q-69 0 -121.5 -26.5t-89 -69.5t-57 -99.5t-27.5 -113.5zM322 1568l84 94l209 -189l209 189l84 -94l-293 -308z" />
<glyph unicode="&#x11c;" horiz-adv-x="1444" d="M125 747q0 186 56.5 331t154 244.5t227 151t278.5 51.5q101 0 179.5 -13.5t134.5 -30t91.5 -34t48.5 -25.5l-68 -175q-61 41 -164.5 68t-210.5 27q-115 0 -208.5 -41t-159 -118t-102 -188t-36.5 -248q0 -134 31 -243.5t95 -188.5t157 -122t220 -43q91 0 154.5 10t90.5 18 v555h209v-696q-26 -9 -74.5 -20t-111.5 -21.5t-138.5 -18t-153.5 -7.5q-157 0 -285.5 52t-221 150.5t-143 242.5t-50.5 332zM513 1681l293 308l293 -308l-84 -94l-209 189l-209 -189z" />
<glyph unicode="&#x11d;" horiz-adv-x="1242" d="M109 583q0 123 37 224.5t106.5 176t171 116t228.5 41.5q140 0 244 -20t175 -37v-998q0 -258 -133.5 -374t-404.5 -116q-105 0 -199 17t-162 41l37 174q60 -24 147 -42t182 -18q178 0 256.5 71t78.5 225v47q-27 -17 -100.5 -43.5t-172.5 -26.5q-101 0 -190.5 32t-156 99.5 t-105.5 169t-39 241.5zM318 581q0 -97 25 -166t67 -114t97 -66.5t113 -21.5q79 0 146 22.5t104 52.5v654q-30 8 -80 16t-136 8q-162 0 -249 -105.5t-87 -279.5zM359 1346l293 308l293 -308l-84 -94l-209 189l-209 -189z" />
<glyph unicode="&#x11e;" horiz-adv-x="1444" d="M125 747q0 186 56.5 331t154 244.5t227 151t278.5 51.5q101 0 179.5 -13.5t134.5 -30t91.5 -34t48.5 -25.5l-68 -175q-61 41 -164.5 68t-210.5 27q-115 0 -208.5 -41t-159 -118t-102 -188t-36.5 -248q0 -134 31 -243.5t95 -188.5t157 -122t220 -43q91 0 154.5 10t90.5 18 v555h209v-696q-26 -9 -74.5 -20t-111.5 -21.5t-138.5 -18t-153.5 -7.5q-157 0 -285.5 52t-221 150.5t-143 242.5t-50.5 332zM521 1946h129q2 -24 9.5 -52t25 -50.5t47 -38t75.5 -15.5q45 0 75.5 15.5t47 38t24.5 50.5t10 52h129q2 -72 -19.5 -127.5t-61.5 -93.5t-93 -58.5 t-112 -20.5q-60 0 -113 20.5t-92.5 58.5t-61 93.5t-19.5 127.5z" />
<glyph unicode="&#x11f;" horiz-adv-x="1242" d="M109 583q0 123 37 224.5t106.5 176t171 116t228.5 41.5q140 0 244 -20t175 -37v-998q0 -258 -133.5 -374t-404.5 -116q-105 0 -199 17t-162 41l37 174q60 -24 147 -42t182 -18q178 0 256.5 71t78.5 225v47q-27 -17 -100.5 -43.5t-172.5 -26.5q-101 0 -190.5 32t-156 99.5 t-105.5 169t-39 241.5zM318 581q0 -97 25 -166t67 -114t97 -66.5t113 -21.5q79 0 146 22.5t104 52.5v654q-30 8 -80 16t-136 8q-162 0 -249 -105.5t-87 -279.5zM365 1611h129q2 -24 9.5 -52t25 -50.5t47 -38t75.5 -15.5q45 0 75.5 15.5t47 38t24.5 50.5t10 52h129 q2 -72 -19.5 -127.5t-61.5 -93.5t-93 -58.5t-112 -20.5q-60 0 -113 20.5t-92.5 58.5t-61 93.5t-19.5 127.5z" />
<glyph unicode="&#x120;" horiz-adv-x="1444" d="M125 747q0 186 56.5 331t154 244.5t227 151t278.5 51.5q101 0 179.5 -13.5t134.5 -30t91.5 -34t48.5 -25.5l-68 -175q-61 41 -164.5 68t-210.5 27q-115 0 -208.5 -41t-159 -118t-102 -188t-36.5 -248q0 -134 31 -243.5t95 -188.5t157 -122t220 -43q91 0 154.5 10t90.5 18 v555h209v-696q-26 -9 -74.5 -20t-111.5 -21.5t-138.5 -18t-153.5 -7.5q-157 0 -285.5 52t-221 150.5t-143 242.5t-50.5 332zM677 1786q0 60 38 95.5t91 35.5q54 0 91.5 -35t37.5 -96q0 -60 -37.5 -95.5t-91.5 -35.5q-53 0 -91 35.5t-38 95.5z" />
<glyph unicode="&#x121;" horiz-adv-x="1242" d="M109 583q0 123 37 224.5t106.5 176t171 116t228.5 41.5q140 0 244 -20t175 -37v-998q0 -258 -133.5 -374t-404.5 -116q-105 0 -199 17t-162 41l37 174q60 -24 147 -42t182 -18q178 0 256.5 71t78.5 225v47q-27 -17 -100.5 -43.5t-172.5 -26.5q-101 0 -190.5 32t-156 99.5 t-105.5 169t-39 241.5zM318 581q0 -97 25 -166t67 -114t97 -66.5t113 -21.5q79 0 146 22.5t104 52.5v654q-30 8 -80 16t-136 8q-162 0 -249 -105.5t-87 -279.5zM523 1451q0 60 38 95.5t91 35.5q54 0 91.5 -35t37.5 -96q0 -60 -37.5 -95.5t-91.5 -35.5q-53 0 -91 35.5 t-38 95.5z" />
<glyph unicode="&#x122;" horiz-adv-x="1444" d="M125 747q0 186 56.5 331t154 244.5t227 151t278.5 51.5q101 0 179.5 -13.5t134.5 -30t91.5 -34t48.5 -25.5l-68 -175q-61 41 -164.5 68t-210.5 27q-115 0 -208.5 -41t-159 -118t-102 -188t-36.5 -248q0 -134 31 -243.5t95 -188.5t157 -122t220 -43q91 0 154.5 10t90.5 18 v555h209v-696q-26 -9 -74.5 -20t-111.5 -21.5t-138.5 -18t-153.5 -7.5q-157 0 -285.5 52t-221 150.5t-143 242.5t-50.5 332zM579 -275q33 0 59.5 4t44 18.5t27 42t9.5 75.5v28h191q2 -11 2 -25v-20q0 -70 -20.5 -117t-54.5 -77t-80.5 -44t-97.5 -14q-29 0 -51.5 2t-28.5 6 v121z" />
<glyph unicode="&#x123;" horiz-adv-x="1242" d="M109 583q0 123 37 224.5t106.5 176t171 116t228.5 41.5q140 0 244 -20t175 -37v-998q0 -258 -133.5 -374t-404.5 -116q-105 0 -199 17t-162 41l37 174q60 -24 147 -42t182 -18q178 0 256.5 71t78.5 225v47q-27 -17 -100.5 -43.5t-172.5 -26.5q-101 0 -190.5 32t-156 99.5 t-105.5 169t-39 241.5zM318 581q0 -97 25 -166t67 -114t97 -66.5t113 -21.5q79 0 146 22.5t104 52.5v654q-30 8 -80 16t-136 8q-162 0 -249 -105.5t-87 -279.5zM553 1334v20q0 78 21.5 135.5t57 95.5t78.5 60.5t85 33.5l72 -97q-27 -19 -49.5 -38t-38 -46t-24.5 -65t-9 -95 v-29h-191q-2 11 -2 25z" />
<glyph unicode="&#x124;" horiz-adv-x="1515" d="M185 0v1490h209v-622h728v622h209v-1490h-209v688h-728v-688h-209zM464 1681l293 308l293 -308l-84 -94l-209 189l-209 -189z" />
<glyph unicode="&#x125;" horiz-adv-x="1227" d="M114 1865l264 203l265 -203l-62 -98l-203 131l-201 -131zM172 0v1634l200 34v-572q55 21 118.5 33t126.5 12q134 0 222 -37t140.5 -105t74 -162.5t21.5 -208.5v-628h-199v585q0 103 -14.5 176.5t-47 118.5t-86 65.5t-133.5 20.5q-32 0 -66 -4.5t-65 -10t-56 -12 t-36 -10.5v-929h-200z" />
<glyph unicode="&#x126;" horiz-adv-x="1571" d="M41 1125v153h172v212h208v-212h730v212h208v-212h172v-153h-172v-1125h-208v688h-730v-688h-208v1125h-172zM421 868h730v257h-730v-257z" />
<glyph unicode="&#x127;" horiz-adv-x="1227" d="M13 1320v149h159v165l200 34v-199h381v-149h-381v-232q55 21 118.5 33t126.5 12q134 0 222 -37.5t140.5 -105t74 -162.5t21.5 -208v-620h-199v576q0 103 -14.5 176t-47 118.5t-86 66t-133.5 20.5q-32 0 -66 -4.5t-65 -9.5t-56 -11.5t-36 -10.5v-921h-200v1320h-159z" />
<glyph unicode="&#x128;" horiz-adv-x="577" d="M-62 1709q9 27 28.5 61t47 63t65.5 49.5t83 20.5q43 0 81 -15.5t72 -32.5q37 -16 62 -25t50 -9q36 0 67 30.5t49 63.5l103 -51q-10 -26 -28.5 -60.5t-46.5 -63t-65.5 -49t-83.5 -20.5q-43 0 -80.5 14.5t-72.5 32.5q-37 17 -62 26t-49 9q-37 0 -68 -30.5t-49 -64.5zM185 0 v1490h209v-1490h-209z" />
<glyph unicode="&#x129;" horiz-adv-x="543" d="M-80 1374q9 27 28.5 61t47 63t65.5 49.5t83 20.5q43 0 81 -15.5t72 -32.5q37 -16 62 -25t50 -9q36 0 67 30.5t49 63.5l103 -51q-10 -26 -28.5 -60.5t-46.5 -63t-65.5 -49t-83.5 -20.5q-43 0 -80.5 14.5t-72.5 32.5q-37 17 -62 26t-49 9q-37 0 -68 -30.5t-49 -64.5zM172 0 v1118h200v-1118h-200z" />
<glyph unicode="&#x12a;" horiz-adv-x="577" d="M-15 1709v155h611v-155h-611zM185 0v1490h209v-1490h-209z" />
<glyph unicode="&#x12b;" horiz-adv-x="543" d="M-32 1374v155h611v-155h-611zM172 0v1118h200v-1118h-200z" />
<glyph unicode="&#x12c;" horiz-adv-x="577" d="M4 1946h129q2 -24 9.5 -52t25 -50.5t47 -38t75.5 -15.5q45 0 75.5 15.5t47 38t24.5 50.5t10 52h129q2 -72 -19.5 -127.5t-61.5 -93.5t-93 -58.5t-112 -20.5q-60 0 -113 20.5t-92.5 58.5t-61 93.5t-19.5 127.5zM185 0v1490h209v-1490h-209z" />
<glyph unicode="&#x12d;" horiz-adv-x="543" d="M-13 1611h129q2 -24 9.5 -52t25 -50.5t47 -38t75.5 -15.5q45 0 75.5 15.5t47 38t24.5 50.5t10 52h129q2 -72 -19.5 -127.5t-61.5 -93.5t-93 -58.5t-112 -20.5q-60 0 -113 20.5t-92.5 58.5t-61 93.5t-19.5 127.5zM172 0v1118h200v-1118h-200z" />
<glyph unicode="&#x12e;" horiz-adv-x="577" d="M37 -238q0 49 27.5 95t64.5 85l31 31t25 23v1494h209v-1490q-24 -17 -49 -36.5t-50 -47.5q-30 -35 -49.5 -60.5t-19.5 -55.5q0 -61 86 -62q15 0 39.5 3t48.5 11l15 -130q-52 -24 -142 -24q-123 0 -179.5 44t-56.5 120z" />
<glyph unicode="&#x12f;" horiz-adv-x="543" d="M19 -238q0 49 28.5 94t63.5 86q17 19 33 33.5t28 24.5v1118h200v-1118q-52 -39 -95 -84q-30 -35 -49 -60.5t-19 -55.5q0 -61 86 -62q15 0 39.5 3t48.5 11l15 -130q-52 -24 -142 -24q-123 0 -180 44t-57 120zM142 1451q0 60 37.5 95.5t91.5 35.5q53 0 91 -35t38 -96 q0 -60 -38 -95.5t-91 -35.5q-54 0 -91.5 35.5t-37.5 95.5z" />
<glyph unicode="&#x130;" horiz-adv-x="577" d="M161 1786q0 60 38 95.5t91 35.5q54 0 91.5 -35t37.5 -96q0 -60 -37.5 -95.5t-91.5 -35.5q-53 0 -91 35.5t-38 95.5zM185 0v1490h209v-1490h-209z" />
<glyph unicode="&#x131;" horiz-adv-x="543" d="M172 0v1118h200v-1118h-200z" />
<glyph unicode="&#x132;" horiz-adv-x="1650" d="M185 0v1490h209v-1490h-209zM604 88l82 166q45 -32 117 -68t180 -36q154 0 225 79t71 270v991h209v-1010q0 -107 -22.5 -200t-79.5 -163t-153 -110t-240 -40q-73 0 -134 12.5t-111 30.5t-86 38.5t-58 39.5z" />
<glyph unicode="&#x133;" horiz-adv-x="1096" d="M142 1451q0 60 37.5 95.5t91.5 35.5q53 0 91 -35t38 -96q0 -60 -38 -95.5t-91 -35.5q-54 0 -91.5 35.5t-37.5 95.5zM172 0v1118h200v-1118h-200zM406 -378l25 163q21 -7 49.5 -11t52.5 -4q103 0 147 63.5t44 185.5v1099h200v-1097q0 -215 -98 -319t-284 -104q-27 0 -68 6 t-68 18zM694 1451q0 60 37.5 95.5t91.5 35.5q53 0 91 -35t38 -96q0 -60 -38 -95.5t-91 -35.5q-54 0 -91.5 35.5t-37.5 95.5z" />
<glyph unicode="&#x134;" horiz-adv-x="1075" d="M17 88l82 166q45 -32 117 -68t180 -36q154 0 225 79t71 270v991h209v-1010q0 -107 -22.5 -200t-79.5 -163t-153 -110t-240 -40q-73 0 -134 12.5t-111 30.5t-86 38.5t-58 39.5zM503 1681l293 308l293 -308l-84 -94l-209 189l-209 -189z" />
<glyph unicode="&#x135;" horiz-adv-x="543" d="M-146 -374l25 163q21 -6 49.5 -10.5t52.5 -4.5q103 0 147 63.5t44 186.5v1094h200v-1092q0 -215 -98 -319.5t-284 -104.5q-27 0 -68 6.5t-68 17.5zM-20 1346l293 308l293 -308l-84 -94l-209 189l-209 -189z" />
<glyph unicode="&#x136;" horiz-adv-x="1352" d="M185 0v1490h209v-657q75 71 165 160t178 179t167 173t132 145h252q-66 -74 -150 -162.5t-176 -182.5t-182 -184.5t-169 -166.5q93 -64 195.5 -159t202 -203t186.5 -219.5t145 -212.5h-246q-64 101 -148 203.5t-177.5 195.5t-189 173t-185.5 136v-708h-209zM482 -275 q33 0 59.5 4t44 18.5t27 42t9.5 75.5v28h191q2 -11 2 -25v-20q0 -70 -20.5 -117t-54.5 -77t-80.5 -44t-97.5 -14q-29 0 -51.5 2t-28.5 6v121z" />
<glyph unicode="&#x137;" horiz-adv-x="1122" d="M172 0v1634l200 34v-1019l113.5 113.5t123 127t114 124t92.5 104.5h234q-49 -53 -107 -117.5t-120.5 -130.5t-126 -131.5t-119.5 -123.5q64 -49 136.5 -122.5t142.5 -158t132 -171.5t105 -163h-234q-45 76 -104 154t-123.5 150t-131 132.5t-127.5 101.5v-538h-200z M361 -275q33 0 59.5 4t44 18.5t27 42t9.5 75.5v28h191q2 -11 2 -25v-20q0 -70 -20.5 -117t-54.5 -77t-80.5 -44t-97.5 -14q-29 0 -51.5 2t-28.5 6v121z" />
<glyph unicode="&#x138;" horiz-adv-x="1153" d="M172 0v1118h200v-480q51 50 117.5 115.5t134.5 133t126 129t95 102.5h232q-47 -51 -110.5 -116.5t-131 -134.5t-134.5 -136.5t-120 -121.5q66 -47 143.5 -119.5t151.5 -156t138.5 -170.5t110.5 -163h-237q-47 74 -110.5 150t-132.5 147t-139.5 131t-133.5 101v-529h-200z " />
<glyph unicode="&#x139;" horiz-adv-x="1115" d="M185 0v1490h209v-1309h688v-181h-897zM197 1673l275 330l129 -127l-303 -294z" />
<glyph unicode="&#x13a;" horiz-adv-x="586" d="M126 1880l346 168l61 -158l-362 -129zM168 293v1341l200 34v-1344q0 -49 8.5 -81t27.5 -51.5t51.5 -29.5t80.5 -16l-29 -167q-185 4 -262 79t-77 235z" />
<glyph unicode="&#x13b;" horiz-adv-x="1115" d="M185 0v1490h209v-1309h688v-181h-897zM404 -275q33 0 59.5 4t44 18.5t27 42t9.5 75.5v28h191q2 -11 2 -25v-20q0 -70 -20.5 -117t-54.5 -77t-80.5 -44t-97.5 -14q-29 0 -51.5 2t-28.5 6v121z" />
<glyph unicode="&#x13c;" horiz-adv-x="586" d="M84 -275q33 0 59.5 4t44 18.5t27 42t9.5 75.5v28h191q2 -11 2 -25v-20q0 -70 -20.5 -117t-54.5 -77t-80.5 -44t-97.5 -14q-29 0 -51.5 2t-28.5 6v121zM168 293v1341l200 34v-1344q0 -49 8.5 -81t27.5 -51.5t51.5 -29.5t80.5 -16l-29 -167q-185 4 -262 79t-77 235z" />
<glyph unicode="&#x13d;" horiz-adv-x="1115" d="M185 0v1490h209v-1309h688v-181h-897zM587 1014v478h191l-57 -478h-134z" />
<glyph unicode="&#x13e;" horiz-adv-x="610" d="M168 293v1341l200 34v-1344q0 -49 8.5 -81t27.5 -51.5t51.5 -29.5t80.5 -16l-29 -167q-185 4 -262 79t-77 235zM517 1190v478h191l-57 -478h-134z" />
<glyph unicode="&#x13f;" horiz-adv-x="1115" d="M185 0v1490h209v-1309h688v-181h-897zM720 780q0 60 38 95.5t91 35.5q54 0 91.5 -35t37.5 -96q0 -60 -37.5 -95.5t-91.5 -35.5q-53 0 -91 35.5t-38 95.5z" />
<glyph unicode="&#x140;" horiz-adv-x="792" d="M168 293v1341l200 34v-1344q0 -49 8.5 -81t27.5 -51.5t51.5 -29.5t80.5 -16l-29 -167q-185 4 -262 79t-77 235zM540 780q0 60 38 95.5t91 35.5q54 0 91.5 -35t37.5 -96q0 -60 -37.5 -95.5t-91.5 -35.5q-53 0 -91 35.5t-38 95.5z" />
<glyph unicode="&#x141;" horiz-adv-x="1153" d="M-4 677l228 117v696h209v-589l248 129l70 -142l-318 -166v-541h687v-181h-896v615l-158 -79z" />
<glyph unicode="&#x142;" horiz-adv-x="616" d="M6 802l191 97v735l201 34v-666l156 82l68 -134l-224 -115v-511q0 -49 8.5 -81t28 -51.5t52 -29.5t79.5 -16l-28 -167q-185 4 -263 79t-78 235v438l-121 -62z" />
<glyph unicode="&#x143;" horiz-adv-x="1564" d="M185 0v1490h166q101 -107 215.5 -250.5t227.5 -294.5t213.5 -297.5t168.5 -260.5v1103h205v-1490h-175q-47 80 -108.5 178.5t-132 205t-147 216.5t-152 212t-146.5 192t-130 159v-1163h-205zM638 1673l275 330l129 -127l-303 -294z" />
<glyph unicode="&#x144;" d="M172 0v1086q70 16 183 35.5t262 19.5q134 0 222 -37t140.5 -105t74 -162.5t21.5 -208.5v-628h-199v585q0 103 -14.5 176.5t-47 118.5t-86 65.5t-133.5 20.5q-32 0 -66 -2.5t-65 -6t-56 -7.5t-36 -6v-944h-200zM480 1338l275 330l129 -127l-303 -294z" />
<glyph unicode="&#x145;" horiz-adv-x="1564" d="M185 0v1490h166q101 -107 215.5 -250.5t227.5 -294.5t213.5 -297.5t168.5 -260.5v1103h205v-1490h-175q-47 80 -108.5 178.5t-132 205t-147 216.5t-152 212t-146.5 192t-130 159v-1163h-205zM554 -275q33 0 59.5 4t44 18.5t27 42t9.5 75.5v28h191q2 -11 2 -25v-20 q0 -70 -20.5 -117t-54.5 -77t-80.5 -44t-97.5 -14q-29 0 -51.5 2t-28.5 6v121z" />
<glyph unicode="&#x146;" d="M172 0v1086q70 16 183 35.5t262 19.5q134 0 222 -37t140.5 -105t74 -162.5t21.5 -208.5v-628h-199v585q0 103 -14.5 176.5t-47 118.5t-86 65.5t-133.5 20.5q-32 0 -66 -2.5t-65 -6t-56 -7.5t-36 -6v-944h-200zM396 -275q33 0 59.5 4t44 18.5t27 42t9.5 75.5v28h191 q2 -11 2 -25v-20q0 -70 -20.5 -117t-54.5 -77t-80.5 -44t-97.5 -14q-29 0 -51.5 2t-28.5 6v121z" />
<glyph unicode="&#x147;" horiz-adv-x="1564" d="M185 0v1490h166q101 -107 215.5 -250.5t227.5 -294.5t213.5 -297.5t168.5 -260.5v1103h205v-1490h-175q-47 80 -108.5 178.5t-132 205t-147 216.5t-152 212t-146.5 192t-130 159v-1163h-205zM489 1903l84 94l209 -189l209 189l84 -94l-293 -308z" />
<glyph unicode="&#x148;" d="M172 0v1086q70 16 183 35.5t262 19.5q134 0 222 -37t140.5 -105t74 -162.5t21.5 -208.5v-628h-199v585q0 103 -14.5 176.5t-47 118.5t-86 65.5t-133.5 20.5q-32 0 -66 -2.5t-65 -6t-56 -7.5t-36 -6v-944h-200zM330 1568l84 94l209 -189l209 189l84 -94l-293 -308z" />
<glyph unicode="&#x149;" d="M16 1266q41 82 59 161t18 160q0 21 -1.5 45t-3.5 36h207v-39.5t-2 -36.5q-8 -109 -45 -201t-88 -174zM172 0v1086q70 16 183 35.5t262 19.5q134 0 222 -37t140.5 -105t74 -162.5t21.5 -208.5v-628h-199v585q0 103 -14.5 176.5t-47 118.5t-86 65.5t-133.5 20.5 q-32 0 -66 -2.5t-65 -6t-56 -7.5t-36 -6v-944h-200z" />
<glyph unicode="&#x14a;" horiz-adv-x="1564" d="M185 0v1490h166q101 -107 215.5 -250.5t227.5 -294.5t213.5 -297.5t168.5 -260.5v1103h205v-1490q0 -99 -13.5 -174.5t-47.5 -126t-96.5 -76t-158.5 -25.5q-31 0 -71 5t-63 12l19 157q17 -6 46.5 -8t46.5 -2q79 0 106 52.5t27 148.5v88q-76 123 -175.5 276t-207 305.5 t-212.5 293.5t-191 237v-1163h-205z" />
<glyph unicode="&#x14b;" d="M172 0v1086q70 16 183 35.5t262 19.5q134 0 222 -37t140.5 -105t74 -162.5t21.5 -208.5v-628q0 -99 -14 -174.5t-49.5 -126t-97.5 -76t-159 -25.5q-31 0 -70.5 5t-62.5 12l18 157q17 -6 46.5 -8t46.5 -2q80 0 111.5 52.5t31.5 148.5v622q0 103 -14.5 176.5t-47 118.5 t-86 65.5t-133.5 20.5q-32 0 -66 -2.5t-65 -6t-56 -7.5t-36 -6v-944h-200z" />
<glyph unicode="&#x14c;" horiz-adv-x="1672" d="M125 747q0 191 56.5 337t155 244t228.5 147.5t276 49.5q144 0 272 -49.5t224.5 -147.5t154 -244t57.5 -337q0 -192 -57.5 -338.5t-154 -244.5t-224.5 -147.5t-272 -49.5q-146 0 -276 49.5t-228.5 147.5t-155 244.5t-56.5 338.5zM344 747q0 -136 34.5 -246.5t98 -188.5 t154.5 -120t206 -42q114 0 204 42t153.5 120t98 188.5t34.5 246.5q0 135 -34.5 246t-98 188t-154 119t-203.5 42q-115 0 -206 -42t-154.5 -119t-98 -188t-34.5 -246zM532 1709v155h611v-155h-611z" />
<glyph unicode="&#x14d;" horiz-adv-x="1268" d="M109 559q0 131 39 239.5t109 186.5t167 120t210 42q115 0 211.5 -42t166.5 -120t108.5 -186.5t38.5 -239.5q0 -134 -38.5 -241t-108.5 -184.5t-166.5 -119.5t-211.5 -42q-114 0 -210.5 42t-166.5 119.5t-109 185t-39 240.5zM318 559q0 -189 85 -300t231 -111t231 111 t85 300t-85 300t-231 111t-231 -110.5t-85 -300.5zM329 1374v155h611v-155h-611z" />
<glyph unicode="&#x14e;" horiz-adv-x="1672" d="M125 747q0 191 56.5 337t155 244t228.5 147.5t276 49.5q144 0 272 -49.5t224.5 -147.5t154 -244t57.5 -337q0 -192 -57.5 -338.5t-154 -244.5t-224.5 -147.5t-272 -49.5q-146 0 -276 49.5t-228.5 147.5t-155 244.5t-56.5 338.5zM344 747q0 -136 34.5 -246.5t98 -188.5 t154.5 -120t206 -42q114 0 204 42t153.5 120t98 188.5t34.5 246.5q0 135 -34.5 246t-98 188t-154 119t-203.5 42q-115 0 -206 -42t-154.5 -119t-98 -188t-34.5 -246zM551 1946h129q2 -24 9.5 -52t25 -50.5t47 -38t75.5 -15.5q45 0 75.5 15.5t47 38t24.5 50.5t10 52h129 q2 -72 -19.5 -127.5t-61.5 -93.5t-93 -58.5t-112 -20.5q-60 0 -113 20.5t-92.5 58.5t-61 93.5t-19.5 127.5z" />
<glyph unicode="&#x14f;" horiz-adv-x="1268" d="M109 559q0 131 39 239.5t109 186.5t167 120t210 42q115 0 211.5 -42t166.5 -120t108.5 -186.5t38.5 -239.5q0 -134 -38.5 -241t-108.5 -184.5t-166.5 -119.5t-211.5 -42q-114 0 -210.5 42t-166.5 119.5t-109 185t-39 240.5zM318 559q0 -189 85 -300t231 -111t231 111 t85 300t-85 300t-231 111t-231 -110.5t-85 -300.5zM349 1611h129q2 -24 9.5 -52t25 -50.5t47 -38t75.5 -15.5q45 0 75.5 15.5t47 38t24.5 50.5t10 52h129q2 -72 -19.5 -127.5t-61.5 -93.5t-93 -58.5t-112 -20.5q-60 0 -113 20.5t-92.5 58.5t-61 93.5t-19.5 127.5z" />
<glyph unicode="&#x150;" horiz-adv-x="1672" d="M125 747q0 191 56.5 337t155 244t228.5 147.5t276 49.5q144 0 272 -49.5t224.5 -147.5t154 -244t57.5 -337q0 -192 -57.5 -338.5t-154 -244.5t-224.5 -147.5t-272 -49.5q-146 0 -276 49.5t-228.5 147.5t-155 244.5t-56.5 338.5zM344 747q0 -136 34.5 -246.5t98 -188.5 t154.5 -120t206 -42q114 0 204 42t153.5 120t98 188.5t34.5 246.5q0 135 -34.5 246t-98 188t-154 119t-203.5 42q-115 0 -206 -42t-154.5 -119t-98 -188t-34.5 -246zM566 1660l246 343l121 -119l-264 -302zM921 1660l246 343l121 -119l-264 -302z" />
<glyph unicode="&#x151;" horiz-adv-x="1268" d="M109 559q0 131 39 239.5t109 186.5t167 120t210 42q115 0 211.5 -42t166.5 -120t108.5 -186.5t38.5 -239.5q0 -134 -38.5 -241t-108.5 -184.5t-166.5 -119.5t-211.5 -42q-114 0 -210.5 42t-166.5 119.5t-109 185t-39 240.5zM318 559q0 -189 85 -300t231 -111t231 111 t85 300t-85 300t-231 111t-231 -110.5t-85 -300.5zM364 1325l246 343l121 -119l-264 -302zM719 1325l246 343l121 -119l-264 -302z" />
<glyph unicode="&#x152;" horiz-adv-x="2134" d="M125 747q0 191 62.5 332.5t170.5 236t256.5 142.5t323.5 48q49 0 109.5 -5t113.5 -11h841v-174h-668v-450h591v-169h-591v-523h722v-174h-895q-53 -6 -114.5 -10.5t-110.5 -4.5q-175 0 -323.5 47.5t-256.5 142t-169.5 237t-61.5 335.5zM346 747q0 -138 41 -245.5 t117.5 -182t186 -114t245.5 -39.5q49 0 84.5 1t58.5 3q27 2 46 6v1138q-48 6 -95 8.5t-94 2.5q-136 0 -245.5 -40t-186 -114.5t-117.5 -181.5t-41 -242z" />
<glyph unicode="&#x153;" horiz-adv-x="2035" d="M109 559q0 131 39 239.5t109 186.5t167 120t210 42q136 0 242.5 -63.5t172.5 -174.5q71 121 180 179.5t224 58.5q224 0 345.5 -142.5t121.5 -428.5q0 -16 -1 -28t-1 -23v-20h-765q13 -172 102 -263.5t274 -91.5q105 0 177.5 18.5t108.5 36.5l28 -168q-37 -19 -128 -41 t-207 -22q-170 0 -283 62.5t-176 172.5q-69 -117 -174 -177t-241 -60q-114 0 -210.5 42t-166.5 119.5t-109 185t-39 240.5zM318 559q0 -189 85 -300t231 -111t231 111t85 300t-85 300t-231 111t-231 -110.5t-85 -300.5zM1157 667h555q2 135 -68 222t-193 87 q-69 0 -121 -26.5t-88 -69.5t-57.5 -99.5t-27.5 -113.5z" />
<glyph unicode="&#x154;" horiz-adv-x="1352" d="M185 0v1469q88 21 196.5 29t199.5 8q314 0 478 -119t164 -353q0 -148 -78.5 -253.5t-230.5 -156.5q34 -43 87 -113t109 -155t110.5 -177.5t93.5 -178.5h-228q-43 82 -93.5 166t-102 160t-102.5 143t-91 116q-28 -2 -57 -2h-59h-187v-583h-209zM394 755h148 q107 0 193 10.5t145.5 41t91.5 85t32 144.5q0 84 -32 140.5t-86.5 88.5t-129.5 45t-159 13q-133 0 -203 -7v-561zM488 1673l275 330l129 -127l-303 -294z" />
<glyph unicode="&#x155;" horiz-adv-x="829" d="M172 0v1071q72 26 177 48t236 22q26 0 59 -3t65.5 -8t59.5 -10.5t39 -9.5l-34 -174q-24 8 -79 20t-141 12q-55 0 -109.5 -12t-72.5 -16v-940h-200zM351 1338l275 330l129 -127l-303 -294z" />
<glyph unicode="&#x156;" horiz-adv-x="1352" d="M185 0v1469q88 21 196.5 29t199.5 8q314 0 478 -119t164 -353q0 -148 -78.5 -253.5t-230.5 -156.5q34 -43 87 -113t109 -155t110.5 -177.5t93.5 -178.5h-228q-43 82 -93.5 166t-102 160t-102.5 143t-91 116q-28 -2 -57 -2h-59h-187v-583h-209zM394 755h148 q107 0 193 10.5t145.5 41t91.5 85t32 144.5q0 84 -32 140.5t-86.5 88.5t-129.5 45t-159 13q-133 0 -203 -7v-561zM476 -275q33 0 59.5 4t44 18.5t27 42t9.5 75.5v28h191q2 -11 2 -25v-20q0 -70 -20.5 -117t-54.5 -77t-80.5 -44t-97.5 -14q-29 0 -51.5 2t-28.5 6v121z" />
<glyph unicode="&#x157;" horiz-adv-x="829" d="M39 -275q33 0 59.5 4t44 18.5t27 42t9.5 75.5v28h191q2 -11 2 -25v-20q0 -70 -20.5 -117t-54.5 -77t-80.5 -44t-97.5 -14q-29 0 -51.5 2t-28.5 6v121zM172 0v1071q72 26 177 48t236 22q26 0 59 -3t65.5 -8t59.5 -10.5t39 -9.5l-34 -174q-24 8 -79 20t-141 12 q-55 0 -109.5 -12t-72.5 -16v-940h-200z" />
<glyph unicode="&#x158;" horiz-adv-x="1352" d="M185 0v1469q88 21 196.5 29t199.5 8q314 0 478 -119t164 -353q0 -148 -78.5 -253.5t-230.5 -156.5q34 -43 87 -113t109 -155t110.5 -177.5t93.5 -178.5h-228q-43 82 -93.5 166t-102 160t-102.5 143t-91 116q-28 -2 -57 -2h-59h-187v-583h-209zM339 1903l84 94l209 -189 l209 189l84 -94l-293 -308zM394 755h148q107 0 193 10.5t145.5 41t91.5 85t32 144.5q0 84 -32 140.5t-86.5 88.5t-129.5 45t-159 13q-133 0 -203 -7v-561z" />
<glyph unicode="&#x159;" horiz-adv-x="829" d="M172 0v1071q72 26 177 48t236 22q26 0 59 -3t65.5 -8t59.5 -10.5t39 -9.5l-34 -174q-24 8 -79 20t-141 12q-55 0 -109.5 -12t-72.5 -16v-940h-200zM199 1568l84 94l209 -189l209 189l84 -94l-293 -308z" />
<glyph unicode="&#x15a;" horiz-adv-x="1143" d="M71 74l62 171q50 -29 151 -63t247 -34q327 0 327 224q0 69 -29 117.5t-78.5 84t-113 61t-134.5 51.5q-82 28 -155 63.5t-126.5 84t-85 115t-31.5 161.5q0 195 133.5 305t368.5 110q135 0 246 -29t162 -64l-67 -170q-45 28 -134.5 55t-206.5 27q-60 0 -112 -13t-91 -39 t-61.5 -66t-22.5 -93q0 -60 24 -101t67 -72t100 -56.5t125 -51.5q97 -39 178 -78t140 -92.5t91 -127.5t32 -180q0 -196 -142.5 -301.5t-403.5 -105.5q-88 0 -162 12.5t-132.5 28.5t-100.5 34t-65 32zM449 1673l275 330l129 -127l-303 -294z" />
<glyph unicode="&#x15b;" horiz-adv-x="958" d="M86 37l37 172q35 -13 110 -39t200 -26q122 0 181 32.5t59 102.5q0 74 -58.5 117t-191.5 96q-64 27 -123.5 53.5t-102.5 63t-68.5 88.5t-25.5 126q0 148 109.5 236t298.5 88q48 0 95.5 -6t88 -13.5t72 -15.5t48.5 -16l-37 -171q-32 17 -100.5 35.5t-166.5 18.5 q-84 0 -146 -34t-62 -104q0 -37 14 -64.5t43.5 -50t72.5 -42t103 -41.5q79 -31 141.5 -60t106 -67t68 -93t24.5 -135q0 -155 -115.5 -234.5t-327.5 -79.5q-148 0 -232 25t-115 38zM344 1338l275 330l129 -127l-303 -294z" />
<glyph unicode="&#x15c;" horiz-adv-x="1143" d="M71 74l62 171q50 -29 151 -63t247 -34q327 0 327 224q0 69 -29 117.5t-78.5 84t-113 61t-134.5 51.5q-82 28 -155 63.5t-126.5 84t-85 115t-31.5 161.5q0 195 133.5 305t368.5 110q135 0 246 -29t162 -64l-67 -170q-45 28 -134.5 55t-206.5 27q-60 0 -112 -13t-91 -39 t-61.5 -66t-22.5 -93q0 -60 24 -101t67 -72t100 -56.5t125 -51.5q97 -39 178 -78t140 -92.5t91 -127.5t32 -180q0 -196 -142.5 -301.5t-403.5 -105.5q-88 0 -162 12.5t-132.5 28.5t-100.5 34t-65 32zM300 1681l293 308l293 -308l-84 -94l-209 189l-209 -189z" />
<glyph unicode="&#x15d;" horiz-adv-x="958" d="M86 37l37 172q35 -13 110 -39t200 -26q122 0 181 32.5t59 102.5q0 74 -58.5 117t-191.5 96q-64 27 -123.5 53.5t-102.5 63t-68.5 88.5t-25.5 126q0 148 109.5 236t298.5 88q48 0 95.5 -6t88 -13.5t72 -15.5t48.5 -16l-37 -171q-32 17 -100.5 35.5t-166.5 18.5 q-84 0 -146 -34t-62 -104q0 -37 14 -64.5t43.5 -50t72.5 -42t103 -41.5q79 -31 141.5 -60t106 -67t68 -93t24.5 -135q0 -155 -115.5 -234.5t-327.5 -79.5q-148 0 -232 25t-115 38zM195 1346l293 308l293 -308l-84 -94l-209 189l-209 -189z" />
<glyph unicode="&#x15e;" horiz-adv-x="1143" d="M71 74l62 171q50 -29 151 -63t247 -34q327 0 327 224q0 69 -29 117.5t-78.5 84t-113 61t-134.5 51.5q-82 28 -155 63.5t-126.5 84t-85 115t-31.5 161.5q0 195 133.5 305t368.5 110q135 0 246 -29t162 -64l-67 -170q-45 28 -134.5 55t-206.5 27q-60 0 -112 -13t-91 -39 t-61.5 -66t-22.5 -93q0 -60 24 -101t67 -72t100 -56.5t125 -51.5q97 -39 178 -78t140 -92.5t91 -127.5t32 -180q0 -174 -115 -277t-330 -125l-23 -52q62 -30 90 -65.5t28 -104.5q0 -24 -10.5 -51.5t-36.5 -51t-69 -38.5t-106 -15q-56 0 -102 8t-74 20l24 122q26 -9 55 -15 t66 -6q77 0 76 49q0 24 -23.5 40t-66.5 34l-15 6q9 24 22 55t28 60q-82 3 -150 15t-121.5 28t-92.5 33t-60 31z" />
<glyph unicode="&#x15f;" horiz-adv-x="958" d="M86 37l37 172q35 -13 110 -39t200 -26q122 0 181 32.5t59 102.5q0 74 -58.5 117t-191.5 96q-64 27 -123.5 53.5t-102.5 63t-68.5 88.5t-25.5 126q0 148 109.5 236t298.5 88q48 0 95.5 -6t88 -13.5t72 -15.5t48.5 -16l-37 -171q-32 17 -100.5 35.5t-166.5 18.5 q-84 0 -146 -34t-62 -104q0 -39 14 -65.5t43.5 -48t72.5 -42t103 -42.5q77 -31 139 -60t107 -67t69.5 -93t24.5 -135q0 -134 -86 -211t-248 -96q-9 -17 -16 -32t-13 -29q62 -30 90.5 -65.5t28.5 -104.5q0 -24 -10.5 -51.5t-36.5 -51t-68.5 -38.5t-105.5 -15q-56 0 -102.5 8 t-74.5 20l24 122q27 -9 55.5 -15t64.5 -6q78 0 78 49q0 24 -24 40t-67 34l-14 6q8 26 22 59t29 63q-135 4 -211.5 27t-104.5 36z" />
<glyph unicode="&#x160;" horiz-adv-x="1143" d="M71 74l62 171q50 -29 151 -63t247 -34q327 0 327 224q0 69 -29 117.5t-78.5 84t-113 61t-134.5 51.5q-82 28 -155 63.5t-126.5 84t-85 115t-31.5 161.5q0 195 133.5 305t368.5 110q135 0 246 -29t162 -64l-67 -170q-45 28 -134.5 55t-206.5 27q-60 0 -112 -13t-91 -39 t-61.5 -66t-22.5 -93q0 -60 24 -101t67 -72t100 -56.5t125 -51.5q97 -39 178 -78t140 -92.5t91 -127.5t32 -180q0 -196 -142.5 -301.5t-403.5 -105.5q-88 0 -162 12.5t-132.5 28.5t-100.5 34t-65 32zM300 1903l84 94l209 -189l209 189l84 -94l-293 -308z" />
<glyph unicode="&#x161;" horiz-adv-x="958" d="M86 37l37 172q35 -13 110 -39t200 -26q122 0 181 32.5t59 102.5q0 74 -58.5 117t-191.5 96q-64 27 -123.5 53.5t-102.5 63t-68.5 88.5t-25.5 126q0 148 109.5 236t298.5 88q48 0 95.5 -6t88 -13.5t72 -15.5t48.5 -16l-37 -171q-32 17 -100.5 35.5t-166.5 18.5 q-84 0 -146 -34t-62 -104q0 -37 14 -64.5t43.5 -50t72.5 -42t103 -41.5q79 -31 141.5 -60t106 -67t68 -93t24.5 -135q0 -155 -115.5 -234.5t-327.5 -79.5q-148 0 -232 25t-115 38zM187 1568l84 94l209 -189l209 189l84 -94l-293 -308z" />
<glyph unicode="&#x162;" horiz-adv-x="1214" d="M35 1309v181h1145v-181h-468v-1309h-41l-22 -42t-17 -38q62 -30 90.5 -65.5t28.5 -104.5q0 -24 -11 -51.5t-37 -51t-69 -38.5t-105 -15q-55 0 -102 8t-74 20l23 122q26 -9 55 -15t66 -6q77 0 77 49q0 24 -23.5 40t-66.5 34l-16 6q9 30 29 72.5t36 75.5h-30v1309h-468z " />
<glyph unicode="&#x163;" horiz-adv-x="864" d="M160 433v997l199 35v-347h423v-168h-423v-515q0 -84 13 -139.5t39 -86.5t64 -44t91 -13q90 0 144.5 20.5t77.5 30.5l37 -166q-28 -13 -89 -33.5t-143 -24.5q-8 -17 -15.5 -31.5t-11.5 -27.5q62 -30 90 -65.5t28 -104.5q0 -24 -10.5 -51.5t-36.5 -51t-69 -38.5t-106 -15 q-56 0 -102 8t-74 20l24 122q26 -9 55 -15t65 -6q78 0 77 49q0 24 -23.5 40t-66.5 34l-15 6q9 28 23 63.5t31 67.5q-86 11 -143 45t-91.5 90t-48 134.5t-13.5 180.5z" />
<glyph unicode="&#x164;" horiz-adv-x="1214" d="M35 1309v181h1145v-181h-468v-1309h-209v1309h-468zM314 1903l84 94l209 -189l209 189l84 -94l-293 -308z" />
<glyph unicode="&#x165;" horiz-adv-x="864" d="M160 433v997l199 35v-347h423v-168h-423v-515q0 -84 13 -139.5t39 -86.5t64 -44t91 -13q90 0 144.5 20.5t77.5 30.5l37 -166q-30 -15 -105 -38t-172 -23q-114 0 -188 29.5t-119.5 87t-63 142.5t-17.5 198zM511 1252v416h191l-58 -416h-133z" />
<glyph unicode="&#x166;" horiz-adv-x="1214" d="M35 1309v181h1145v-181h-468v-464h279v-161h-279v-684h-209v684h-279v161h279v464h-468z" />
<glyph unicode="&#x167;" horiz-adv-x="864" d="M160 433v997l199 35v-347h423v-168h-423v-292h423v-151h-423v-72q0 -84 13 -139.5t39 -86.5t64 -44t91 -13q90 0 144.5 20.5t77.5 30.5l37 -166q-30 -15 -105 -38t-172 -23q-114 0 -188 29.5t-119.5 87t-63 142.5t-17.5 198z" />
<glyph unicode="&#x168;" horiz-adv-x="1479" d="M174 554v936h209v-911q0 -224 99 -325.5t258 -101.5q80 0 145 25.5t112.5 77t73 131.5t25.5 193v911h209v-936q0 -125 -33 -232t-103 -185.5t-176.5 -124t-252.5 -45.5t-254 45.5t-177 124t-102 186t-33 231.5zM387 1709q9 27 28.5 61t47 63t65.5 49.5t83 20.5 q43 0 81 -15.5t72 -32.5q37 -16 62 -25t50 -9q36 0 67 30.5t49 63.5l103 -51q-10 -26 -28.5 -60.5t-46.5 -63t-65.5 -49t-83.5 -20.5q-43 0 -80.5 14.5t-72.5 32.5q-37 17 -62 26t-49 9q-37 0 -68 -30.5t-49 -64.5z" />
<glyph unicode="&#x169;" d="M160 490v628h199v-585q0 -204 64.5 -292.5t216.5 -88.5q33 0 67.5 3t64.5 6t55 6t35 7v944h201v-1085q-70 -17 -182.5 -37t-260.5 -20q-130 0 -218 37.5t-141.5 106.5t-77 162.5t-23.5 207.5zM262 1374q9 27 28.5 61t47 63t65.5 49.5t83 20.5q43 0 81 -15.5t72 -32.5 q37 -16 62 -25t50 -9q36 0 67 30.5t49 63.5l103 -51q-10 -26 -28.5 -60.5t-46.5 -63t-65.5 -49t-83.5 -20.5q-43 0 -80.5 14.5t-72.5 32.5q-37 17 -62 26t-49 9q-37 0 -68 -30.5t-49 -64.5z" />
<glyph unicode="&#x16a;" horiz-adv-x="1479" d="M174 554v936h209v-911q0 -224 99 -325.5t258 -101.5q80 0 145 25.5t112.5 77t73 131.5t25.5 193v911h209v-936q0 -125 -33 -232t-103 -185.5t-176.5 -124t-252.5 -45.5t-254 45.5t-177 124t-102 186t-33 231.5zM434 1709v155h611v-155h-611z" />
<glyph unicode="&#x16b;" d="M160 490v628h199v-585q0 -204 64.5 -292.5t216.5 -88.5q33 0 67.5 3t64.5 6t55 6t35 7v944h201v-1085q-70 -17 -182.5 -37t-260.5 -20q-130 0 -218 37.5t-141.5 106.5t-77 162.5t-23.5 207.5zM306 1374v155h611v-155h-611z" />
<glyph unicode="&#x16c;" horiz-adv-x="1479" d="M174 554v936h209v-911q0 -224 99 -325.5t258 -101.5q80 0 145 25.5t112.5 77t73 131.5t25.5 193v911h209v-936q0 -125 -33 -232t-103 -185.5t-176.5 -124t-252.5 -45.5t-254 45.5t-177 124t-102 186t-33 231.5zM454 1946h129q2 -24 9.5 -52t25 -50.5t47 -38t75.5 -15.5 q45 0 75.5 15.5t47 38t24.5 50.5t10 52h129q2 -72 -19.5 -127.5t-61.5 -93.5t-93 -58.5t-112 -20.5q-60 0 -113 20.5t-92.5 58.5t-61 93.5t-19.5 127.5z" />
<glyph unicode="&#x16d;" d="M160 490v628h199v-585q0 -204 64.5 -292.5t216.5 -88.5q33 0 67.5 3t64.5 6t55 6t35 7v944h201v-1085q-70 -17 -182.5 -37t-260.5 -20q-130 0 -218 37.5t-141.5 106.5t-77 162.5t-23.5 207.5zM325 1611h129q2 -24 9.5 -52t25 -50.5t47 -38t75.5 -15.5q45 0 75.5 15.5 t47 38t24.5 50.5t10 52h129q2 -72 -19.5 -127.5t-61.5 -93.5t-93 -58.5t-112 -20.5q-60 0 -113 20.5t-92.5 58.5t-61 93.5t-19.5 127.5z" />
<glyph unicode="&#x16e;" horiz-adv-x="1479" d="M174 554v936h209v-911q0 -224 99 -325.5t258 -101.5q80 0 145 25.5t112.5 77t73 131.5t25.5 193v911h209v-936q0 -125 -33 -232t-103 -185.5t-176.5 -124t-252.5 -45.5t-254 45.5t-177 124t-102 186t-33 231.5zM518 1790q0 52 18 92t48 69t70 44t85 15t85 -15t70 -44 t48.5 -69t18.5 -92q0 -51 -18.5 -90.5t-48.5 -69t-70 -44t-85 -14.5t-85 14.5t-70 44t-48 69t-18 90.5zM625 1790q0 -55 33.5 -86t80.5 -31q48 0 81.5 31t33.5 86q0 56 -33.5 87.5t-81.5 31.5q-47 0 -80.5 -31t-33.5 -88z" />
<glyph unicode="&#x16f;" d="M160 490v628h199v-585q0 -204 64.5 -292.5t216.5 -88.5q33 0 67.5 3t64.5 6t55 6t35 7v944h201v-1085q-70 -17 -182.5 -37t-260.5 -20q-130 0 -218 37.5t-141.5 106.5t-77 162.5t-23.5 207.5zM390 1455q0 52 18 92t48 69t70 44t85 15t85 -15t70 -44t48.5 -69t18.5 -92 q0 -51 -18.5 -90.5t-48.5 -69t-70 -44t-85 -14.5t-85 14.5t-70 44t-48 69t-18 90.5zM497 1455q0 -55 33.5 -86t80.5 -31q48 0 81.5 31t33.5 86q0 56 -33.5 87.5t-81.5 31.5q-47 0 -80.5 -31t-33.5 -88z" />
<glyph unicode="&#x170;" horiz-adv-x="1479" d="M174 554v936h209v-911q0 -224 99 -325.5t258 -101.5q80 0 145 25.5t112.5 77t73 131.5t25.5 193v911h209v-936q0 -125 -33 -232t-103 -185.5t-176.5 -124t-252.5 -45.5t-254 45.5t-177 124t-102 186t-33 231.5zM470 1660l246 343l121 -119l-264 -302zM825 1660l246 343 l121 -119l-264 -302z" />
<glyph unicode="&#x171;" d="M160 490v628h199v-585q0 -204 64.5 -292.5t216.5 -88.5q33 0 67.5 3t64.5 6t55 6t35 7v944h201v-1085q-70 -17 -182.5 -37t-260.5 -20q-130 0 -218 37.5t-141.5 106.5t-77 162.5t-23.5 207.5zM340 1325l246 343l121 -119l-264 -302zM695 1325l246 343l121 -119l-264 -302 z" />
<glyph unicode="&#x172;" horiz-adv-x="1479" d="M174 554v936h209v-911q0 -224 99 -325.5t258 -101.5q80 0 145 25.5t112.5 77t73 131.5t25.5 193v911h209v-936q0 -174 -63.5 -309.5t-198.5 -211.5q-50 -31 -89.5 -56.5t-71.5 -60.5q-30 -35 -46.5 -60.5t-16.5 -55.5q0 -61 86 -62q15 0 40 3t48 11l16 -130 q-24 -10 -62 -17t-81 -7q-120 0 -178 44t-58 120q0 60 40 114.5t81 90.5h-11q-146 0 -254 45.5t-177 124t-102 186t-33 231.5z" />
<glyph unicode="&#x173;" d="M160 490v628h199v-585q0 -204 64.5 -292.5t216.5 -88.5q33 0 67.5 3t64.5 6t55 6t35 7v944h201v-1092q-27 -19 -58 -47t-63 -63q-31 -35 -50 -60.5t-19 -55.5q0 -61 86 -62q14 0 39.5 3t48.5 11l16 -130q-25 -10 -62 -17t-80 -7q-121 0 -179 44t-58 120q0 49 30 95t66 85 q11 13 27 26t28 24q-50 -7 -103 -11.5t-112 -4.5q-130 0 -218 37.5t-141.5 106.5t-77 162.5t-23.5 207.5z" />
<glyph unicode="&#x174;" horiz-adv-x="1997" d="M60 1490h219q31 -168 63 -335.5t66.5 -325.5t68.5 -302t71 -267q86 226 182.5 496t180.5 558h181q84 -288 183 -558t186 -496q34 121 68 265t67.5 302t66 327t61.5 336h213q-77 -431 -164 -796t-199 -694h-209q-95 232 -185 477.5t-180 533.5q-91 -288 -183.5 -533.5 t-184.5 -477.5h-209q-114 329 -201 694.5t-162 795.5zM704 1681l293 308l293 -308l-84 -94l-209 189l-209 -189z" />
<glyph unicode="&#x175;" horiz-adv-x="1670" d="M39 1118h215q21 -101 51 -219.5t63.5 -236.5t70.5 -228t68 -191q37 100 72.5 213.5t67.5 228.5t61 226t51 207h166q19 -96 47 -207t60.5 -226t67.5 -228t72 -214q32 81 67.5 191t70 228t64.5 236.5t52 219.5h206q-84 -328 -178.5 -612t-193.5 -506h-174q-60 154 -128 353 t-123 415q-56 -216 -123 -415t-127 -353h-174q-99 222 -193.5 506t-178.5 612zM541 1346l293 308l293 -308l-84 -94l-209 189l-209 -189z" />
<glyph unicode="&#x176;" horiz-adv-x="1285" d="M13 1490h245q82 -176 183 -358t208 -350q105 168 206.5 350t185.5 358h232q-117 -215 -247.5 -437t-276.5 -451v-602h-209v597q-148 230 -279.5 454t-247.5 439zM349 1681l293 308l293 -308l-84 -94l-209 189l-209 -189z" />
<glyph unicode="&#x177;" horiz-adv-x="1067" d="M4 -370l37 161q24 -10 61.5 -19.5t73.5 -9.5q119 0 185.5 52.5t120.5 170.5q-136 259 -253.5 547.5t-193.5 585.5h215q24 -96 57 -208t73.5 -230t88.5 -237t99 -228q82 226 142 447.5t113 455.5h207q-78 -316 -172.5 -607.5t-203.5 -545.5q-43 -96 -89 -166t-102.5 -115 t-126 -66.5t-158.5 -21.5q-24 0 -49.5 3t-50 8.5t-45 12t-29.5 10.5zM269 1346l293 308l293 -308l-84 -94l-209 189l-209 -189z" />
<glyph unicode="&#x178;" horiz-adv-x="1285" d="M13 1490h245q82 -176 183 -358t208 -350q105 168 206.5 350t185.5 358h232q-117 -215 -247.5 -437t-276.5 -451v-602h-209v597q-148 230 -279.5 454t-247.5 439zM314 1786q0 56 37 91.5t87 35.5q49 0 86.5 -35t37.5 -92q0 -56 -37.5 -91t-86.5 -35q-50 0 -87 35t-37 91z M722 1786q0 56 37.5 91.5t87.5 35.5q49 0 86.5 -35t37.5 -92q0 -56 -37.5 -91t-86.5 -35t-87 35t-38 91z" />
<glyph unicode="&#x179;" horiz-adv-x="1231" d="M71 0v140q46 86 106.5 189.5t130.5 210.5t145.5 216.5t149.5 211t144 189.5t129 154h-767v179h1022v-165q-49 -56 -115 -134.5t-139 -174t-150.5 -202t-151.5 -215.5t-140.5 -216.5t-120.5 -204.5h839v-178h-1082zM484 1673l275 330l129 -127l-303 -294z" />
<glyph unicode="&#x17a;" horiz-adv-x="1012" d="M78 0v133q51 95 126 209t158 226.5t161.5 213t136.5 168.5h-553v168h807v-150q-46 -49 -120 -140t-159 -200t-170 -230t-149 -230h615v-168h-853zM353 1338l275 330l129 -127l-303 -294z" />
<glyph unicode="&#x17b;" horiz-adv-x="1231" d="M71 0v140q46 86 106.5 189.5t130.5 210.5t145.5 216.5t149.5 211t144 189.5t129 154h-767v179h1022v-165q-49 -56 -115 -134.5t-139 -174t-150.5 -202t-151.5 -215.5t-140.5 -216.5t-120.5 -204.5h839v-178h-1082zM499 1786q0 60 38 95.5t91 35.5q54 0 91.5 -35t37.5 -96 q0 -60 -37.5 -95.5t-91.5 -35.5q-53 0 -91 35.5t-38 95.5z" />
<glyph unicode="&#x17c;" horiz-adv-x="1012" d="M78 0v133q51 95 126 209t158 226.5t161.5 213t136.5 168.5h-553v168h807v-150q-46 -49 -120 -140t-159 -200t-170 -230t-149 -230h615v-168h-853zM367 1451q0 60 38 95.5t91 35.5q54 0 91.5 -35t37.5 -96q0 -60 -37.5 -95.5t-91.5 -35.5q-53 0 -91 35.5t-38 95.5z" />
<glyph unicode="&#x17d;" horiz-adv-x="1231" d="M71 0v140q46 86 106.5 189.5t130.5 210.5t145.5 216.5t149.5 211t144 189.5t129 154h-767v179h1022v-165q-49 -56 -115 -134.5t-139 -174t-150.5 -202t-151.5 -215.5t-140.5 -216.5t-120.5 -204.5h839v-178h-1082zM335 1903l84 94l209 -189l209 189l84 -94l-293 -308z " />
<glyph unicode="&#x17e;" horiz-adv-x="1012" d="M78 0v133q51 95 126 209t158 226.5t161.5 213t136.5 168.5h-553v168h807v-150q-46 -49 -120 -140t-159 -200t-170 -230t-149 -230h615v-168h-853zM203 1568l84 94l209 -189l209 189l84 -94l-293 -308z" />
<glyph unicode="&#x17f;" horiz-adv-x="586" d="M172 0v1219q0 215 105.5 332t331.5 117q88 0 151 -12.5t89 -23.5l-36 -171q-27 12 -74 23.5t-115 11.5q-140 0 -196 -76t-56 -205v-1215h-200z" />
<glyph unicode="&#x180;" horiz-adv-x="1266" d="M13 1320v149h159v165l200 34v-199h381v-149h-381v-260q36 25 110 50t172 25q121 0 214 -42t157.5 -118t98 -182.5t33.5 -236.5q0 -135 -40 -242t-113 -183.5t-176.5 -116.5t-232.5 -40q-139 0 -247 19.5t-176 39.5v1287h-159zM372 174q30 -8 84.5 -16t136.5 -8 q162 0 258.5 105.5t96.5 300.5q0 87 -17 161.5t-55.5 128t-100 83.5t-147.5 30q-82 0 -151 -28t-105 -58v-699z" />
<glyph unicode="&#x181;" horiz-adv-x="1599" d="M33 1163q0 127 62.5 196t168.5 101t245.5 39t294.5 7q129 0 242 -19.5t197 -66t132.5 -122t48.5 -184.5q0 -123 -61.5 -201t-164.5 -115q138 -39 215 -123t77 -238q0 -224 -164.5 -337t-521.5 -113q-45 0 -97.5 2.5t-105.5 6.5t-104.5 10.5t-94.5 17.5v1285 q-195 -10 -195 -165q0 -16 1 -35t3 -32l-166 -19q-4 15 -8 45t-4 60zM609 168q24 -2 56 -4q28 -2 65.5 -2h86.5q92 0 175 11.5t145.5 41.5t100 84t37.5 136q0 73 -28 123.5t-80.5 81.5t-125.5 44t-163 13h-269v-529zM609 860h210q88 0 160 12t124 39t80 73t28 115 q0 64 -31 108.5t-85 71t-126 39.5t-152 13q-49 0 -87 -1t-65 -1h-56v-469z" />
<glyph unicode="&#x182;" horiz-adv-x="1330" d="M185 21v1469h921v-179h-712v-378h185q157 0 280.5 -25.5t209.5 -82.5t131 -146.5t45 -218.5q0 -236 -172 -355.5t-486 -119.5q-45 0 -97.5 2.5t-105.5 6.5t-104.5 10t-94.5 17zM394 174q24 -2 55 -4q29 -2 67 -2h88q84 0 160.5 12.5t134.5 46t92.5 89.5t34.5 142 q0 90 -31 148.5t-89.5 92.5t-143.5 48t-192 14h-176v-587z" />
<glyph unicode="&#x183;" horiz-adv-x="1266" d="M172 33v1625h862v-168h-662v-430q36 25 110 50t172 25q121 0 214 -42t157.5 -118t98 -182.5t33.5 -236.5q0 -135 -40 -242t-113 -183.5t-176.5 -116.5t-232.5 -40q-139 0 -247 19.5t-176 39.5zM372 174q30 -8 84.5 -16t136.5 -8q162 0 258.5 105.5t96.5 300.5 q0 87 -17 161.5t-55.5 128t-100 83.5t-147.5 30q-82 0 -151 -28t-105 -58v-699z" />
<glyph unicode="&#x184;" horiz-adv-x="1266" d="M21 1522q78 46 167 84.5t184 61.5v-599q36 24 110 49.5t172 25.5q121 0 214 -43t157.5 -120.5t98 -185t33.5 -236.5q0 -136 -40 -244t-113 -183.5t-176.5 -116.5t-232.5 -41q-139 0 -247 19.5t-176 39.5v1326zM372 174q30 -8 84.5 -16t136.5 -8q162 0 258.5 106.5 t96.5 302.5q0 86 -17 161.5t-55.5 130t-100 86t-147.5 31.5q-82 0 -151 -28.5t-105 -57.5v-708z" />
<glyph unicode="&#x185;" horiz-adv-x="1332" d="M43 1357q78 45 169 83.5t190 65.5v-558q43 4 87 5t87 1q678 0 678 -488q0 -240 -175.5 -360.5t-489.5 -120.5q-90 0 -199 7.5t-197 28.5v1173zM402 174q24 -2 54 -4q26 -2 63 -2h88q84 0 161 12.5t136.5 47t94.5 91.5t35 147t-34 150.5t-95.5 95.5t-146.5 48.5t-188 13.5 h-83t-85 -4v-596z" />
<glyph unicode="&#x186;" horiz-adv-x="1332" d="M54 62l53 172q47 -24 141 -54t236 -30q125 0 218.5 43t157 122t95.5 188.5t32 243.5q0 133 -31 242.5t-93.5 188t-157 121.5t-221.5 43q-142 0 -233 -29t-140 -53l-53 166q14 10 52 27.5t96.5 34t134.5 27t166 10.5q158 0 287 -52.5t221.5 -153t143 -244.5t50.5 -328 q0 -183 -50.5 -328.5t-143 -245t-220.5 -153t-286 -53.5q-90 0 -167 11.5t-136.5 26t-98 30.5t-53.5 27z" />
<glyph unicode="&#x187;" horiz-adv-x="1424" d="M125 747q0 186 56.5 331t154 244.5t226 151t275.5 51.5q88 -5 148 -17t111 -29q35 112 102.5 161.5t203.5 49.5q30 0 71 -7.5t64 -18.5l-33 -152q-17 6 -46.5 10.5t-47.5 4.5q-60 0 -94 -24t-53.5 -62.5t-29.5 -87t-22 -95.5q-19 8 -56 22.5t-84 28.5t-102 23.5t-111 9.5 q-119 0 -213.5 -41t-161 -118t-102 -188t-35.5 -248q0 -134 31 -243.5t93.5 -188.5t156 -122t218.5 -43q144 0 238.5 30.5t141.5 53.5l55 -172q-15 -11 -54.5 -27t-97 -30.5t-135 -26t-168.5 -11.5q-157 0 -285.5 52t-221 151t-143 244t-50.5 333z" />
<glyph unicode="&#x188;" horiz-adv-x="1092" d="M109 556q0 130 38 237.5t106.5 186t169 123t222.5 44.5q64 0 129 -14q39 121 105.5 170t193.5 49q31 0 69 -7t62 -18l-34 -145q-17 7 -44 11.5t-44 4.5q-56 0 -88.5 -23.5t-50.5 -62.5t-27 -87.5t-17 -99.5q-13 4 -37.5 11.5t-57 15t-69 13t-70.5 5.5 q-168 0 -257.5 -105.5t-89.5 -308.5q0 -90 20.5 -165t64.5 -128.5t113 -83t168 -29.5q79 0 143.5 15.5t101.5 31.5l28 -167q-17 -10 -49 -20t-73 -17.5t-87.5 -13t-89.5 -5.5q-135 0 -237.5 43t-172.5 120.5t-104.5 184t-34.5 234.5z" />
<glyph unicode="&#x189;" horiz-adv-x="1560" d="M41 697v161h172v611q88 21 197 29t199 8q183 0 335 -46.5t262 -140.5t170 -236.5t60 -335.5q0 -194 -60 -337t-170 -236.5t-262 -140t-335 -46.5q-90 0 -199 7.5t-197 29.5v673h-172zM421 176q19 -2 68 -4t137 -2q297 0 443 152t146 425t-146 424.5t-443 151.5 q-88 0 -136.5 -2.5t-68.5 -4.5v-458h280v-161h-280v-521z" />
<glyph unicode="&#x18a;" horiz-adv-x="1750" d="M30 1163q0 127 64 196t169 101t243.5 39t291.5 7q183 0 335.5 -46.5t262.5 -140.5t169.5 -236.5t59.5 -335.5q0 -194 -59.5 -337t-169.5 -236.5t-262.5 -140t-335.5 -46.5q-90 0 -199 7.5t-197 29.5v1285q-197 -10 -197 -165q0 -16 1 -35t3 -32l-166 -19q-4 15 -8.5 45 t-4.5 60zM611 176q24 -2 54 -4q26 -2 63 -2h87q297 0 443 152t146 425t-146 424.5t-443 151.5q-97 0 -149.5 -1.5t-54.5 -1.5v-1144z" />
<glyph unicode="&#x18b;" horiz-adv-x="1344" d="M99 460q0 129 45 218.5t131 146.5t210 82.5t280 25.5h185v383h-712v174h921v-1469q-43 -11 -94.5 -17t-105.5 -10t-105.5 -6.5t-96.5 -2.5q-314 0 -486 119.5t-172 355.5zM318 458q0 -86 34.5 -142t92.5 -89.5t134.5 -46t160.5 -12.5h88t67 2q32 2 55 4v587h-176 q-107 0 -192 -14t-143.5 -48t-89.5 -92.5t-31 -148.5z" />
<glyph unicode="&#x18c;" horiz-adv-x="1266" d="M109 556q0 130 33.5 236.5t98.5 182.5t158 118t214 42q97 0 171 -25.5t111 -49.5v430h-663v168h862v-1625q-69 -19 -176 -39t-247 -20q-129 0 -232.5 40t-176.5 116.5t-113 183.5t-40 242zM318 556q0 -195 96.5 -300.5t258.5 -105.5q82 0 136.5 8t85.5 16v699 q-37 30 -106 58t-151 28q-86 0 -147 -30t-99.5 -83.5t-56 -128t-17.5 -161.5z" />
<glyph unicode="&#x18d;" horiz-adv-x="1250" d="M109 611q0 90 25.5 185.5t85 173t162 127.5t256.5 50q127 0 221.5 -45.5t157 -119t93.5 -167t31 -191.5q0 -76 -25.5 -150t-71.5 -141.5t-111 -124t-141 -89.5q71 -43 118 -97.5t47 -135.5q0 -78 -33.5 -131.5t-90.5 -88t-130 -49.5t-151 -15q-53 0 -106.5 5.5t-101 14 t-83 18t-52.5 16.5l36 163q32 -14 112 -35.5t191 -21.5q103 0 159 22.5t56 84.5q0 45 -26.5 75t-71.5 56t-104.5 53t-123.5 64q-148 81 -238 197t-90 297zM314 617q0 -62 13 -109.5t35.5 -86t53.5 -68.5t70 -58q33 -24 69 -45.5t73 -40.5q69 28 127 71.5t100 99t64.5 117.5 t22.5 127q0 71 -19.5 134t-57.5 111.5t-94.5 76.5t-132.5 28q-98 0 -161.5 -33.5t-99 -86t-49.5 -116t-14 -121.5z" />
<glyph unicode="&#x18e;" horiz-adv-x="1227" d="M80 0v178h755v517h-624v173h624v443h-702v179h910v-1490h-963z" />
<glyph unicode="&#x18f;" horiz-adv-x="1515" d="M121 714q0 17 2 42.5t4 39.5h1047q-19 277 -147 411.5t-391 134.5q-69 0 -125.5 -9.5t-102 -23.5t-78.5 -29.5t-55 -25.5l-51 172q16 12 55 28.5t95 33t129 27t157 10.5q187 0 324.5 -58.5t228 -161.5t134.5 -245t44 -307q0 -198 -51.5 -344.5t-141.5 -245.5t-212 -147.5 t-264 -48.5q-281 0 -441 187.5t-160 559.5zM340 626q0 -105 26 -193.5t74 -152t120 -99t167 -35.5q109 0 190 43t135 111t81.5 154t34.5 172h-828z" />
<glyph unicode="&#x190;" horiz-adv-x="1229" d="M109 413q0 86 27.5 150.5t71.5 112.5t103 80t124 48q-127 41 -193 131.5t-66 193.5q0 101 39 175.5t108 122.5t163.5 71.5t205.5 23.5q66 0 132 -7t121 -20t99 -29.5t70 -33.5l-67 -170q-45 28 -139.5 55t-212.5 27q-137 0 -220 -61.5t-83 -157.5q0 -76 38 -125.5 t98.5 -78.5t133.5 -40t144 -11h112v-169h-133q-96 0 -179 -12t-144.5 -44t-97 -87t-35.5 -141q0 -146 102 -207.5t285 -61.5q66 0 126.5 11t110 26t89.5 32t64 31l62 -172q-25 -13 -67.5 -32.5t-100.5 -35.5t-131 -28.5t-155 -12.5q-135 0 -247 25t-191 79t-123 139t-44 203 z" />
<glyph unicode="&#x191;" horiz-adv-x="1153" d="M-60 -385l19 157q17 -6 46.5 -8t45.5 -2q80 0 107 52.5t27 148.5v1527h899v-174h-690v-456h612v-170h-612v-690q0 -99 -14.5 -174.5t-49.5 -126t-97.5 -76t-158.5 -25.5q-31 0 -71 5t-63 12z" />
<glyph unicode="&#x192;" horiz-adv-x="829" d="M-146 -378l25 163q24 -7 51 -11t55 -4q101 0 144 63.5t43 185.5v1200q0 215 104.5 332t336.5 117q84 0 147 -12.5t89 -23.5l-36 -171q-24 12 -72.5 23.5t-110.5 11.5q-146 0 -202 -75t-56 -206v-97h430v-168h-430v-929q0 -215 -98 -319t-272 -104q-88 0 -148 24z" />
<glyph unicode="&#x193;" horiz-adv-x="1444" d="M125 747q0 186 55.5 331t151.5 244.5t225 151t278 51.5q96 0 158.5 -14.5t114.5 -31.5q34 112 102 161.5t203 49.5q31 0 71.5 -7.5t64.5 -18.5l-35 -152q-17 6 -46.5 10.5t-45.5 4.5q-60 0 -94.5 -24t-54 -62.5t-29 -87t-23.5 -95.5q-19 8 -56.5 22.5t-87 28.5t-109 23.5 t-123.5 9.5q-114 0 -206.5 -41t-157 -118t-100 -188t-35.5 -248q0 -134 31 -243.5t95 -188.5t157 -122t220 -43q91 0 154.5 10t90.5 18v549h209v-690q-26 -9 -74.5 -20t-111.5 -21.5t-138.5 -18t-153.5 -7.5q-157 0 -285.5 52t-221 150.5t-143 242.5t-50.5 332z" />
<glyph unicode="&#x194;" horiz-adv-x="1397" d="M17 1490h217q115 -245 227.5 -482.5t239.5 -486.5q127 250 238.5 486t228.5 483h213q-80 -174 -152 -327.5t-140.5 -293.5t-136.5 -269t-139 -254l26 -45q35 -62 67 -115t54.5 -100t36.5 -92t14 -93q0 -47 -15 -100t-52 -96t-96.5 -72t-148.5 -29q-88 0 -148.5 29t-97 72 t-51.5 96t-15 100q0 48 15 93t38.5 92t56 99.5t67.5 115.5l21 39q-72 125 -140.5 256t-137.5 270.5t-139.5 294.5t-150.5 329zM572 -88q0 -58 32 -100t95 -42q62 0 94 42t32 100q0 69 -43 137l-83 138l-84 -138q-43 -69 -43 -137z" />
<glyph unicode="&#x195;" horiz-adv-x="1915" d="M172 0v1634l200 34v-572q55 21 113.5 33t121.5 12q135 0 222 -37t137.5 -105t69 -162.5t18.5 -208.5v-125q0 -189 61 -267t190 -78t190.5 78t61.5 267v615h200v-642q0 -95 -18.5 -185.5t-68 -160.5t-137.5 -112t-228 -42q-139 0 -227.5 42t-138 112t-67.5 160t-18 186 v109q0 103 -11.5 176.5t-42 118.5t-83 65.5t-132.5 20.5q-64 0 -126.5 -13t-86.5 -24v-929h-200z" />
<glyph unicode="&#x196;" horiz-adv-x="808" d="M185 406v1084h209v-1092q0 -133 50.5 -191.5t152.5 -58.5q56 0 94 10t62 18l39 -172q-29 -12 -90.5 -24.5t-133.5 -12.5q-207 0 -295 104.5t-88 334.5z" />
<glyph unicode="&#x197;" horiz-adv-x="698" d="M30 697v161h215v632h209v-632h215v-161h-215v-697h-209v697h-215z" />
<glyph unicode="&#x198;" horiz-adv-x="1426" d="M185 0v1490h209v-667q45 56 101.5 126.5t118 144.5t126 147t124.5 136q64 69 123.5 106t156.5 37q91 0 153 -33.5t94 -68.5l-94 -150q-37 35 -77 52.5t-69 17.5q-47 0 -81 -22.5t-77 -68.5q-123 -125 -213.5 -234.5t-172.5 -212.5q92 -66 198 -162t209.5 -203.5 t193 -220.5t146.5 -214h-244q-64 101 -150.5 203.5t-182.5 195.5t-194.5 173t-188.5 136v-708h-209z" />
<glyph unicode="&#x199;" horiz-adv-x="1122" d="M172 0v1266q0 99 14 174.5t49.5 126t98 76t158.5 25.5q31 0 70.5 -5t63.5 -11l-19 -158q-17 6 -46.5 9t-47.5 3q-79 0 -110 -53t-31 -150v-654l113.5 113.5t123 127t114 124t92.5 104.5h234q-49 -53 -107 -117.5t-120.5 -130.5t-126 -131.5t-119.5 -123.5 q64 -49 136.5 -122.5t142.5 -158t132 -171.5t105 -163h-234q-45 76 -104 154t-123.5 150t-131 132.5t-127.5 101.5v-538h-200z" />
<glyph unicode="&#x19a;" horiz-adv-x="616" d="M30 790v150h167v694l201 34v-728h197v-150h-197v-466q0 -49 8.5 -81t28 -51.5t52 -29.5t79.5 -16l-28 -167q-185 4 -263 79t-78 235v497h-167z" />
<glyph unicode="&#x19b;" horiz-adv-x="1096" d="M35 0q30 125 77.5 266.5t105 290.5t125.5 295t137 279l-50 114l-227 -77l-51 135l216 74q-37 61 -78.5 94t-104.5 33q-31 0 -53.5 -5t-32.5 -9l-28 162q11 4 51 10t91 6q129 0 207.5 -63.5t129.5 -166.5l267 93l49 -136l-255 -88q74 -176 139 -351.5t122 -343 t103.5 -322.5t82.5 -290h-209q-55 203 -125 441t-156 475q-58 -117 -109 -240.5t-93 -242.5t-74 -230t-54 -203h-203z" />
<glyph unicode="&#x19c;" horiz-adv-x="2095" d="M185 564v926h209v-873q0 -122 12.5 -210.5t45 -145t89 -84t147.5 -27.5q47 0 93 9t85 22.5t69.5 31t49.5 32.5q-21 69 -31 152t-10 167v926h209v-873q0 -122 12.5 -210.5t45 -145t89.5 -84t145 -27.5q34 0 73 2t75.5 7t65.5 9t44 8v1314h209v-1464q-80 -21 -211 -40 t-279 -19q-110 0 -196.5 30t-150.5 100q-24 -15 -63.5 -37.5t-92.5 -43t-117.5 -35t-136.5 -14.5q-148 0 -242 44.5t-146.5 124t-72 189.5t-19.5 239z" />
<glyph unicode="&#x19d;" horiz-adv-x="1564" d="M-60 -385l19 157q17 -6 46.5 -8t45.5 -2q80 0 107 52.5t27 148.5v1527h166q101 -107 215.5 -250.5t227.5 -294.5t213.5 -297.5t168.5 -260.5v1103h205v-1490h-175q-47 80 -108.5 178.5t-132 205t-147 216.5t-152 212t-146.5 192t-130 159v-1163q0 -99 -13.5 -174.5 t-47.5 -126t-96.5 -76t-158.5 -25.5q-31 0 -71 5t-63 12z" />
<glyph unicode="&#x19e;" d="M172 0v1086q70 16 183 35.5t262 19.5q134 0 222 -37t140.5 -105t74 -162.5t21.5 -208.5v-1026h-199v983q0 103 -14.5 176.5t-47 118.5t-86 65.5t-133.5 20.5q-32 0 -66 -2.5t-65 -6t-56 -7.5t-36 -6v-944h-200z" />
<glyph unicode="&#x19f;" horiz-adv-x="1672" d="M125 747q0 191 56.5 337t155 244t228.5 147.5t276 49.5q144 0 272 -49.5t224.5 -147.5t154 -244t57.5 -337q0 -192 -57.5 -338.5t-154 -244.5t-224.5 -147.5t-272 -49.5q-146 0 -276 49.5t-228.5 147.5t-155 244.5t-56.5 338.5zM346 671q19 -241 147.5 -381t343.5 -140 q105 0 191 37t148.5 104.5t100 163t46.5 216.5h-977zM346 833h977q-11 118 -48.5 211t-101 159.5t-148.5 102.5t-188 36q-215 0 -342 -135.5t-149 -373.5z" />
<glyph unicode="&#x1a0;" horiz-adv-x="1672" d="M125 747q0 191 56.5 337t155 244t228.5 147.5t276 49.5q119 0 226 -33.5t197 -102.5q56 62 71 119.5t15 132.5q0 21 -1 44.5t-3 36.5h203q2 -24 2 -44v-33q0 -103 -44 -195.5t-126 -169.5q77 -97 122.5 -230.5t45.5 -302.5q0 -192 -57.5 -338.5t-154 -244.5 t-224.5 -147.5t-272 -49.5q-146 0 -276 49.5t-228.5 147.5t-155 244t-56.5 339zM344 747q0 -136 34.5 -246.5t98 -188.5t154.5 -120t206 -42q111 0 202.5 42t155 120t98 188.5t34.5 246.5q0 135 -34.5 246t-98 188t-155 119t-202.5 42q-115 0 -206 -42t-154.5 -119t-98 -188 t-34.5 -246z" />
<glyph unicode="&#x1a1;" horiz-adv-x="1268" d="M109 559q0 131 39 239.5t109 186.5t167 120t210 42q99 0 185 -32.5t153 -92.5q52 62 67 117t15 129q0 21 -1.5 45.5t-3.5 36.5h198q3 -24 3 -44v-33q0 -218 -177 -374q41 -69 63.5 -155t22.5 -185q0 -134 -38.5 -241t-108.5 -184.5t-166.5 -119.5t-211.5 -42 q-114 0 -210.5 42t-166.5 119.5t-109 184.5t-39 241zM318 559q0 -189 84 -300t232 -111t232 111t84 300t-84 300t-232 111t-232 -111t-84 -300z" />
<glyph unicode="&#x1a2;" horiz-adv-x="2201" d="M123 747q0 191 54.5 335.5t148 243t218.5 147.5t262 49q110 0 212 -32t186 -95q50 41 141 84t216 43q148 0 237.5 -40.5t137.5 -114.5t64.5 -181t16.5 -236v-950h-209v897q0 123 -13.5 206t-44 136.5t-82 77t-124.5 23.5q-70 0 -122 -22.5t-88 -49.5q71 -96 112.5 -226.5 t41.5 -294.5q0 -192 -53.5 -337t-147 -243t-217.5 -147.5t-264 -49.5q-139 0 -263 49.5t-217.5 147.5t-148 242.5t-54.5 337.5zM342 747q0 -136 31 -245.5t91.5 -187.5t146.5 -120t195 -42q110 0 196 42t145 120t90 187.5t31 245.5q0 135 -31 244.5t-90 187t-145 119.5 t-196 42q-109 0 -195 -42t-146.5 -119.5t-91.5 -187t-31 -244.5z" />
<glyph unicode="&#x1a3;" horiz-adv-x="1765" d="M109 559q0 131 39 239.5t107.5 186.5t162 120t204.5 42q84 0 158 -26.5t136 -73.5q43 30 121.5 62t173.5 32q129 0 206 -37t119 -106t56 -163.5t14 -206.5v-1026h-200v983q0 99 -8.5 169.5t-32 118.5t-66.5 70.5t-109 22.5q-56 0 -93 -14t-63 -31q45 -74 71 -164.5 t26 -197.5q0 -134 -38.5 -241t-106.5 -184.5t-161.5 -119.5t-202.5 -42q-110 0 -204 42t-162.5 119.5t-107.5 185t-39 240.5zM318 559q0 -189 82 -300t222 -111q139 0 221 111t82 300t-82 300t-221 111q-140 0 -222 -110.5t-82 -300.5z" />
<glyph unicode="&#x1a4;" horiz-adv-x="1526" d="M33 1163q0 127 63.5 196t168.5 101t244 39t291 7q314 0 482.5 -120t168.5 -356q0 -129 -46 -218.5t-133.5 -146t-211.5 -83t-282 -26.5h-165v-556h-209v1309q-197 -10 -197 -165q0 -16 1 -35t3 -32l-166 -19q-4 15 -8 45t-4 60zM613 729h157q107 0 193 14t145.5 48 t92 92.5t32.5 148.5q0 86 -33.5 142t-91 89.5t-132.5 46.5t-159 13q-99 0 -148 -1.5t-56 -1.5v-591z" />
<glyph unicode="&#x1a5;" horiz-adv-x="1266" d="M172 -398v1664q0 99 14 174.5t49.5 126t98 76t158.5 25.5q31 0 70.5 -5t63.5 -11l-19 -158q-17 6 -46.5 9t-47.5 3q-79 0 -110 -53t-31 -150v-204q55 19 116.5 30.5t118.5 11.5q123 0 224.5 -40.5t173.5 -116t112 -184t40 -244.5q0 -127 -33.5 -234t-98 -184.5 t-158 -120.5t-213.5 -43q-96 0 -171 26t-111 49v-447h-200zM372 236q36 -30 105 -58t151 -28q86 0 147.5 31.5t100 86t55.5 128.5t17 160q0 196 -96.5 303t-258.5 107q-32 0 -66.5 -4.5t-65.5 -10t-54.5 -12t-34.5 -10.5v-693z" />
<glyph unicode="&#x1a6;" horiz-adv-x="1352" d="M185 0v1668h209v-176q80 6 187 6q314 0 478 -115t164 -349q0 -146 -83 -250.5t-233 -155.5q37 -45 97.5 -128t130 -195t144.5 -249.5t143 -289.5h-224q-154 314 -286 518t-215 303h-303v-587h-209zM394 757h148q107 0 193 9.5t145.5 40t91.5 85t32 144.5q0 84 -32 140.5 t-86.5 88.5t-129.5 45t-159 13h-115.5t-87.5 -5v-561z" />
<glyph unicode="&#x1a7;" horiz-adv-x="1143" d="M66 374q0 105 32.5 179.5t92 128t140 92.5t176.5 78q66 26 124.5 51.5t101.5 56.5t66.5 72t23.5 101q0 53 -22.5 93t-61 66t-90.5 39t-111 13q-119 0 -208.5 -27t-134.5 -55l-66 170q52 35 162.5 64t246.5 29q234 0 367 -110t133 -305q0 -95 -31 -161.5t-85 -115 t-127 -84t-155 -63.5q-71 -27 -134 -52t-112.5 -60.5t-78.5 -84t-29 -117.5q1 -224 327 -224q146 0 247 34.5t151 62.5l62 -171q-24 -13 -65.5 -31.5t-100 -34.5t-132.5 -28.5t-162 -12.5q-260 0 -403.5 105.5t-143.5 301.5z" />
<glyph unicode="&#x1a8;" horiz-adv-x="958" d="M84 288q0 80 23.5 135t69 93t107.5 67.5t139 59.5q119 45 176 83.5t57 114.5q0 71 -62.5 104.5t-146.5 33.5q-96 0 -165 -18.5t-101 -35.5l-37 171q17 6 48.5 15t72.5 16.5t87 13.5t95 6q189 0 299 -87.5t110 -236.5q0 -75 -26 -126.5t-69 -88t-102 -63t-123 -53.5 q-134 -53 -192 -96t-58 -117q0 -71 59 -103t182 -32q125 0 200 25.5t110 39.5l36 -172q-31 -13 -114.5 -38t-231.5 -25q-211 0 -327 79.5t-116 234.5z" />
<glyph unicode="&#x1a9;" horiz-adv-x="1210" d="M71 0v158q41 66 98 139t122.5 151.5t134.5 160t133 165.5q-62 82 -128 164t-127 158t-113.5 142.5t-89.5 120.5v131h1021v-179h-746q30 -45 78.5 -106t105.5 -131t119.5 -146t120.5 -152q-119 -154 -252 -304t-234 -294h811v-178h-1054z" />
<glyph unicode="&#x1aa;" horiz-adv-x="614" d="M-197 1379q0 39 13.5 89t49 95.5t94.5 75t149 29.5q183 0 258.5 -102.5t75.5 -285.5v-1336q0 -49 8.5 -81.5t28 -52t52 -29t79.5 -15.5l-28 -168q-185 4 -262.5 79t-77.5 235v1223q-72 -43 -163 -43q-74 0 -126.5 26t-86 65.5t-49 91.5t-15.5 104zM-43 1377 q0 -25 7.5 -49.5t23.5 -46t43 -34t66 -12.5q47 0 81.5 17.5t64.5 52.5v31q0 86 -36.5 132t-109.5 46q-70 0 -105 -44t-35 -93z" />
<glyph unicode="&#x1ab;" horiz-adv-x="864" d="M160 433v997l199 35v-347h423v-168h-423v-515q0 -84 13 -139.5t39 -86.5t64 -44t91 -13q92 0 154 11t84 15q2 -12 4.5 -35.5t4.5 -50t3 -51t1 -41.5q0 -92 -10.5 -166t-42 -127t-89.5 -81t-152 -28q-31 0 -69.5 5t-61.5 12l16 147q13 -5 43.5 -8.5t47.5 -3.5 q82 0 109.5 54t27.5 151q0 4 -1 11.5t-1 14.5v13q-26 -2 -62 -5.5t-73 -3.5q-183 0 -261 111t-78 337z" />
<glyph unicode="&#x1ac;" horiz-adv-x="1272" d="M33 1163q0 97 34 160.5t87 100.5t118.5 51.5t129.5 14.5h837v-174h-469v-1316h-208v1316h-151q-91 0 -144.5 -46.5t-53.5 -125.5q0 -16 1 -35t3 -32l-172 -19q-4 15 -8 45t-4 60z" />
<glyph unicode="&#x1ad;" horiz-adv-x="864" d="M160 433v786q0 215 104 332t331 117q91 0 153.5 -12.5t88.5 -23.5l-37 -171q-26 12 -73.5 23.5t-115.5 11.5q-140 0 -196 -76t-56 -205v-97h437v-168h-437v-515q0 -84 13 -139.5t39 -86.5t64 -44t91 -13q92 0 145.5 20.5t73.5 30.5l40 -164q-30 -15 -105 -39t-172 -24 q-114 0 -188 29.5t-119.5 87t-63 142.5t-17.5 198z" />
<glyph unicode="&#x1ae;" horiz-adv-x="1214" d="M35 1316v174h1145v-174h-468v-1353q0 -96 26.5 -148.5t106.5 -52.5q17 0 46.5 2t46.5 8l19 -157q-25 -7 -64 -12t-70 -5q-96 0 -158.5 25.5t-98 76t-49.5 126t-14 174.5v1316h-468z" />
<glyph unicode="&#x1af;" horiz-adv-x="1526" d="M174 554v936h209v-911q0 -112 26 -192.5t73 -132t112.5 -77t145.5 -25.5t145 25.5t112.5 77t73 131.5t25.5 193v911h158q49 0 87 36.5t38 114.5q0 21 -1 44.5t-4 36.5h202q2 -24 2 -44v-33q0 -49 -12.5 -99t-45 -91.5t-85 -71t-130.5 -37.5v-792q0 -125 -33 -232 t-103 -185.5t-176.5 -124t-252.5 -45.5t-254 45.5t-177 124t-102 186t-33 231.5z" />
<glyph unicode="&#x1b0;" horiz-adv-x="1283" d="M160 490v628h199v-585q0 -204 64.5 -292.5t216.5 -88.5q33 0 67.5 3t65.5 6t55 6t34 7v944h149q49 0 86.5 37t37.5 113q0 21 -1 45.5t-3 36.5h198q2 -24 2 -44.5v-32.5q0 -50 -13 -99t-43 -90t-83 -70t-129 -38v-943q-70 -17 -182.5 -37t-260.5 -20q-130 0 -218 37.5 t-141.5 106.5t-77 162.5t-23.5 207.5z" />
<glyph unicode="&#x1b1;" horiz-adv-x="1685" d="M111 1314v176h575v-146q-70 -56 -127.5 -121.5t-100.5 -145t-68 -175.5t-25 -212q0 -127 35 -228t97 -170.5t150 -106.5t196 -37q107 0 195.5 37t151 106.5t96.5 171t34 227.5q0 116 -25 212t-68 175.5t-101.5 145t-125.5 121.5v146h574v-176h-308q50 -48 99.5 -113.5 t88 -145t62 -171.5t23.5 -194q0 -179 -56.5 -314.5t-152 -226.5t-222.5 -137.5t-265 -46.5q-139 0 -265 46.5t-222 137.5t-153 226.5t-57 314.5q0 101 23.5 193.5t62.5 172t88.5 145t98.5 113.5h-308z" />
<glyph unicode="&#x1b2;" horiz-adv-x="1492" d="M174 554v936h209v-911q0 -112 26 -192.5t71 -132t106 -77t132 -25.5q209 0 313 145.5t104 453.5q0 285 -70 427t-234 142q-31 0 -49.5 -1t-30.5 -3l-7 174q27 4 60 5t62 1q138 0 231 -54.5t148.5 -152t80 -232t24.5 -292.5q0 -141 -28.5 -283t-100.5 -257.5t-193 -186.5 t-304 -71q-148 0 -252 45.5t-171 124t-97 186t-30 231.5z" />
<glyph unicode="&#x1b3;" horiz-adv-x="1444" d="M13 1490h245q84 -176 185 -358t206 -350q24 50 66 130.5t86 162.5t82 152t55 98q55 93 111.5 140t156.5 47q95 0 157.5 -35.5t107.5 -81.5l-103 -141q-39 39 -69.5 57t-73.5 18t-70.5 -20.5t-58.5 -71.5q-30 -47 -76 -129t-95 -174.5t-97 -181.5t-79 -150v-602h-209v600 q-148 227 -279.5 451t-247.5 439z" />
<glyph unicode="&#x1b4;" horiz-adv-x="1225" d="M6 -363l37 160q24 -10 61.5 -19.5t73.5 -9.5q58 0 103.5 11.5t81 37t64.5 67.5t55 101q-136 257 -253.5 547.5t-193.5 585.5h215q24 -96 57 -208t73.5 -230t88.5 -238t101 -229q28 84 52.5 165.5t47 164.5t44 170t45.5 182q29 118 90.5 185t195.5 67q43 0 87 -9t89 -24 l-35 -155q-37 20 -109 20q-62 0 -92.5 -34t-46.5 -98q-62 -254 -132.5 -471.5t-151.5 -410.5q-43 -96 -88 -165t-101.5 -113t-126 -64.5t-157.5 -20.5q-25 0 -50.5 3t-50 9t-45 12t-29.5 11z" />
<glyph unicode="&#x1b5;" horiz-adv-x="1231" d="M71 0v140q62 118 151.5 263t190.5 294h-255v161h369q97 135 187 253.5t166 204.5h-771v174h1022v-165q-69 -78 -168 -199.5t-204 -267.5h329v-161h-443q-95 -135 -180 -268.5t-147 -254.5h835v-174h-1082z" />
<glyph unicode="&#x1b6;" horiz-adv-x="1012" d="M78 0v125q45 88 110.5 189t140.5 205h-189v141h295q66 89 126.5 164t107.5 130h-562v164h807v-148q-44 -45 -113.5 -126t-148.5 -184h240v-141h-348q-64 -91 -125.5 -181t-110.5 -174h623v-164h-853z" />
<glyph unicode="&#x1b7;" horiz-adv-x="1219" d="M54 76l63 172q24 -13 63 -30.5t88.5 -32.5t110 -26t126.5 -11q183 0 285 62.5t102 208.5q0 86 -35.5 143.5t-96.5 91.5t-144 48t-179 14h-41v125q53 54 112.5 118.5t115 129t105 124.5t84.5 103h-690v174h954v-125q-32 -47 -81.5 -109t-110 -130t-124.5 -136.5 t-125 -133.5q97 -11 184 -41t151.5 -83t102.5 -132t38 -185q0 -117 -44 -201.5t-123 -139.5t-190.5 -81t-247.5 -26q-82 0 -155 12.5t-130.5 28.5t-100.5 35t-67 33z" />
<glyph unicode="&#x1b8;" horiz-adv-x="1219" d="M107 415q0 105 38 184.5t102.5 132.5t151.5 83t184 41q-62 64 -125.5 133t-124 137t-110 130t-81.5 109v125h954v-174h-690q35 -43 84.5 -103t105.5 -124.5t115 -129t112 -118.5v-125h-41q-96 0 -178.5 -14t-144 -48t-97 -91.5t-35.5 -143.5q0 -146 102 -208.5t285 -62.5 q66 0 126.5 11t110 26t89 32t64.5 31l62 -172q-25 -13 -67.5 -32.5t-100.5 -35.5t-131 -28.5t-155 -12.5q-136 0 -247.5 26t-190.5 81t-123 140t-44 201z" />
<glyph unicode="&#x1b9;" horiz-adv-x="1012" d="M86 66q0 105 34 179.5t93.5 123t140.5 77t171 40.5q-54 60 -111 130t-108.5 139.5t-95.5 133t-75 113.5v116h835v-168h-587q29 -45 72.5 -103.5t94 -124.5t104.5 -130.5t101 -117.5v-132h-37q-82 0 -159 -11t-137.5 -41t-96 -83t-35.5 -136q0 -139 93 -216t266 -77 q101 0 189.5 19.5t137.5 42.5l44 -171q-54 -28 -154.5 -47.5t-218.5 -19.5q-127 0 -230 29t-177 87t-114 145.5t-40 202.5z" />
<glyph unicode="&#x1ba;" horiz-adv-x="1018" d="M17 -245q0 72 24.5 115.5t66.5 72.5t96 46t114 32q78 19 149 34.5t125.5 41.5t88 68t33.5 110q0 97 -94.5 148t-324.5 57v133q109 97 198.5 186t142.5 151h-589v168h833v-123q-69 -88 -162.5 -185.5t-210.5 -200.5q103 -15 180.5 -40t128 -66t76.5 -101t26 -144 q0 -103 -39.5 -166.5t-109.5 -105.5t-164 -66.5t-201 -50.5q-30 -7 -66.5 -15t-69 -24.5t-54 -42t-21.5 -66.5q0 -33 8 -58.5t12 -36.5l-157 -32q-13 24 -26 63t-13 98z" />
<glyph unicode="&#x1bb;" horiz-adv-x="1171" d="M86 1350q31 31 72.5 62t95.5 55.5t121.5 41t149.5 16.5q222 0 343 -104.5t121 -302.5q0 -90 -44 -175t-112 -167h187v-156h-332l-120 -123q-90 -93 -154.5 -173.5t-69.5 -149.5h686v-174h-913q-9 99 14 184t68.5 160t107 142.5t126.5 133.5h-250v156h406 q76 76 128.5 154.5t52.5 173.5q0 64 -19.5 109t-52.5 75t-77.5 44t-95.5 14q-71 0 -127 -17.5t-99 -40t-71 -47t-43 -37.5z" />
<glyph unicode="&#x1bc;" horiz-adv-x="1156" d="M56 1316v174h972v-174h-572q-2 -31 -6.5 -84.5t-8.5 -112.5t-9 -115t-9 -88q327 -15 496 -143t169 -350q0 -99 -34 -182t-106 -143.5t-182 -95.5t-259 -35q-62 0 -125.5 9t-118 21.5t-95.5 26t-59 21.5l37 177q17 -9 52.5 -22t82 -24.5t103.5 -20.5t117 -9 q101 0 171 21.5t114.5 58t63 85t18.5 102.5q0 82 -33 144.5t-109.5 105.5t-201 64.5t-307.5 21.5q9 82 16 154.5t13 141.5t10 135.5t9 135.5h-209z" />
<glyph unicode="&#x1bd;" horiz-adv-x="1065" d="M60 959v159h865v-159h-517q-2 -27 -4 -62t-5 -72t-7.5 -71t-6.5 -57h45q123 0 223 -21.5t171 -67.5t109.5 -117.5t38.5 -168.5q0 -161 -126 -254.5t-366 -93.5q-60 0 -121.5 8t-114.5 17t-91.5 20t-53.5 18l36 168q13 -7 46.5 -17t80 -20t101 -18t113.5 -8q152 0 224 46 t72 134q0 60 -21.5 102t-75 68.5t-144 38t-228.5 11.5h-108q15 121 24 217.5t15 199.5h-174z" />
<glyph unicode="&#x1be;" horiz-adv-x="995" d="M101 37l37 172q32 -15 113.5 -40t206.5 -25q123 0 187.5 32.5t64.5 102.5q0 74 -58.5 118t-191.5 98q-64 26 -120 52.5t-95.5 67.5t-62 102t-22.5 156v557l201 35v-347h424v-166h-424v-82q0 -43 11 -76t36 -59.5t64 -49t100 -45.5q78 -30 140 -59t107 -67t68.5 -92 t23.5 -134q0 -155 -121 -234.5t-332 -79.5q-148 0 -237.5 25t-119.5 38z" />
<glyph unicode="&#x1bf;" horiz-adv-x="1227" d="M172 -398v1452q70 26 177 56.5t246 30.5q123 0 219.5 -34t164.5 -99.5t104.5 -158t36.5 -209.5q0 -172 -60 -293t-163 -208.5t-238.5 -148.5t-286.5 -111v-277h-200zM372 71q94 35 191 77.5t174.5 109t125.5 160t48 227.5q0 148 -83.5 233.5t-234.5 85.5 q-90 0 -140.5 -13t-80.5 -24v-856z" />
<glyph unicode="&#x1c0;" horiz-adv-x="599" d="M207 -398v2082h187v-2082h-187z" />
<glyph unicode="&#x1c1;" horiz-adv-x="1038" d="M207 -398v2082h187v-2082h-187zM646 -398v2082h187v-2082h-187z" />
<glyph unicode="&#x1c2;" horiz-adv-x="1223" d="M94 365v160h425v253h-425v160h425v746h187v-746h423v-160h-423v-253h423v-160h-423v-763h-187v763h-425z" />
<glyph unicode="&#x1c3;" horiz-adv-x="593" d="M152 117q0 57 39 100t106 43q66 0 105 -43t39 -100q0 -58 -39 -101.5t-105 -43.5t-105.5 43t-39.5 102zM189 1086v404h215v-404q0 -181 -13 -328t-32 -294h-125q-19 146 -32 293.5t-13 328.5z" />
<glyph unicode="&#x1c4;" horiz-adv-x="2773" d="M185 24v1445q88 21 196.5 29t199.5 8q182 0 335 -46.5t262.5 -140.5t169.5 -236.5t60 -335.5q0 -194 -60 -337t-169.5 -236.5t-262.5 -140t-335 -46.5q-91 0 -199.5 7.5t-196.5 29.5zM394 176q19 -2 67 -4t136 -2q298 0 443.5 152t145.5 425t-145.5 424.5t-443.5 151.5 q-88 0 -136 -2.5t-67 -4.5v-1140zM1612 0v140q46 86 106.5 189.5t130.5 210.5t145.5 216.5t149.5 211t144 189.5t129 154h-767v179h1022v-165q-49 -56 -115 -134.5t-139 -174t-150.5 -202t-151.5 -215.5t-140.5 -216.5t-120.5 -204.5h839v-178h-1082zM1876 1903l84 94 l209 -189l209 189l84 -94l-293 -308z" />
<glyph unicode="&#x1c5;" horiz-adv-x="2554" d="M185 24v1445q88 21 196.5 29t199.5 8q182 0 335 -46.5t262.5 -140.5t169.5 -236.5t60 -335.5q0 -194 -60 -337t-169.5 -236.5t-262.5 -140t-335 -46.5q-91 0 -199.5 7.5t-196.5 29.5zM394 176q19 -2 67 -4t136 -2q298 0 443.5 152t145.5 425t-145.5 424.5t-443.5 151.5 q-88 0 -136 -2.5t-67 -4.5v-1140zM1619 0v133q51 95 126 209t158 226.5t161.5 213t136.5 168.5h-553v168h807v-150q-46 -49 -120 -140t-159 -200t-170 -230t-149 -230h615v-168h-853zM1745 1568l84 94l209 -189l209 189l84 -94l-293 -308z" />
<glyph unicode="&#x1c6;" horiz-adv-x="2287" d="M109 559q0 129 33.5 236.5t98.5 185t158 120.5t214 43q97 0 171 -26t111 -49v565l199 34v-1635q-69 -19 -176 -39t-247 -20q-129 0 -232.5 41t-176.5 116.5t-113 183.5t-40 244zM318 559q0 -196 96.5 -302.5t258.5 -106.5q82 0 136.5 8t85.5 16v708q-37 30 -106 58 t-151 28q-86 0 -147 -31.5t-99.5 -86t-56 -130t-17.5 -161.5zM1353 0v133q51 95 126 209t158 226.5t161.5 213t136.5 168.5h-553v168h807v-150q-46 -49 -120 -140t-159 -200t-170 -230t-149 -230h615v-168h-853zM1479 1568l84 94l209 -189l209 189l84 -94l-293 -308z" />
<glyph unicode="&#x1c7;" horiz-adv-x="2188" d="M185 0v1490h209v-1309h688v-181h-897zM1142 88l82 166q45 -32 117 -68t180 -36q154 0 225 79t71 270v991h209v-1010q0 -107 -22.5 -200t-79.5 -163t-153 -110t-240 -40q-73 0 -134 12.5t-111 30.5t-86 38.5t-58 39.5z" />
<glyph unicode="&#x1c8;" horiz-adv-x="1668" d="M185 0v1490h209v-1309h688v-181h-897zM979 -378l25 163q21 -7 49.5 -11t52.5 -4q103 0 147 63.5t44 185.5v1099h200v-1097q0 -215 -98 -319t-284 -104q-27 0 -68 6t-68 18zM1267 1451q0 60 37.5 95.5t91.5 35.5q53 0 91 -35t38 -96q0 -60 -38 -95.5t-91 -35.5 q-54 0 -91.5 35.5t-37.5 95.5z" />
<glyph unicode="&#x1c9;" horiz-adv-x="1139" d="M168 293v1341l200 34v-1344q0 -49 8.5 -81t27.5 -51.5t51.5 -29.5t80.5 -16l-29 -167q-185 4 -262 79t-77 235zM449 -378l25 163q21 -7 49.5 -11t52.5 -4q103 0 147 63.5t44 185.5v1099h200v-1097q0 -215 -98 -319t-284 -104q-27 0 -68 6t-68 18zM737 1451 q0 60 37.5 95.5t91.5 35.5q53 0 91 -35t38 -96q0 -60 -38 -95.5t-91 -35.5q-54 0 -91.5 35.5t-37.5 95.5z" />
<glyph unicode="&#x1ca;" horiz-adv-x="2637" d="M185 0v1490h166q101 -107 215.5 -250.5t227.5 -294.5t213.5 -297.5t168.5 -260.5v1103h205v-1490h-175q-47 80 -108.5 178.5t-132 205t-147 216.5t-152 212t-146.5 192t-130 159v-1163h-205zM1591 88l82 166q45 -32 117 -68t180 -36q154 0 225 79t71 270v991h209v-1010 q0 -107 -22.5 -200t-79.5 -163t-153 -110t-240 -40q-73 0 -134 12.5t-111 30.5t-86 38.5t-58 39.5z" />
<glyph unicode="&#x1cb;" horiz-adv-x="2117" d="M185 0v1490h166q101 -107 215.5 -250.5t227.5 -294.5t213.5 -297.5t168.5 -260.5v1103h205v-1490h-175q-47 80 -108.5 178.5t-132 205t-147 216.5t-152 212t-146.5 192t-130 159v-1163h-205zM1428 -378l25 163q21 -7 49.5 -11t52.5 -4q103 0 147 63.5t44 185.5v1099h200 v-1097q0 -215 -98 -319t-284 -104q-27 0 -68 6t-68 18zM1716 1451q0 60 37.5 95.5t91.5 35.5q53 0 91 -35t38 -96q0 -60 -38 -95.5t-91 -35.5q-54 0 -91.5 35.5t-37.5 95.5z" />
<glyph unicode="&#x1cc;" horiz-adv-x="1786" d="M172 0v1086q70 16 183 35.5t262 19.5q134 0 222 -37t140.5 -105t74 -162.5t21.5 -208.5v-628h-199v585q0 103 -14.5 176.5t-47 118.5t-86 65.5t-133.5 20.5q-32 0 -66 -2.5t-65 -6t-56 -7.5t-36 -6v-944h-200zM1097 -378l25 163q21 -7 49.5 -11t52.5 -4q103 0 147 63.5 t44 185.5v1099h200v-1097q0 -215 -98 -319t-284 -104q-27 0 -68 6t-68 18zM1385 1451q0 60 37.5 95.5t91.5 35.5q53 0 91 -35t38 -96q0 -60 -38 -95.5t-91 -35.5q-54 0 -91.5 35.5t-37.5 95.5z" />
<glyph unicode="&#x1cd;" horiz-adv-x="1424" d="M17 0q86 236 161.5 437t147.5 382t143 345.5t148 325.5h191q78 -162 149 -326t143 -345t147.5 -382t160.5 -437h-228q-37 97 -69 190.5t-66 189.5h-675l-136 -380h-217zM419 1903l84 94l209 -189l209 189l84 -94l-293 -308zM430 552h555q-69 187 -137 362.5t-140 337.5 q-76 -162 -143.5 -337t-134.5 -363z" />
<glyph unicode="&#x1ce;" horiz-adv-x="1122" d="M92 333q0 92 38 159t102.5 107.5t150 60t181.5 19.5q30 0 62 -3t61 -8t50.5 -9.5t30.5 -6.5v56q0 49 -10.5 97.5t-39 86t-77 60t-124.5 22.5q-99 0 -173.5 -14t-111.5 -29l-23 165q39 17 129 34t195 17q121 0 203.5 -31.5t133.5 -88.5t72.5 -135.5t21.5 -173.5v-699 q-26 -4 -72.5 -11.5t-104.5 -14t-126 -12t-134 -5.5q-94 0 -174 19.5t-137.5 61.5t-90.5 110.5t-33 165.5zM269 1568l84 94l209 -189l209 189l84 -94l-293 -308zM295 335q0 -107 68.5 -149t186.5 -42q72 0 126.5 3t91.5 13v332q-21 11 -70 19t-117 8q-45 0 -95.5 -7 t-92.5 -27.5t-70 -55.5t-28 -94z" />
<glyph unicode="&#x1cf;" horiz-adv-x="577" d="M0 1903l84 94l209 -189l209 189l84 -94l-293 -308zM185 0v1490h209v-1490h-209z" />
<glyph unicode="&#x1d0;" horiz-adv-x="543" d="M-16 1568l84 94l209 -189l209 189l84 -94l-293 -308zM172 0v1118h200v-1118h-200z" />
<glyph unicode="&#x1d1;" horiz-adv-x="1672" d="M125 747q0 191 56.5 337t155 244t228.5 147.5t276 49.5q144 0 272 -49.5t224.5 -147.5t154 -244t57.5 -337q0 -192 -57.5 -338.5t-154 -244.5t-224.5 -147.5t-272 -49.5q-146 0 -276 49.5t-228.5 147.5t-155 244.5t-56.5 338.5zM344 747q0 -136 34.5 -246.5t98 -188.5 t154.5 -120t206 -42q114 0 204 42t153.5 120t98 188.5t34.5 246.5q0 135 -34.5 246t-98 188t-154 119t-203.5 42q-115 0 -206 -42t-154.5 -119t-98 -188t-34.5 -246zM544 1903l84 94l209 -189l209 189l84 -94l-293 -308z" />
<glyph unicode="&#x1d2;" horiz-adv-x="1268" d="M109 559q0 131 39 239.5t109 186.5t167 120t210 42q115 0 211.5 -42t166.5 -120t108.5 -186.5t38.5 -239.5q0 -134 -38.5 -241t-108.5 -184.5t-166.5 -119.5t-211.5 -42q-114 0 -210.5 42t-166.5 119.5t-109 185t-39 240.5zM318 559q0 -189 85 -300t231 -111t231 111 t85 300t-85 300t-231 111t-231 -110.5t-85 -300.5zM341 1568l84 94l209 -189l209 189l84 -94l-293 -308z" />
<glyph unicode="&#x1d3;" horiz-adv-x="1479" d="M174 554v936h209v-911q0 -224 99 -325.5t258 -101.5q80 0 145 25.5t112.5 77t73 131.5t25.5 193v911h209v-936q0 -125 -33 -232t-103 -185.5t-176.5 -124t-252.5 -45.5t-254 45.5t-177 124t-102 186t-33 231.5zM446 1903l84 94l209 -189l209 189l84 -94l-293 -308z" />
<glyph unicode="&#x1d4;" d="M160 490v628h199v-585q0 -204 64.5 -292.5t216.5 -88.5q33 0 67.5 3t64.5 6t55 6t35 7v944h201v-1085q-70 -17 -182.5 -37t-260.5 -20q-130 0 -218 37.5t-141.5 106.5t-77 162.5t-23.5 207.5zM318 1568l84 94l209 -189l209 189l84 -94l-293 -308z" />
<glyph unicode="&#x1d5;" horiz-adv-x="1479" d="M174 554v936h209v-911q0 -224 99 -325.5t258 -101.5q80 0 145 25.5t112.5 77t73 131.5t25.5 193v911h209v-936q0 -125 -33 -232t-103 -185.5t-176.5 -124t-252.5 -45.5t-254 45.5t-177 124t-102 186t-33 231.5zM406 1725q0 53 33.5 85t82.5 32t82.5 -32t33.5 -85 q0 -54 -33.5 -86.5t-82.5 -32.5t-82.5 32.5t-33.5 86.5zM466 1931v137h546v-137h-546zM840 1725q0 53 33.5 85t83.5 32q47 0 81 -32t34 -85q0 -54 -34 -86.5t-81 -32.5q-50 0 -83.5 32.5t-33.5 86.5z" />
<glyph unicode="&#x1d6;" d="M160 490v628h199v-585q0 -204 64.5 -292.5t216.5 -88.5q33 0 67.5 3t64.5 6t55 6t35 7v944h201v-1085q-70 -17 -182.5 -37t-260.5 -20q-130 0 -218 37.5t-141.5 106.5t-77 162.5t-23.5 207.5zM278 1381q0 53 33.5 85t82.5 32t82.5 -32t33.5 -85q0 -54 -33.5 -86.5 t-82.5 -32.5t-82.5 32.5t-33.5 86.5zM338 1587v137h546v-137h-546zM712 1381q0 53 33.5 85t83.5 32q47 0 81 -32t34 -85q0 -54 -34 -86.5t-81 -32.5q-50 0 -83.5 32.5t-33.5 86.5z" />
<glyph unicode="&#x1d7;" horiz-adv-x="1479" d="M174 554v936h209v-911q0 -224 99 -325.5t258 -101.5q80 0 145 25.5t112.5 77t73 131.5t25.5 193v911h209v-936q0 -125 -33 -232t-103 -185.5t-176.5 -124t-252.5 -45.5t-254 45.5t-177 124t-102 186t-33 231.5zM331 1724q0 54 34 86.5t81 32.5q50 0 83.5 -32t33.5 -87 q0 -53 -33.5 -85.5t-83.5 -32.5q-47 0 -81 32.5t-34 85.5zM628 1765l206 303l129 -111l-238 -273zM916 1724q0 54 33 86.5t83 32.5t83 -32t33 -87q0 -53 -33 -85.5t-83 -32.5q-49 0 -82.5 32.5t-33.5 85.5z" />
<glyph unicode="&#x1d8;" d="M160 490v628h199v-585q0 -204 64.5 -292.5t216.5 -88.5q33 0 67.5 3t64.5 6t55 6t35 7v944h201v-1085q-70 -17 -182.5 -37t-260.5 -20q-130 0 -218 37.5t-141.5 106.5t-77 162.5t-23.5 207.5zM267 1381q0 53 34.5 85t81.5 32q50 0 83.5 -32t33.5 -85q0 -54 -33.5 -86.5 t-83.5 -32.5q-47 0 -81.5 32.5t-34.5 86.5zM519 1533l207 303l128 -112l-239 -273zM724 1381q0 53 33 85t82 32t83 -32t34 -85q0 -54 -34 -86.5t-83 -32.5t-82 32.5t-33 86.5z" />
<glyph unicode="&#x1d9;" horiz-adv-x="1479" d="M174 554v936h209v-911q0 -224 99 -325.5t258 -101.5q80 0 145 25.5t112.5 77t73 131.5t25.5 193v911h209v-936q0 -125 -33 -232t-103 -185.5t-176.5 -124t-252.5 -45.5t-254 45.5t-177 124t-102 186t-33 231.5zM334 1724q0 54 34 86.5t81 32.5q50 0 83.5 -32t33.5 -87 q0 -53 -33.5 -85.5t-83.5 -32.5q-47 0 -81 32.5t-34 85.5zM476 1972l62 96l202 -131l202 131l63 -96l-265 -205zM919 1724q0 54 33 86.5t83 32.5t83 -32t33 -87q0 -53 -33 -85.5t-83 -32.5q-49 0 -82.5 32.5t-33.5 85.5z" />
<glyph unicode="&#x1da;" d="M160 490v628h199v-585q0 -204 64.5 -292.5t216.5 -88.5q33 0 67.5 3t64.5 6t55 6t35 7v944h201v-1085q-70 -17 -182.5 -37t-260.5 -20q-130 0 -218 37.5t-141.5 106.5t-77 162.5t-23.5 207.5zM269 1381q0 53 34.5 85t81.5 32q50 0 83.5 -32t33.5 -85q0 -54 -33.5 -86.5 t-83.5 -32.5q-47 0 -81.5 32.5t-34.5 86.5zM347 1690l62 97l202 -131l202 131l63 -97l-265 -204zM726 1381q0 53 33 85t82 32t83 -32t34 -85q0 -54 -34 -86.5t-83 -32.5t-82 32.5t-33 86.5z" />
<glyph unicode="&#x1db;" horiz-adv-x="1479" d="M174 554v936h209v-911q0 -224 99 -325.5t258 -101.5q80 0 145 25.5t112.5 77t73 131.5t25.5 193v911h209v-936q0 -125 -33 -232t-103 -185.5t-176.5 -124t-252.5 -45.5t-254 45.5t-177 124t-102 186t-33 231.5zM331 1724q0 54 33 86.5t82 32.5q50 0 83.5 -32t33.5 -87 q0 -53 -33.5 -85.5t-83.5 -32.5q-49 0 -82 32.5t-33 85.5zM516 1957l129 111l207 -303l-98 -81zM916 1724q0 54 33 86.5t83 32.5q47 0 81.5 -32t34.5 -87q0 -53 -34.5 -85.5t-81.5 -32.5q-49 0 -82.5 32.5t-33.5 85.5z" />
<glyph unicode="&#x1dc;" d="M160 490v628h199v-585q0 -204 64.5 -292.5t216.5 -88.5q33 0 67.5 3t64.5 6t55 6t35 7v944h201v-1085q-70 -17 -182.5 -37t-260.5 -20q-130 0 -218 37.5t-141.5 106.5t-77 162.5t-23.5 207.5zM267 1381q0 53 33.5 85t82.5 32q50 0 83.5 -32t33.5 -85q0 -54 -33.5 -86.5 t-83.5 -32.5q-49 0 -82.5 32.5t-33.5 86.5zM369 1724l128 112l207 -303l-97 -82zM724 1381q0 53 33 85t82 32q47 0 82 -32t35 -85q0 -54 -35 -86.5t-82 -32.5q-49 0 -82 32.5t-33 86.5z" />
<glyph unicode="&#x1dd;" horiz-adv-x="1201" d="M109 544v51q0 11 2 20h767q-13 173 -102.5 264t-274.5 91q-105 0 -177 -18.5t-109 -35.5l-28 168q37 18 128 40.5t208 22.5q146 0 252.5 -44.5t175.5 -122t102 -184.5t33 -232q0 -148 -43 -259.5t-114 -184.5t-163.5 -109.5t-189.5 -36.5q-223 0 -345 142t-122 428z M318 454q-2 -136 68 -223t193 -87q69 0 121.5 26.5t87.5 70t56.5 99.5t28.5 114h-555z" />
<glyph unicode="&#x1de;" horiz-adv-x="1424" d="M17 0q86 236 161.5 437t147.5 382t143 345.5t148 325.5h191q78 -162 149 -326t143 -345t147.5 -382t160.5 -437h-228q-37 97 -69 190.5t-66 189.5h-675l-136 -380h-217zM379 1725q0 53 33.5 85t82.5 32t82.5 -32t33.5 -85q0 -54 -33.5 -86.5t-82.5 -32.5t-82.5 32.5 t-33.5 86.5zM430 552h555q-69 187 -137 362.5t-140 337.5q-76 -162 -143.5 -337t-134.5 -363zM439 1931v137h546v-137h-546zM813 1725q0 53 33.5 85t83.5 32q47 0 81 -32t34 -85q0 -54 -34 -86.5t-81 -32.5q-50 0 -83.5 32.5t-33.5 86.5z" />
<glyph unicode="&#x1df;" horiz-adv-x="1122" d="M92 333q0 92 38 159t102.5 107.5t150 60t181.5 19.5q30 0 62 -3t61 -8t50.5 -9.5t30.5 -6.5v56q0 49 -10.5 97.5t-39 86t-77 60t-124.5 22.5q-99 0 -173.5 -14t-111.5 -29l-23 165q39 17 129 34t195 17q121 0 203.5 -31.5t133.5 -88.5t72.5 -135.5t21.5 -173.5v-699 q-26 -4 -72.5 -11.5t-104.5 -14t-126 -12t-134 -5.5q-94 0 -174 19.5t-137.5 61.5t-90.5 110.5t-33 165.5zM233 1381q0 53 33.5 85t82.5 32t82.5 -32t33.5 -85q0 -54 -33.5 -86.5t-82.5 -32.5t-82.5 32.5t-33.5 86.5zM293 1587v137h546v-137h-546zM295 335q0 -107 68.5 -149 t186.5 -42q72 0 126.5 3t91.5 13v332q-21 11 -70 19t-117 8q-45 0 -95.5 -7t-92.5 -27.5t-70 -55.5t-28 -94zM667 1381q0 53 33.5 85t83.5 32q47 0 81 -32t34 -85q0 -54 -34 -86.5t-81 -32.5q-50 0 -83.5 32.5t-33.5 86.5z" />
<glyph unicode="&#x1e0;" horiz-adv-x="1424" d="M17 0q86 236 161.5 437t147.5 382t143 345.5t148 325.5h191q78 -162 149 -326t143 -345t147.5 -382t160.5 -437h-228q-37 97 -69 190.5t-66 189.5h-675l-136 -380h-217zM430 552h555q-69 187 -137 362.5t-140 337.5q-76 -162 -143.5 -337t-134.5 -363zM439 1931v137h546 v-137h-546zM594 1727q0 55 34.5 88t83.5 33q50 0 84.5 -33t34.5 -88q0 -56 -34.5 -88.5t-84.5 -32.5q-49 0 -83.5 32.5t-34.5 88.5z" />
<glyph unicode="&#x1e1;" horiz-adv-x="1122" d="M92 333q0 92 38 159t102.5 107.5t150 60t181.5 19.5q30 0 62 -3t61 -8t50.5 -9.5t30.5 -6.5v56q0 49 -10.5 97.5t-39 86t-77 60t-124.5 22.5q-99 0 -173.5 -14t-111.5 -29l-23 165q39 17 129 34t195 17q121 0 203.5 -31.5t133.5 -88.5t72.5 -135.5t21.5 -173.5v-699 q-26 -4 -72.5 -11.5t-104.5 -14t-126 -12t-134 -5.5q-94 0 -174 19.5t-137.5 61.5t-90.5 110.5t-33 165.5zM293 1587v137h546v-137h-546zM295 335q0 -107 68.5 -149t186.5 -42q72 0 126.5 3t91.5 13v332q-21 11 -70 19t-117 8q-45 0 -95.5 -7t-92.5 -27.5t-70 -55.5t-28 -94 zM448 1383q0 55 34.5 88t83.5 33q50 0 84.5 -33t34.5 -88q0 -56 -34.5 -88.5t-84.5 -32.5q-49 0 -83.5 32.5t-34.5 88.5z" />
<glyph unicode="&#x1e2;" horiz-adv-x="2009" d="M13 0q122 232 239.5 437.5t229 388.5t220.5 347.5t216 316.5h959v-174h-647v-450h570v-169h-570v-523h701v-174h-907v383h-587q-52 -94 -102.5 -190t-98.5 -193h-223zM533 552h491v775q-115 -154 -237 -350.5t-254 -424.5zM940 1709v155h611v-155h-611z" />
<glyph unicode="&#x1e3;" horiz-adv-x="1846" d="M94 333q0 92 38 159t102.5 107.5t150.5 60t181 19.5q30 0 62 -3t60 -8t49.5 -9.5t30.5 -6.5v56q0 49 -10.5 97.5t-39 86t-77 60t-124.5 22.5q-99 0 -173.5 -14t-111.5 -29l-23 165q39 17 128 34t192 17q148 0 235.5 -51t130.5 -142q71 97 167.5 145t201.5 48 q224 0 345.5 -142.5t121.5 -428.5q0 -16 -1 -28t-1 -23v-20h-765q12 -172 101.5 -263.5t274.5 -91.5q105 0 177 18.5t108 36.5l29 -168q-37 -19 -128.5 -41t-207.5 -22q-123 0 -214 29.5t-160 84.5q-21 -14 -56.5 -33.5t-85 -38t-111 -30.5t-135.5 -12q-107 0 -192 19.5 t-144.5 62.5t-92.5 111.5t-33 165.5zM297 335q0 -109 70 -150t195 -41q111 0 175.5 24.5t99.5 48.5q-33 60 -51 129t-21 146q-24 11 -68.5 19t-113.5 8q-45 0 -95.5 -7t-92.5 -27.5t-70 -55.5t-28 -94zM604 1374v155h611v-155h-611zM968 667h554q3 135 -67 222t-193 87 q-69 0 -121.5 -26.5t-88 -69.5t-57 -99.5t-27.5 -113.5z" />
<glyph unicode="&#x1e4;" horiz-adv-x="1508" d="M125 747q0 186 55.5 331t151.5 244.5t225 151t278 51.5q101 0 180 -13.5t136.5 -30t94 -34t49.5 -25.5l-68 -175q-59 43 -164.5 69t-217.5 26q-114 0 -206.5 -41t-157 -118t-100 -188t-35.5 -248q0 -134 31 -243.5t95 -188.5t157 -122t220 -43q91 0 154.5 10t90.5 18v241 h-236v157h236v206h209v-206h172v-157h-172v-382q-26 -9 -74.5 -20t-111.5 -21.5t-138.5 -18t-153.5 -7.5q-157 0 -285.5 52t-221 150.5t-143 242.5t-50.5 332z" />
<glyph unicode="&#x1e5;" horiz-adv-x="1268" d="M109 583q0 123 37 224.5t106.5 176t171 116t228.5 41.5q140 0 244 -20t175 -37v-421h168v-146h-168v-425q0 -258 -133.5 -374t-404.5 -116q-105 0 -199 17.5t-162 40.5l37 174q60 -24 147 -42t182 -18q178 0 256.5 71t78.5 226v40q-27 -17 -100.5 -43.5t-172.5 -26.5 q-101 0 -190.5 32t-156 99.5t-105.5 169t-39 241.5zM318 581q0 -97 25 -166t67 -114t97 -66.5t113 -21.5q79 0 146 22.5t104 52.5v229h-240v146h240v279q-30 8 -80 16t-136 8q-162 0 -249 -105.5t-87 -279.5z" />
<glyph unicode="&#x1e6;" horiz-adv-x="1444" d="M125 747q0 186 56.5 331t154 244.5t227 151t278.5 51.5q101 0 179.5 -13.5t134.5 -30t91.5 -34t48.5 -25.5l-68 -175q-61 41 -164.5 68t-210.5 27q-115 0 -208.5 -41t-159 -118t-102 -188t-36.5 -248q0 -134 31 -243.5t95 -188.5t157 -122t220 -43q91 0 154.5 10t90.5 18 v555h209v-696q-26 -9 -74.5 -20t-111.5 -21.5t-138.5 -18t-153.5 -7.5q-157 0 -285.5 52t-221 150.5t-143 242.5t-50.5 332zM515 1903l84 94l209 -189l209 189l84 -94l-293 -308z" />
<glyph unicode="&#x1e7;" horiz-adv-x="1242" d="M109 583q0 123 37 224.5t106.5 176t171 116t228.5 41.5q140 0 244 -20t175 -37v-998q0 -258 -133.5 -374t-404.5 -116q-105 0 -199 17t-162 41l37 174q60 -24 147 -42t182 -18q178 0 256.5 71t78.5 225v47q-27 -17 -100.5 -43.5t-172.5 -26.5q-101 0 -190.5 32t-156 99.5 t-105.5 169t-39 241.5zM318 581q0 -97 25 -166t67 -114t97 -66.5t113 -21.5q79 0 146 22.5t104 52.5v654q-30 8 -80 16t-136 8q-162 0 -249 -105.5t-87 -279.5zM328 1568l84 94l209 -189l209 189l84 -94l-293 -308z" />
<glyph unicode="&#x1e8;" horiz-adv-x="1352" d="M185 0v1490h209v-657q75 71 165 160t178 179t167 173t132 145h252q-66 -74 -150 -162.5t-176 -182.5t-182 -184.5t-169 -166.5q93 -64 195.5 -159t202 -203t186.5 -219.5t145 -212.5h-246q-64 101 -148 203.5t-177.5 195.5t-189 173t-185.5 136v-708h-209zM392 1903 l84 94l209 -189l209 189l84 -94l-293 -308z" />
<glyph unicode="&#x1e9;" horiz-adv-x="1122" d="M114 1972l63 96l201 -131l203 131l62 -96l-265 -205zM172 0v1634l200 34v-1019l113.5 113.5t123 127t114 124t92.5 104.5h234q-49 -53 -107 -117.5t-120.5 -130.5t-126 -131.5t-119.5 -123.5q64 -49 136.5 -122.5t142.5 -158t132 -171.5t105 -163h-234q-45 76 -104 154 t-123.5 150t-131 132.5t-127.5 101.5v-538h-200z" />
<glyph unicode="&#x1ea;" horiz-adv-x="1672" d="M125 747q0 191 56.5 337t155 244t228.5 147.5t276 49.5q144 0 272 -49.5t224.5 -147.5t154 -244t57.5 -337q0 -138 -29.5 -251t-83 -203t-126.5 -154.5t-161 -105.5q-50 -25 -91 -53.5t-73 -63.5q-31 -35 -46.5 -60.5t-15.5 -55.5q0 -61 86 -62q15 0 39.5 3t47.5 11 l16 -130q-24 -10 -61.5 -17t-80.5 -7q-121 0 -179 44t-58 120q0 49 28.5 95t63.5 85q7 7 13.5 13t15.5 12h-13q-146 0 -276 49.5t-228.5 147.5t-155 244.5t-56.5 338.5zM344 747q0 -136 34.5 -246.5t98 -188.5t154.5 -120t206 -42q114 0 204 42t153.5 120t98 188.5 t34.5 246.5q0 135 -34.5 246t-98 188t-154 119t-203.5 42q-115 0 -206 -42t-154.5 -119t-98 -188t-34.5 -246z" />
<glyph unicode="&#x1eb;" horiz-adv-x="1268" d="M109 559q0 131 39 239.5t109 186.5t167 120t210 42q115 0 211.5 -42t166.5 -120t108.5 -186.5t38.5 -239.5q0 -185 -75 -323.5t-204 -202.5q-92 -48 -160 -117q-30 -35 -46 -60.5t-16 -55.5q0 -61 86 -62q15 0 39.5 3t49.5 11l14 -130q-24 -10 -61 -17t-80 -7 q-121 0 -179.5 44t-58.5 120q0 49 28.5 95t65.5 85q6 7 16.5 16t18.5 16q-107 6 -196 51.5t-153.5 122t-101.5 181t-37 230.5zM318 559q0 -189 85 -300t231 -111t231 111t85 300t-85 300t-231 111t-231 -110.5t-85 -300.5z" />
<glyph unicode="&#x1ec;" horiz-adv-x="1672" d="M125 747q0 191 56.5 337t155 244t228.5 147.5t276 49.5q144 0 272 -49.5t224.5 -147.5t154 -244t57.5 -337q0 -138 -29.5 -251t-83 -203t-126.5 -154.5t-161 -105.5q-50 -25 -91 -53.5t-73 -63.5q-31 -35 -46.5 -60.5t-15.5 -55.5q0 -61 86 -62q15 0 39.5 3t47.5 11 l16 -130q-24 -10 -61.5 -17t-80.5 -7q-121 0 -179 44t-58 120q0 49 28.5 95t63.5 85q7 7 13.5 13t15.5 12h-13q-146 0 -276 49.5t-228.5 147.5t-155 244.5t-56.5 338.5zM344 747q0 -136 34.5 -246.5t98 -188.5t154.5 -120t206 -42q114 0 204 42t153.5 120t98 188.5 t34.5 246.5q0 135 -34.5 246t-98 188t-154 119t-203.5 42q-115 0 -206 -42t-154.5 -119t-98 -188t-34.5 -246zM532 1709v155h611v-155h-611z" />
<glyph unicode="&#x1ed;" horiz-adv-x="1268" d="M109 559q0 131 39 239.5t109 186.5t167 120t210 42q115 0 211.5 -42t166.5 -120t108.5 -186.5t38.5 -239.5q0 -185 -75 -323.5t-204 -202.5q-92 -48 -160 -117q-30 -35 -46 -60.5t-16 -55.5q0 -61 86 -62q15 0 39.5 3t49.5 11l14 -130q-24 -10 -61 -17t-80 -7 q-121 0 -179.5 44t-58.5 120q0 49 28.5 95t65.5 85q6 7 16.5 16t18.5 16q-107 6 -196 51.5t-153.5 122t-101.5 181t-37 230.5zM318 559q0 -189 85 -300t231 -111t231 111t85 300t-85 300t-231 111t-231 -110.5t-85 -300.5zM329 1374v155h611v-155h-611z" />
<glyph unicode="&#x1ee;" horiz-adv-x="1219" d="M54 76l63 172q24 -13 63 -30.5t88.5 -32.5t110 -26t126.5 -11q183 0 285 62.5t102 208.5q0 86 -35.5 143.5t-96.5 91.5t-144 48t-179 14h-41v125q53 54 112.5 118.5t115 129t105 124.5t84.5 103h-690v174h954v-125q-32 -47 -81.5 -109t-110 -130t-124.5 -136.5 t-125 -133.5q97 -11 184 -41t151.5 -83t102.5 -132t38 -185q0 -117 -44 -201.5t-123 -139.5t-190.5 -81t-247.5 -26q-82 0 -155 12.5t-130.5 28.5t-100.5 35t-67 33zM306 1903l84 94l209 -189l209 189l84 -94l-293 -308z" />
<glyph unicode="&#x1ef;" horiz-adv-x="1012" d="M-6 -331l43 171q49 -24 137 -43t189 -19q175 0 267 76.5t92 216.5q0 84 -36.5 136.5t-95.5 82.5t-136.5 41t-158.5 11h-37v132q48 53 101.5 117.5t103.5 130.5t93.5 124.5t73.5 103.5h-587v168h835v-116q-31 -50 -75 -113.5t-95.5 -133t-108.5 -139.5t-111 -130 q91 -12 171.5 -40.5t139.5 -77t93.5 -122.5t34.5 -180q0 -116 -40 -203t-114 -145t-177.5 -87t-230.5 -29q-118 0 -218 19.5t-153 47.5zM141 1568l84 94l209 -189l209 189l84 -94l-293 -308z" />
<glyph unicode="&#x1f0;" horiz-adv-x="543" d="M-146 -374l25 163q21 -6 49.5 -10.5t52.5 -4.5q103 0 147 63.5t44 186.5v1094h200v-1092q0 -215 -98 -319.5t-284 -104.5q-27 0 -68 6.5t-68 17.5zM-16 1568l84 94l209 -189l209 189l84 -94l-293 -308z" />
<glyph unicode="&#x1f1;" horiz-adv-x="2773" d="M185 24v1445q88 21 196.5 29t199.5 8q182 0 335 -46.5t262.5 -140.5t169.5 -236.5t60 -335.5q0 -194 -60 -337t-169.5 -236.5t-262.5 -140t-335 -46.5q-91 0 -199.5 7.5t-196.5 29.5zM394 176q19 -2 67 -4t136 -2q298 0 443.5 152t145.5 425t-145.5 424.5t-443.5 151.5 q-88 0 -136 -2.5t-67 -4.5v-1140zM1612 0v140q46 86 106.5 189.5t130.5 210.5t145.5 216.5t149.5 211t144 189.5t129 154h-767v179h1022v-165q-49 -56 -115 -134.5t-139 -174t-150.5 -202t-151.5 -215.5t-140.5 -216.5t-120.5 -204.5h839v-178h-1082z" />
<glyph unicode="&#x1f2;" horiz-adv-x="2554" d="M185 24v1445q88 21 196.5 29t199.5 8q182 0 335 -46.5t262.5 -140.5t169.5 -236.5t60 -335.5q0 -194 -60 -337t-169.5 -236.5t-262.5 -140t-335 -46.5q-91 0 -199.5 7.5t-196.5 29.5zM394 176q19 -2 67 -4t136 -2q298 0 443.5 152t145.5 425t-145.5 424.5t-443.5 151.5 q-88 0 -136 -2.5t-67 -4.5v-1140zM1619 0v133q51 95 126 209t158 226.5t161.5 213t136.5 168.5h-553v168h807v-150q-46 -49 -120 -140t-159 -200t-170 -230t-149 -230h615v-168h-853z" />
<glyph unicode="&#x1f3;" horiz-adv-x="2287" d="M109 559q0 129 33.5 236.5t98.5 185t158 120.5t214 43q97 0 171 -26t111 -49v565l199 34v-1635q-69 -19 -176 -39t-247 -20q-129 0 -232.5 41t-176.5 116.5t-113 183.5t-40 244zM318 559q0 -196 96.5 -302.5t258.5 -106.5q82 0 136.5 8t85.5 16v708q-37 30 -106 58 t-151 28q-86 0 -147 -31.5t-99.5 -86t-56 -130t-17.5 -161.5zM1353 0v133q51 95 126 209t158 226.5t161.5 213t136.5 168.5h-553v168h807v-150q-46 -49 -120 -140t-159 -200t-170 -230t-149 -230h615v-168h-853z" />
<glyph unicode="&#x1f4;" horiz-adv-x="1444" d="M125 747q0 186 56.5 331t154 244.5t227 151t278.5 51.5q101 0 179.5 -13.5t134.5 -30t91.5 -34t48.5 -25.5l-68 -175q-61 41 -164.5 68t-210.5 27q-115 0 -208.5 -41t-159 -118t-102 -188t-36.5 -248q0 -134 31 -243.5t95 -188.5t157 -122t220 -43q91 0 154.5 10t90.5 18 v555h209v-696q-26 -9 -74.5 -20t-111.5 -21.5t-138.5 -18t-153.5 -7.5q-157 0 -285.5 52t-221 150.5t-143 242.5t-50.5 332zM675 1673l275 330l129 -127l-303 -294z" />
<glyph unicode="&#x1f5;" horiz-adv-x="1242" d="M109 583q0 123 37 224.5t106.5 176t171 116t228.5 41.5q140 0 244 -20t175 -37v-998q0 -258 -133.5 -374t-404.5 -116q-105 0 -199 17t-162 41l37 174q60 -24 147 -42t182 -18q178 0 256.5 71t78.5 225v47q-27 -17 -100.5 -43.5t-172.5 -26.5q-101 0 -190.5 32t-156 99.5 t-105.5 169t-39 241.5zM318 581q0 -97 25 -166t67 -114t97 -66.5t113 -21.5q79 0 146 22.5t104 52.5v654q-30 8 -80 16t-136 8q-162 0 -249 -105.5t-87 -279.5zM488 1338l275 330l129 -127l-303 -294z" />
<glyph unicode="&#x1f6;" horiz-adv-x="2272" d="M185 0v1490h209v-624h728v624h209v-934q0 -211 66 -308.5t222 -97.5q158 0 223.5 98t65.5 308v562h206v-605q0 -118 -21.5 -218t-77.5 -173t-152 -114t-244 -41q-146 0 -241.5 41t-152.5 114t-80 173.5t-23 217.5v179h-728v-692h-209z" />
<glyph unicode="&#x1f7;" horiz-adv-x="1381" d="M185 -398v1804q39 15 91.5 33.5t114 32.5t130 24t139.5 10q296 0 458 -141.5t162 -412.5q0 -187 -69.5 -331.5t-188.5 -258.5t-280 -201t-348 -159v-400h-209zM394 197q139 62 260.5 128.5t210.5 153.5t141 204t52 278q0 174 -106.5 268t-288.5 94q-103 0 -168 -15 t-101 -28v-1083z" />
<glyph unicode="&#x1f8;" horiz-adv-x="1564" d="M185 0v1490h166q101 -107 215.5 -250.5t227.5 -294.5t213.5 -297.5t168.5 -260.5v1103h205v-1490h-175q-47 80 -108.5 178.5t-132 205t-147 216.5t-152 212t-146.5 192t-130 159v-1163h-205zM525 1876l129 127l276 -330l-101 -91z" />
<glyph unicode="&#x1f9;" d="M172 0v1086q70 16 183 35.5t262 19.5q134 0 222 -37t140.5 -105t74 -162.5t21.5 -208.5v-628h-199v585q0 103 -14.5 176.5t-47 118.5t-86 65.5t-133.5 20.5q-32 0 -66 -2.5t-65 -6t-56 -7.5t-36 -6v-944h-200zM365 1541l129 127l276 -330l-101 -91z" />
<glyph unicode="&#x1fa;" horiz-adv-x="1424" d="M17 0q80 222 151.5 413t139.5 362t134.5 328t138.5 310q-33 27 -52.5 65t-19.5 90q0 92 59.5 144.5t141.5 52.5q80 0 139.5 -52.5t59.5 -144.5q0 -50 -18 -87.5t-48 -62.5q72 -153 138 -310.5t133.5 -329t140 -364t153.5 -414.5h-228q-37 97 -69 191.5t-66 191.5h-675 l-136 -383h-217zM430 552h555q-69 189 -137 363.5t-140 336.5q-76 -162 -143.5 -336t-134.5 -364zM525 1900l324 168l60 -156l-339 -129zM607 1568q0 -50 30 -78.5t73 -28.5t73 28.5t30 78.5q0 49 -30 77t-73 28t-73 -28t-30 -77z" />
<glyph unicode="&#x1fb;" horiz-adv-x="1122" d="M92 333q0 92 38 159t102.5 107.5t150 60t181.5 19.5q30 0 62 -3t61 -8t50.5 -9.5t30.5 -6.5v56q0 49 -10.5 97.5t-39 86t-77 60t-124.5 22.5q-99 0 -173.5 -14t-111.5 -29l-23 165q39 17 129 34t195 17q121 0 203.5 -31.5t133.5 -88.5t72.5 -135.5t21.5 -173.5v-699 q-26 -4 -72.5 -11.5t-104.5 -14t-126 -12t-134 -5.5q-94 0 -174 19.5t-137.5 61.5t-90.5 110.5t-33 165.5zM295 335q0 -107 68.5 -149t186.5 -42q72 0 126.5 3t91.5 13v332q-21 11 -70 19t-117 8q-45 0 -95.5 -7t-92.5 -27.5t-70 -55.5t-28 -94zM367 1434q0 93 58.5 145.5 t140.5 52.5q80 0 140 -52.5t60 -145.5q0 -92 -60 -144.5t-140 -52.5q-82 0 -140.5 52.5t-58.5 144.5zM381 1789l325 168l60 -157l-339 -129zM463 1434q0 -49 30 -78t73 -29t73 29t30 78q0 50 -30 77.5t-73 27.5t-73 -27.5t-30 -77.5z" />
<glyph unicode="&#x1fc;" horiz-adv-x="2009" d="M13 0q122 232 239.5 437.5t229 388.5t220.5 347.5t216 316.5h959v-174h-647v-450h570v-169h-570v-523h701v-174h-907v383h-587q-52 -94 -102.5 -190t-98.5 -193h-223zM533 552h491v775q-115 -154 -237 -350.5t-254 -424.5zM1079 1673l275 330l129 -127l-303 -294z" />
<glyph unicode="&#x1fd;" horiz-adv-x="1846" d="M94 333q0 92 38 159t102.5 107.5t150.5 60t181 19.5q30 0 62 -3t60 -8t49.5 -9.5t30.5 -6.5v56q0 49 -10.5 97.5t-39 86t-77 60t-124.5 22.5q-99 0 -173.5 -14t-111.5 -29l-23 165q39 17 128 34t192 17q148 0 235.5 -51t130.5 -142q71 97 167.5 145t201.5 48 q224 0 345.5 -142.5t121.5 -428.5q0 -16 -1 -28t-1 -23v-20h-765q12 -172 101.5 -263.5t274.5 -91.5q105 0 177 18.5t108 36.5l29 -168q-37 -19 -128.5 -41t-207.5 -22q-123 0 -214 29.5t-160 84.5q-21 -14 -56.5 -33.5t-85 -38t-111 -30.5t-135.5 -12q-107 0 -192 19.5 t-144.5 62.5t-92.5 111.5t-33 165.5zM297 335q0 -109 70 -150t195 -41q111 0 175.5 24.5t99.5 48.5q-33 60 -51 129t-21 146q-24 11 -68.5 19t-113.5 8q-45 0 -95.5 -7t-92.5 -27.5t-70 -55.5t-28 -94zM765 1338l275 330l129 -127l-303 -294zM968 667h554q3 135 -67 222 t-193 87q-69 0 -121.5 -26.5t-88 -69.5t-57 -99.5t-27.5 -113.5z" />
<glyph unicode="&#x1fe;" horiz-adv-x="1672" d="M125 747q0 191 56.5 337t155 244t228.5 147.5t276 49.5q228 0 404 -121l127 166l134 -99l-138 -178q84 -97 132.5 -233.5t48.5 -312.5q0 -192 -57.5 -338.5t-154 -244.5t-224.5 -147.5t-272 -49.5q-114 0 -216 29.5t-190 87.5l-125 -162l-134 99l134 172 q-86 97 -135.5 235t-49.5 319zM344 747q0 -235 95 -386l686 889q-119 92 -288 92q-115 0 -206 -42t-154.5 -119t-98 -188t-34.5 -246zM552 238q115 -88 285 -88q114 0 204 42t153.5 120t98 188.5t34.5 246.5q0 114 -23.5 207t-66.5 168zM692 1673l275 330l129 -127 l-303 -294z" />
<glyph unicode="&#x1ff;" horiz-adv-x="1268" d="M109 559q0 131 39 239.5t109 186.5t167 120t210 42q84 0 158 -24t137 -67l105 138l115 -86l-117 -151q60 -76 93.5 -176t33.5 -222q0 -134 -38.5 -241t-108.5 -184.5t-166.5 -119.5t-211.5 -42q-170 0 -294 88l-106 -138l-113 86l115 152q-60 75 -93.5 176t-33.5 223z M316 559q0 -140 45 -237l456 589q-78 60 -183 61q-148 0 -233 -111t-85 -302zM452 205q73 -58 182 -59q148 0 233 111t85 302q0 133 -47 235zM490 1338l275 330l129 -127l-303 -294z" />
<glyph unicode="&#x200;" horiz-adv-x="1424" d="M17 0q86 236 161.5 437t147.5 382t143 345.5t148 325.5h191q78 -162 149 -326t143 -345t147.5 -382t160.5 -437h-228q-37 97 -69 190.5t-66 189.5h-675l-136 -380h-217zM271 1884l121 119l247 -343l-103 -78zM430 552h555q-69 187 -137 362.5t-140 337.5 q-76 -162 -143.5 -337t-134.5 -363zM626 1884l121 119l246 -343l-102 -78z" />
<glyph unicode="&#x201;" horiz-adv-x="1122" d="M92 333q0 92 38 159t102.5 107.5t150 60t181.5 19.5q30 0 62 -3t61 -8t50.5 -9.5t30.5 -6.5v56q0 49 -10.5 97.5t-39 86t-77 60t-124.5 22.5q-99 0 -173.5 -14t-111.5 -29l-23 165q39 17 129 34t195 17q121 0 203.5 -31.5t133.5 -88.5t72.5 -135.5t21.5 -173.5v-699 q-26 -4 -72.5 -11.5t-104.5 -14t-126 -12t-134 -5.5q-94 0 -174 19.5t-137.5 61.5t-90.5 110.5t-33 165.5zM114 1549l121 119l247 -343l-103 -78zM295 335q0 -107 68.5 -149t186.5 -42q72 0 126.5 3t91.5 13v332q-21 11 -70 19t-117 8q-45 0 -95.5 -7t-92.5 -27.5t-70 -55.5 t-28 -94zM469 1549l121 119l246 -343l-102 -78z" />
<glyph unicode="&#x202;" horiz-adv-x="1424" d="M17 0q86 236 161.5 437t147.5 382t143 345.5t148 325.5h191q78 -162 149 -326t143 -345t147.5 -382t160.5 -437h-228q-37 97 -69 190.5t-66 189.5h-675l-136 -380h-217zM418 1646q-2 72 19.5 127.5t60.5 93.5t92 58.5t113 20.5t113 -20.5t92.5 -58.5t61 -93.5 t19.5 -127.5h-128q-2 25 -10 52.5t-25.5 50t-47.5 38t-75 15.5t-75 -15.5t-47 -38t-24.5 -50t-9.5 -52.5h-129zM430 552h555q-69 187 -137 362.5t-140 337.5q-76 -162 -143.5 -337t-134.5 -363z" />
<glyph unicode="&#x203;" horiz-adv-x="1122" d="M92 333q0 92 38 159t102.5 107.5t150 60t181.5 19.5q30 0 62 -3t61 -8t50.5 -9.5t30.5 -6.5v56q0 49 -10.5 97.5t-39 86t-77 60t-124.5 22.5q-99 0 -173.5 -14t-111.5 -29l-23 165q39 17 129 34t195 17q121 0 203.5 -31.5t133.5 -88.5t72.5 -135.5t21.5 -173.5v-699 q-26 -4 -72.5 -11.5t-104.5 -14t-126 -12t-134 -5.5q-94 0 -174 19.5t-137.5 61.5t-90.5 110.5t-33 165.5zM277 1311q-2 72 19.5 127.5t60.5 93.5t92 58.5t113 20.5t113 -20.5t92.5 -58.5t61 -93.5t19.5 -127.5h-128q-2 25 -10 52.5t-25.5 50t-47.5 38t-75 15.5t-75 -15.5 t-47 -38t-24.5 -50t-9.5 -52.5h-129zM295 335q0 -107 68.5 -149t186.5 -42q72 0 126.5 3t91.5 13v332q-21 11 -70 19t-117 8q-45 0 -95.5 -7t-92.5 -27.5t-70 -55.5t-28 -94z" />
<glyph unicode="&#x204;" horiz-adv-x="1227" d="M185 0v1490h909v-179h-700v-443h623v-173h-623v-517h755v-178h-964zM236 1884l121 119l247 -343l-103 -78zM591 1884l121 119l246 -343l-102 -78z" />
<glyph unicode="&#x205;" horiz-adv-x="1201" d="M109 556q0 149 43 260t114.5 184t164 110t189.5 37q225 0 345.5 -141.5t120.5 -429.5v-32.5t-2 -38.5h-766q13 -174 101 -264.5t276 -90.5q105 0 177 18.5t109 36.5l28 -168q-37 -19 -128 -41t-208 -22q-146 0 -252.5 44t-175.5 121.5t-102.5 183.5t-33.5 233zM164 1549 l121 119l247 -343l-103 -78zM322 667h556q2 135 -68 222t-193 87q-69 0 -121.5 -26.5t-89 -69.5t-57 -99.5t-27.5 -113.5zM519 1549l121 119l246 -343l-102 -78z" />
<glyph unicode="&#x206;" horiz-adv-x="1227" d="M185 0v1490h909v-179h-700v-443h623v-173h-623v-517h755v-178h-964zM353 1646q-2 72 19.5 127.5t60.5 93.5t92 58.5t113 20.5t113 -20.5t92.5 -58.5t61 -93.5t19.5 -127.5h-128q-2 25 -10 52.5t-25.5 50t-47.5 38t-75 15.5t-75 -15.5t-47 -38t-24.5 -50t-9.5 -52.5h-129z " />
<glyph unicode="&#x207;" horiz-adv-x="1201" d="M109 556q0 149 43 260t114.5 184t164 110t189.5 37q225 0 345.5 -141.5t120.5 -429.5v-32.5t-2 -38.5h-766q13 -174 101 -264.5t276 -90.5q105 0 177 18.5t109 36.5l28 -168q-37 -19 -128 -41t-208 -22q-146 0 -252.5 44t-175.5 121.5t-102.5 183.5t-33.5 233zM322 667 h556q2 135 -68 222t-193 87q-69 0 -121.5 -26.5t-89 -69.5t-57 -99.5t-27.5 -113.5zM330 1311q-2 72 19.5 127.5t60.5 93.5t92 58.5t113 20.5t113 -20.5t92.5 -58.5t61 -93.5t19.5 -127.5h-128q-2 25 -10 52.5t-25.5 50t-47.5 38t-75 15.5t-75 -15.5t-47 -38t-24.5 -50 t-9.5 -52.5h-129z" />
<glyph unicode="&#x208;" horiz-adv-x="577" d="M-160 1884l121 119l247 -343l-103 -78zM185 0v1490h209v-1490h-209zM195 1884l121 119l246 -343l-102 -78z" />
<glyph unicode="&#x209;" horiz-adv-x="543" d="M-176 1549l121 119l247 -343l-103 -78zM172 0v1118h200v-1118h-200zM179 1549l121 119l246 -343l-102 -78z" />
<glyph unicode="&#x20a;" horiz-adv-x="577" d="M10 1646q-2 72 19.5 127.5t60.5 93.5t92 58.5t113 20.5t113 -20.5t92.5 -58.5t61 -93.5t19.5 -127.5h-128q-2 25 -10 52.5t-25.5 50t-47.5 38t-75 15.5t-75 -15.5t-47 -38t-24.5 -50t-9.5 -52.5h-129zM185 0v1490h209v-1490h-209z" />
<glyph unicode="&#x20b;" horiz-adv-x="543" d="M-8 1311q-2 72 19.5 127.5t60.5 93.5t92 58.5t113 20.5t113 -20.5t92.5 -58.5t61 -93.5t19.5 -127.5h-128q-2 25 -10 52.5t-25.5 50t-47.5 38t-75 15.5t-75 -15.5t-47 -38t-24.5 -50t-9.5 -52.5h-129zM172 0v1118h200v-1118h-200z" />
<glyph unicode="&#x20c;" horiz-adv-x="1672" d="M125 747q0 191 56.5 337t155 244t228.5 147.5t276 49.5q144 0 272 -49.5t224.5 -147.5t154 -244t57.5 -337q0 -192 -57.5 -338.5t-154 -244.5t-224.5 -147.5t-272 -49.5q-146 0 -276 49.5t-228.5 147.5t-155 244.5t-56.5 338.5zM344 747q0 -136 34.5 -246.5t98 -188.5 t154.5 -120t206 -42q114 0 204 42t153.5 120t98 188.5t34.5 246.5q0 135 -34.5 246t-98 188t-154 119t-203.5 42q-115 0 -206 -42t-154.5 -119t-98 -188t-34.5 -246zM385 1884l121 119l247 -343l-103 -78zM740 1884l121 119l246 -343l-102 -78z" />
<glyph unicode="&#x20d;" horiz-adv-x="1268" d="M109 559q0 131 39 239.5t109 186.5t167 120t210 42q115 0 211.5 -42t166.5 -120t108.5 -186.5t38.5 -239.5q0 -134 -38.5 -241t-108.5 -184.5t-166.5 -119.5t-211.5 -42q-114 0 -210.5 42t-166.5 119.5t-109 185t-39 240.5zM183 1549l121 119l247 -343l-103 -78zM318 559 q0 -189 85 -300t231 -111t231 111t85 300t-85 300t-231 111t-231 -110.5t-85 -300.5zM538 1549l121 119l246 -343l-102 -78z" />
<glyph unicode="&#x20e;" horiz-adv-x="1672" d="M125 747q0 191 56.5 337t155 244t228.5 147.5t276 49.5q144 0 272 -49.5t224.5 -147.5t154 -244t57.5 -337q0 -192 -57.5 -338.5t-154 -244.5t-224.5 -147.5t-272 -49.5q-146 0 -276 49.5t-228.5 147.5t-155 244.5t-56.5 338.5zM344 747q0 -136 34.5 -246.5t98 -188.5 t154.5 -120t206 -42q114 0 204 42t153.5 120t98 188.5t34.5 246.5q0 135 -34.5 246t-98 188t-154 119t-203.5 42q-115 0 -206 -42t-154.5 -119t-98 -188t-34.5 -246zM552 1646q-2 72 19.5 127.5t60.5 93.5t92 58.5t113 20.5t113 -20.5t92.5 -58.5t61 -93.5t19.5 -127.5h-128 q-2 25 -10 52.5t-25.5 50t-47.5 38t-75 15.5t-75 -15.5t-47 -38t-24.5 -50t-9.5 -52.5h-129z" />
<glyph unicode="&#x20f;" horiz-adv-x="1268" d="M109 559q0 131 39 239.5t109 186.5t167 120t210 42q115 0 211.5 -42t166.5 -120t108.5 -186.5t38.5 -239.5q0 -134 -38.5 -241t-108.5 -184.5t-166.5 -119.5t-211.5 -42q-114 0 -210.5 42t-166.5 119.5t-109 185t-39 240.5zM318 559q0 -189 85 -300t231 -111t231 111 t85 300t-85 300t-231 111t-231 -110.5t-85 -300.5zM349 1311q-2 72 19.5 127.5t60.5 93.5t92 58.5t113 20.5t113 -20.5t92.5 -58.5t61 -93.5t19.5 -127.5h-128q-2 25 -10 52.5t-25.5 50t-47.5 38t-75 15.5t-75 -15.5t-47 -38t-24.5 -50t-9.5 -52.5h-129z" />
<glyph unicode="&#x210;" horiz-adv-x="1352" d="M181 1884l121 119l247 -343l-103 -78zM185 0v1469q88 21 196.5 29t199.5 8q314 0 478 -119t164 -353q0 -148 -78.5 -253.5t-230.5 -156.5q34 -43 87 -113t109 -155t110.5 -177.5t93.5 -178.5h-228q-43 82 -93.5 166t-102 160t-102.5 143t-91 116q-28 -2 -57 -2h-59h-187 v-583h-209zM394 755h148q107 0 193 10.5t145.5 41t91.5 85t32 144.5q0 84 -32 140.5t-86.5 88.5t-129.5 45t-159 13q-133 0 -203 -7v-561zM536 1884l121 119l246 -343l-102 -78z" />
<glyph unicode="&#x211;" horiz-adv-x="829" d="M43 1549l121 119l247 -343l-103 -78zM172 0v1071q72 26 177 48t236 22q26 0 59 -3t65.5 -8t59.5 -10.5t39 -9.5l-34 -174q-24 8 -79 20t-141 12q-55 0 -109.5 -12t-72.5 -16v-940h-200zM398 1549l121 119l246 -343l-102 -78z" />
<glyph unicode="&#x212;" horiz-adv-x="1352" d="M185 0v1469q88 21 196.5 29t199.5 8q314 0 478 -119t164 -353q0 -148 -78.5 -253.5t-230.5 -156.5q34 -43 87 -113t109 -155t110.5 -177.5t93.5 -178.5h-228q-43 82 -93.5 166t-102 160t-102.5 143t-91 116q-28 -2 -57 -2h-59h-187v-583h-209zM347 1646q-2 72 19.5 127.5 t60.5 93.5t92 58.5t113 20.5t113 -20.5t92.5 -58.5t61 -93.5t19.5 -127.5h-128q-2 25 -10 52.5t-25.5 50t-47.5 38t-75 15.5t-75 -15.5t-47 -38t-24.5 -50t-9.5 -52.5h-129zM394 755h148q107 0 193 10.5t145.5 41t91.5 85t32 144.5q0 84 -32 140.5t-86.5 88.5t-129.5 45 t-159 13q-133 0 -203 -7v-561z" />
<glyph unicode="&#x213;" horiz-adv-x="829" d="M172 0v1071q72 26 177 48t236 22q26 0 59 -3t65.5 -8t59.5 -10.5t39 -9.5l-34 -174q-24 8 -79 20t-141 12q-55 0 -109.5 -12t-72.5 -16v-940h-200zM207 1311q-2 72 19.5 127.5t60.5 93.5t92 58.5t113 20.5t113 -20.5t92.5 -58.5t61 -93.5t19.5 -127.5h-128 q-2 25 -10 52.5t-25.5 50t-47.5 38t-75 15.5t-75 -15.5t-47 -38t-24.5 -50t-9.5 -52.5h-129z" />
<glyph unicode="&#x214;" horiz-adv-x="1479" d="M174 554v936h209v-911q0 -224 99 -325.5t258 -101.5q80 0 145 25.5t112.5 77t73 131.5t25.5 193v911h209v-936q0 -125 -33 -232t-103 -185.5t-176.5 -124t-252.5 -45.5t-254 45.5t-177 124t-102 186t-33 231.5zM288 1884l121 119l247 -343l-103 -78zM643 1884l121 119 l246 -343l-102 -78z" />
<glyph unicode="&#x215;" d="M160 490v628h199v-585q0 -204 64.5 -292.5t216.5 -88.5q33 0 67.5 3t64.5 6t55 6t35 7v944h201v-1085q-70 -17 -182.5 -37t-260.5 -20q-130 0 -218 37.5t-141.5 106.5t-77 162.5t-23.5 207.5zM160 1549l121 119l247 -343l-103 -78zM515 1549l121 119l246 -343l-102 -78z " />
<glyph unicode="&#x216;" horiz-adv-x="1479" d="M174 554v936h209v-911q0 -224 99 -325.5t258 -101.5q80 0 145 25.5t112.5 77t73 131.5t25.5 193v911h209v-936q0 -125 -33 -232t-103 -185.5t-176.5 -124t-252.5 -45.5t-254 45.5t-177 124t-102 186t-33 231.5zM454 1646q-2 72 19.5 127.5t60.5 93.5t92 58.5t113 20.5 t113 -20.5t92.5 -58.5t61 -93.5t19.5 -127.5h-128q-2 25 -10 52.5t-25.5 50t-47.5 38t-75 15.5t-75 -15.5t-47 -38t-24.5 -50t-9.5 -52.5h-129z" />
<glyph unicode="&#x217;" d="M160 490v628h199v-585q0 -204 64.5 -292.5t216.5 -88.5q33 0 67.5 3t64.5 6t55 6t35 7v944h201v-1085q-70 -17 -182.5 -37t-260.5 -20q-130 0 -218 37.5t-141.5 106.5t-77 162.5t-23.5 207.5zM326 1311q-2 72 19.5 127.5t60.5 93.5t92 58.5t113 20.5t113 -20.5 t92.5 -58.5t61 -93.5t19.5 -127.5h-128q-2 25 -10 52.5t-25.5 50t-47.5 38t-75 15.5t-75 -15.5t-47 -38t-24.5 -50t-9.5 -52.5h-129z" />
<glyph unicode="&#x218;" horiz-adv-x="1143" d="M71 74l62 171q50 -29 151 -63t247 -34q327 0 327 224q0 69 -29 117.5t-78.5 84t-113 61t-134.5 51.5q-82 28 -155 63.5t-126.5 84t-85 115t-31.5 161.5q0 195 133.5 305t368.5 110q135 0 246 -29t162 -64l-67 -170q-45 28 -134.5 55t-206.5 27q-60 0 -112 -13t-91 -39 t-61.5 -66t-22.5 -93q0 -60 24 -101t67 -72t100 -56.5t125 -51.5q97 -39 178 -78t140 -92.5t91 -127.5t32 -180q0 -196 -142.5 -301.5t-403.5 -105.5q-88 0 -162 12.5t-132.5 28.5t-100.5 34t-65 32zM338 -275q33 0 59.5 4t44 18.5t27 42t9.5 75.5v28h191q2 -11 2 -25v-20 q0 -70 -20.5 -117t-54.5 -77t-80.5 -44t-97.5 -14q-29 0 -51.5 2t-28.5 6v121z" />
<glyph unicode="&#x219;" horiz-adv-x="958" d="M86 37l37 172q35 -13 110 -39t200 -26q122 0 181 32.5t59 102.5q0 74 -58.5 117t-191.5 96q-64 27 -123.5 53.5t-102.5 63t-68.5 88.5t-25.5 126q0 148 109.5 236t298.5 88q48 0 95.5 -6t88 -13.5t72 -15.5t48.5 -16l-37 -171q-32 17 -100.5 35.5t-166.5 18.5 q-84 0 -146 -34t-62 -104q0 -37 14 -64.5t43.5 -50t72.5 -42t103 -41.5q79 -31 141.5 -60t106 -67t68 -93t24.5 -135q0 -155 -115.5 -234.5t-327.5 -79.5q-148 0 -232 25t-115 38zM228 -275q33 0 59.5 4t44 18.5t27 42t9.5 75.5v28h191q2 -11 2 -25v-20q0 -70 -20.5 -117 t-54.5 -77t-80.5 -44t-97.5 -14q-29 0 -51.5 2t-28.5 6v121z" />
<glyph unicode="&#x21a;" horiz-adv-x="1214" d="M35 1309v181h1145v-181h-468v-1309h-209v1309h-468zM378 -275q33 0 59.5 4t44 18.5t27 42t9.5 75.5v28h191q2 -11 2 -25v-20q0 -70 -20.5 -117t-54.5 -77t-80.5 -44t-97.5 -14q-29 0 -51.5 2t-28.5 6v121z" />
<glyph unicode="&#x21b;" horiz-adv-x="864" d="M160 433v997l199 35v-347h423v-168h-423v-515q0 -84 13 -139.5t39 -86.5t64 -44t91 -13q90 0 144.5 20.5t77.5 30.5l37 -166q-30 -15 -105 -38t-172 -23q-114 0 -188 29.5t-119.5 87t-63 142.5t-17.5 198zM267 -275q33 0 59.5 4t44 18.5t27 42t9.5 75.5v28h191 q2 -11 2 -25v-20q0 -70 -20.5 -117t-54.5 -77t-80.5 -44t-97.5 -14q-29 0 -51.5 2t-28.5 6v121z" />
<glyph unicode="&#x21c;" horiz-adv-x="1149" d="M35 1432q51 35 163 62.5t247 27.5q117 0 213.5 -26.5t166.5 -85t109.5 -147.5t39.5 -214q0 -58 -19 -115.5t-55 -109.5t-89.5 -95t-120.5 -71q164 -49 255 -172t91 -277q0 -172 -72 -288t-191 -187.5t-274 -101.5t-323 -30q-24 0 -64.5 1t-64.5 5l13 181q17 -2 48.5 -3 t61.5 -1q123 0 239 18.5t206.5 65.5t146 126t55.5 200q0 107 -48.5 177.5t-119 111.5t-154.5 56.5t-155 15.5h-82v168h64q86 0 165 19.5t139 59.5t95.5 101.5t35.5 142.5q0 142 -83 219.5t-231 77.5q-119 0 -208 -27t-134 -55z" />
<glyph unicode="&#x21d;" horiz-adv-x="936" d="M26 -228q54 2 120.5 8.5t134.5 19.5t133.5 34.5t116 58t81.5 89.5t31 125q0 82 -42 129.5t-101 72t-125.5 32.5t-116.5 8h-26v164q69 0 135 13.5t116 42t80 76t30 116.5q0 103 -63.5 160.5t-178.5 57.5q-97 0 -177 -23t-112 -40l-36 172q17 6 51 17t80 19.5t95 15.5t99 7 q94 0 176 -20.5t141 -68t93.5 -120t34.5 -175.5q0 -49 -17.5 -95t-48.5 -88t-75 -75.5t-96 -55.5q69 -14 122.5 -46.5t90 -78t55 -98t18.5 -109.5q0 -151 -73 -250t-189.5 -157.5t-260.5 -83t-283 -24.5z" />
<glyph unicode="&#x21e;" horiz-adv-x="1515" d="M185 0v1490h209v-622h728v622h209v-1490h-209v688h-728v-688h-209zM464 1903l84 94l209 -189l209 189l84 -94l-293 -308z" />
<glyph unicode="&#x21f;" horiz-adv-x="1227" d="M114 1972l63 96l201 -131l203 131l62 -96l-265 -205zM172 0v1634l200 34v-572q55 21 118.5 33t126.5 12q134 0 222 -37t140.5 -105t74 -162.5t21.5 -208.5v-628h-199v585q0 103 -14.5 176.5t-47 118.5t-86 65.5t-133.5 20.5q-32 0 -66 -4.5t-65 -10t-56 -12t-36 -10.5 v-929h-200z" />
<glyph unicode="&#x220;" horiz-adv-x="1453" d="M185 0v1451q43 13 102 25t129 23t147 17t159 6q155 0 260.5 -44t172 -123.5t96 -189t29.5 -238.5v-1325h-211v1271q0 244 -88.5 355.5t-281.5 111.5q-39 0 -82 -2t-84 -6.5t-77.5 -11t-59.5 -13.5v-1307h-211z" />
<glyph unicode="&#x221;" horiz-adv-x="1562" d="M109 559q0 129 33.5 236.5t98.5 185t158 120.5t214 43q97 0 171 -26t111 -49v565l199 34v-1514q43 31 91 47t103 16q64 0 117 -24.5t90.5 -66.5t58 -98t20.5 -116q0 -54 -18.5 -109t-56.5 -100t-98.5 -73t-144.5 -28q-123 0 -200 50.5t-116 138.5l-164 -195l-103 90 l226 273q-2 15 -2 30v32q-50 -17 -110 -28.5t-116 -11.5q-129 0 -232.5 39.5t-176.5 114t-113 181.5t-40 243zM318 559q0 -196 96.5 -298.5t258.5 -102.5q82 0 136.5 11.5t85.5 19.5v693q-37 30 -106 58t-151 28q-86 0 -147 -31.5t-99.5 -86t-56 -130t-17.5 -161.5z M1094 -19v-55q0 -77 43 -124t119 -47q75 0 114.5 46.5t39.5 110.5t-38 109t-114 45q-54 0 -90.5 -23.5t-73.5 -61.5z" />
<glyph unicode="&#x222;" horiz-adv-x="1440" d="M105 443q0 78 22.5 137.5t63.5 106t95 80t118 52.5q-103 37 -151 127t-48 213q0 103 9.5 176t25.5 155h203q-13 -76 -24 -151t-11 -149q0 -144 74 -221t238 -77t238 76.5t74 221.5q0 75 -10.5 150t-23.5 150h202q17 -82 27 -155t10 -176q0 -123 -49 -213t-152 -127 q62 -19 117.5 -52.5t95 -80t63.5 -107t24 -136.5q0 -211 -144.5 -332t-469.5 -121q-166 0 -282 30.5t-191 90t-109.5 143.5t-34.5 189zM322 443q0 -75 32.5 -129t87.5 -87.5t126.5 -48t151.5 -14.5t152 14.5t127 48t87 87.5t32 129q0 74 -29 126.5t-83 86.5t-127 49t-159 15 q-88 0 -160 -15t-126 -49t-83 -86.5t-29 -126.5z" />
<glyph unicode="&#x223;" horiz-adv-x="1270" d="M111 505q0 84 20.5 156t56.5 131.5t83 103.5t101 70q-84 37 -135.5 131.5t-51.5 216.5q0 90 10 177t22 177h196q-13 -75 -20.5 -151t-7.5 -152q0 -174 63 -251.5t188 -77.5q123 0 186.5 78t63.5 251q0 76 -8 152.5t-20 150.5h196q13 -90 22.5 -177t9.5 -177 q0 -123 -51.5 -217.5t-135.5 -130.5q53 -26 100.5 -70t83 -103.5t56 -131.5t20.5 -156q0 -121 -38.5 -218.5t-108.5 -167.5t-165.5 -108.5t-210.5 -38.5q-114 0 -210.5 38.5t-166.5 108.5t-109 168t-39 218zM320 505q0 -166 85 -262.5t231 -96.5t231 96.5t85 262.5 t-85 262.5t-231 96.5t-231 -96.5t-85 -262.5z" />
<glyph unicode="&#x224;" horiz-adv-x="1231" d="M71 0v140q46 86 106.5 189.5t130.5 211.5t145.5 217.5t149.5 211t144 191t131 155.5h-769v174h1022v-165q-76 -82 -182 -217.5t-220 -294.5t-222.5 -327t-186.5 -312h833v-174q0 -99 -13 -174.5t-47.5 -126t-97 -76t-158.5 -25.5q-31 0 -70.5 5t-62.5 12l18 157 q17 -6 46.5 -8t46.5 -2q80 0 108.5 52.5t28.5 148.5v37h-881z" />
<glyph unicode="&#x225;" horiz-adv-x="1012" d="M78 0v133q51 95 126 209t158 226.5t161.5 213t136.5 168.5h-553v168h807v-150q-46 -49 -120 -140t-159 -200t-170 -230t-149 -230h615v-168q0 -92 -11 -166t-42 -127t-89 -81t-153 -28q-30 0 -68.5 5t-62.5 12l18 147q13 -5 42.5 -8.5t47.5 -3.5q82 0 110 54t28 151v45 h-673z" />
<glyph unicode="&#x226;" horiz-adv-x="1424" d="M17 0q86 236 161.5 437t147.5 382t143 345.5t148 325.5h191q78 -162 149 -326t143 -345t147.5 -382t160.5 -437h-228q-37 97 -69 190.5t-66 189.5h-675l-136 -380h-217zM430 552h555q-69 187 -137 362.5t-140 337.5q-76 -162 -143.5 -337t-134.5 -363zM583 1786 q0 60 38 95.5t91 35.5q54 0 91.5 -35t37.5 -96q0 -60 -37.5 -95.5t-91.5 -35.5q-53 0 -91 35.5t-38 95.5z" />
<glyph unicode="&#x227;" horiz-adv-x="1122" d="M92 333q0 92 38 159t102.5 107.5t150 60t181.5 19.5q30 0 62 -3t61 -8t50.5 -9.5t30.5 -6.5v56q0 49 -10.5 97.5t-39 86t-77 60t-124.5 22.5q-99 0 -173.5 -14t-111.5 -29l-23 165q39 17 129 34t195 17q121 0 203.5 -31.5t133.5 -88.5t72.5 -135.5t21.5 -173.5v-699 q-26 -4 -72.5 -11.5t-104.5 -14t-126 -12t-134 -5.5q-94 0 -174 19.5t-137.5 61.5t-90.5 110.5t-33 165.5zM295 335q0 -107 68.5 -149t186.5 -42q72 0 126.5 3t91.5 13v332q-21 11 -70 19t-117 8q-45 0 -95.5 -7t-92.5 -27.5t-70 -55.5t-28 -94zM437 1451q0 60 38 95.5 t91 35.5q54 0 91.5 -35t37.5 -96q0 -60 -37.5 -95.5t-91.5 -35.5q-53 0 -91 35.5t-38 95.5z" />
<glyph unicode="&#x228;" horiz-adv-x="1227" d="M185 0v1490h909v-179h-700v-443h623v-173h-623v-517h755v-178h-392q-10 -19 -21.5 -40.5t-17.5 -39.5q62 -30 90.5 -65.5t28.5 -104.5q0 -24 -11 -51.5t-37 -51t-69 -38.5t-105 -15q-55 0 -102 8t-74 20l23 122q26 -9 55 -15t66 -6q77 0 77 49q0 24 -23.5 40t-66.5 34 l-16 6q11 30 29.5 72.5t36.5 75.5h-435z" />
<glyph unicode="&#x229;" horiz-adv-x="1201" d="M109 556q0 149 43 260t114.5 184t164 110t189.5 37q223 0 344.5 -142.5t121.5 -428.5q0 -16 -1 -28t-1 -23v-20h-766q13 -172 102 -263.5t275 -91.5q105 0 177 18.5t109 36.5l28 -168q-37 -17 -117.5 -37.5t-185.5 -25.5q-9 -15 -15.5 -29t-11.5 -25q62 -30 90.5 -65.5 t28.5 -104.5q0 -24 -11 -51.5t-37 -51t-69 -38.5t-105 -15q-55 0 -101.5 8t-74.5 20l23 122q26 -9 55 -15t66 -6q78 0 78 49q0 24 -24 40t-67 34l-14 6q8 26 22.5 62.5t30.5 66.5q-121 15 -207 63t-142.5 124.5t-84 175t-27.5 212.5zM322 667h556q2 135 -68 222t-193 87 q-69 0 -121.5 -26.5t-88 -69.5t-57 -99.5t-28.5 -113.5z" />
<glyph unicode="&#x22a;" horiz-adv-x="1672" d="M125 747q0 191 56.5 337t155 244t228.5 147.5t276 49.5q144 0 272 -49.5t224.5 -147.5t154 -244t57.5 -337q0 -192 -57.5 -338.5t-154 -244.5t-224.5 -147.5t-272 -49.5q-146 0 -276 49.5t-228.5 147.5t-155 244.5t-56.5 338.5zM344 747q0 -136 34.5 -246.5t98 -188.5 t154.5 -120t206 -42q114 0 204 42t153.5 120t98 188.5t34.5 246.5q0 135 -34.5 246t-98 188t-154 119t-203.5 42q-115 0 -206 -42t-154.5 -119t-98 -188t-34.5 -246zM504 1725q0 53 33.5 85t82.5 32t82.5 -32t33.5 -85q0 -54 -33.5 -86.5t-82.5 -32.5t-82.5 32.5t-33.5 86.5 zM564 1931v137h546v-137h-546zM938 1725q0 53 33.5 85t83.5 32q47 0 81 -32t34 -85q0 -54 -34 -86.5t-81 -32.5q-50 0 -83.5 32.5t-33.5 86.5z" />
<glyph unicode="&#x22b;" horiz-adv-x="1268" d="M109 559q0 131 39 239.5t109 186.5t167 120t210 42q115 0 211.5 -42t166.5 -120t108.5 -186.5t38.5 -239.5q0 -134 -38.5 -241t-108.5 -184.5t-166.5 -119.5t-211.5 -42q-114 0 -210.5 42t-166.5 119.5t-109 185t-39 240.5zM301 1381q0 53 33.5 85t82.5 32t82.5 -32 t33.5 -85q0 -54 -33.5 -86.5t-82.5 -32.5t-82.5 32.5t-33.5 86.5zM318 559q0 -189 85 -300t231 -111t231 111t85 300t-85 300t-231 111t-231 -110.5t-85 -300.5zM361 1587v137h546v-137h-546zM735 1381q0 53 33.5 85t83.5 32q47 0 81 -32t34 -85q0 -54 -34 -86.5t-81 -32.5 q-50 0 -83.5 32.5t-33.5 86.5z" />
<glyph unicode="&#x22c;" horiz-adv-x="1672" d="M125 747q0 191 56.5 337t155 244t228.5 147.5t276 49.5q144 0 272 -49.5t224.5 -147.5t154 -244t57.5 -337q0 -192 -57.5 -338.5t-154 -244.5t-224.5 -147.5t-272 -49.5q-146 0 -276 49.5t-228.5 147.5t-155 244.5t-56.5 338.5zM344 747q0 -136 34.5 -246.5t98 -188.5 t154.5 -120t206 -42q114 0 204 42t153.5 120t98 188.5t34.5 246.5q0 135 -34.5 246t-98 188t-154 119t-203.5 42q-115 0 -206 -42t-154.5 -119t-98 -188t-34.5 -246zM509 1647q8 26 26.5 58t44 59t59.5 46.5t77 19.5q39 0 76 -12.5t66 -30.5q37 -19 59.5 -27t46.5 -8 q37 0 65 29.5t42 58.5l97 -43q-9 -26 -27 -57t-44 -58t-60 -46t-77 -19q-39 0 -75.5 13t-66.5 30q-37 16 -59.5 25t-46.5 9q-37 0 -64.5 -30t-42.5 -60zM564 1931v137h546v-137h-546z" />
<glyph unicode="&#x22d;" horiz-adv-x="1268" d="M109 559q0 131 39 239.5t109 186.5t167 120t210 42q115 0 211.5 -42t166.5 -120t108.5 -186.5t38.5 -239.5q0 -134 -38.5 -241t-108.5 -184.5t-166.5 -119.5t-211.5 -42q-114 0 -210.5 42t-166.5 119.5t-109 185t-39 240.5zM306 1303q8 26 26.5 58t44 59t59.5 46.5 t77 19.5q39 0 76 -12.5t66 -30.5q37 -19 59.5 -27t46.5 -8q37 0 65 29.5t42 58.5l97 -43q-9 -26 -27 -57t-44 -58t-60 -46t-77 -19q-39 0 -75.5 13t-66.5 30q-37 16 -59.5 25t-46.5 9q-37 0 -64.5 -30t-42.5 -60zM318 559q0 -189 85 -300t231 -111t231 111t85 300t-85 300 t-231 111t-231 -110.5t-85 -300.5zM361 1587v137h546v-137h-546z" />
<glyph unicode="&#x22e;" horiz-adv-x="1672" d="M125 747q0 191 56.5 337t155 244t228.5 147.5t276 49.5q144 0 272 -49.5t224.5 -147.5t154 -244t57.5 -337q0 -192 -57.5 -338.5t-154 -244.5t-224.5 -147.5t-272 -49.5q-146 0 -276 49.5t-228.5 147.5t-155 244.5t-56.5 338.5zM344 747q0 -136 34.5 -246.5t98 -188.5 t154.5 -120t206 -42q114 0 204 42t153.5 120t98 188.5t34.5 246.5q0 135 -34.5 246t-98 188t-154 119t-203.5 42q-115 0 -206 -42t-154.5 -119t-98 -188t-34.5 -246zM708 1823q0 60 38 95.5t91 35.5q54 0 91.5 -35t37.5 -96q0 -60 -37.5 -95.5t-91.5 -35.5q-53 0 -91 35.5 t-38 95.5z" />
<glyph unicode="&#x22f;" horiz-adv-x="1268" d="M109 559q0 131 39 239.5t109 186.5t167 120t210 42q115 0 211.5 -42t166.5 -120t108.5 -186.5t38.5 -239.5q0 -134 -38.5 -241t-108.5 -184.5t-166.5 -119.5t-211.5 -42q-114 0 -210.5 42t-166.5 119.5t-109 185t-39 240.5zM318 559q0 -189 85 -300t231 -111t231 111 t85 300t-85 300t-231 111t-231 -110.5t-85 -300.5zM505 1451q0 60 38 95.5t91 35.5q54 0 91.5 -35t37.5 -96q0 -60 -37.5 -95.5t-91.5 -35.5q-53 0 -91 35.5t-38 95.5z" />
<glyph unicode="&#x230;" horiz-adv-x="1672" d="M125 747q0 191 56.5 337t155 244t228.5 147.5t276 49.5q144 0 272 -49.5t224.5 -147.5t154 -244t57.5 -337q0 -192 -57.5 -338.5t-154 -244.5t-224.5 -147.5t-272 -49.5q-146 0 -276 49.5t-228.5 147.5t-155 244.5t-56.5 338.5zM344 747q0 -136 34.5 -246.5t98 -188.5 t154.5 -120t206 -42q114 0 204 42t153.5 120t98 188.5t34.5 246.5q0 135 -34.5 246t-98 188t-154 119t-203.5 42q-115 0 -206 -42t-154.5 -119t-98 -188t-34.5 -246zM564 1931v137h546v-137h-546zM719 1727q0 55 34.5 88t83.5 33q50 0 84.5 -33t34.5 -88q0 -56 -34.5 -88.5 t-84.5 -32.5q-49 0 -83.5 32.5t-34.5 88.5z" />
<glyph unicode="&#x2c6;" horiz-adv-x="808" d="M111 1346l293 308l293 -308l-84 -94l-209 189l-209 -189z" />
<glyph unicode="&#x2da;" horiz-adv-x="808" d="M183 1455q0 52 18 92t48 69t70 44t85 15t85 -15t70 -44t48.5 -69t18.5 -92q0 -51 -18.5 -90.5t-48.5 -69t-70 -44t-85 -14.5t-85 14.5t-70 44t-48 69t-18 90.5zM290 1455q0 -55 33.5 -86t80.5 -31q48 0 81.5 31t33.5 86q0 56 -33.5 87.5t-81.5 31.5q-47 0 -80.5 -31 t-33.5 -88z" />
<glyph unicode="&#x2dc;" horiz-adv-x="808" d="M49 1374q9 27 28.5 61t47 63t65.5 49.5t83 20.5q43 0 81 -15.5t72 -32.5q37 -16 62 -25t50 -9q36 0 67 30.5t49 63.5l103 -51q-10 -26 -28.5 -60.5t-46.5 -63t-65.5 -49t-83.5 -20.5q-43 0 -80.5 14.5t-72.5 32.5q-37 17 -62 26t-49 9q-37 0 -68 -30.5t-49 -64.5z" />
<glyph unicode="&#x1e80;" horiz-adv-x="1997" d="M60 1490h219q31 -168 63 -335.5t66.5 -325.5t68.5 -302t71 -267q86 226 182.5 496t180.5 558h181q84 -288 183 -558t186 -496q34 121 68 265t67.5 302t66 327t61.5 336h213q-77 -431 -164 -796t-199 -694h-209q-95 232 -185 477.5t-180 533.5q-91 -288 -183.5 -533.5 t-184.5 -477.5h-209q-114 329 -201 694.5t-162 795.5zM740 1876l129 127l276 -330l-101 -91z" />
<glyph unicode="&#x1e81;" horiz-adv-x="1670" d="M39 1118h215q21 -101 51 -219.5t63.5 -236.5t70.5 -228t68 -191q37 100 72.5 213.5t67.5 228.5t61 226t51 207h166q19 -96 47 -207t60.5 -226t67.5 -228t72 -214q32 81 67.5 191t70 228t64.5 236.5t52 219.5h206q-84 -328 -178.5 -612t-193.5 -506h-174q-60 154 -128 353 t-123 415q-56 -216 -123 -415t-127 -353h-174q-99 222 -193.5 506t-178.5 612zM576 1541l129 127l276 -330l-101 -91z" />
<glyph unicode="&#x1e82;" horiz-adv-x="1997" d="M60 1490h219q31 -168 63 -335.5t66.5 -325.5t68.5 -302t71 -267q86 226 182.5 496t180.5 558h181q84 -288 183 -558t186 -496q34 121 68 265t67.5 302t66 327t61.5 336h213q-77 -431 -164 -796t-199 -694h-209q-95 232 -185 477.5t-180 533.5q-91 -288 -183.5 -533.5 t-184.5 -477.5h-209q-114 329 -201 694.5t-162 795.5zM854 1673l275 330l129 -127l-303 -294z" />
<glyph unicode="&#x1e83;" horiz-adv-x="1670" d="M39 1118h215q21 -101 51 -219.5t63.5 -236.5t70.5 -228t68 -191q37 100 72.5 213.5t67.5 228.5t61 226t51 207h166q19 -96 47 -207t60.5 -226t67.5 -228t72 -214q32 81 67.5 191t70 228t64.5 236.5t52 219.5h206q-84 -328 -178.5 -612t-193.5 -506h-174q-60 154 -128 353 t-123 415q-56 -216 -123 -415t-127 -353h-174q-99 222 -193.5 506t-178.5 612zM690 1338l275 330l129 -127l-303 -294z" />
<glyph unicode="&#x1e84;" horiz-adv-x="1997" d="M60 1490h219q31 -168 63 -335.5t66.5 -325.5t68.5 -302t71 -267q86 226 182.5 496t180.5 558h181q84 -288 183 -558t186 -496q34 121 68 265t67.5 302t66 327t61.5 336h213q-77 -431 -164 -796t-199 -694h-209q-95 232 -185 477.5t-180 533.5q-91 -288 -183.5 -533.5 t-184.5 -477.5h-209q-114 329 -201 694.5t-162 795.5zM669 1786q0 56 37 91.5t87 35.5q49 0 86.5 -35t37.5 -92q0 -56 -37.5 -91t-86.5 -35q-50 0 -87 35t-37 91zM1077 1786q0 56 37.5 91.5t87.5 35.5q49 0 86.5 -35t37.5 -92q0 -56 -37.5 -91t-86.5 -35t-87 35t-38 91z" />
<glyph unicode="&#x1e85;" horiz-adv-x="1670" d="M39 1118h215q21 -101 51 -219.5t63.5 -236.5t70.5 -228t68 -191q37 100 72.5 213.5t67.5 228.5t61 226t51 207h166q19 -96 47 -207t60.5 -226t67.5 -228t72 -214q32 81 67.5 191t70 228t64.5 236.5t52 219.5h206q-84 -328 -178.5 -612t-193.5 -506h-174q-60 154 -128 353 t-123 415q-56 -216 -123 -415t-127 -353h-174q-99 222 -193.5 506t-178.5 612zM506 1451q0 56 37 91.5t87 35.5q49 0 86.5 -35t37.5 -92q0 -56 -37.5 -91t-86.5 -35q-50 0 -87 35t-37 91zM914 1451q0 56 37.5 91.5t87.5 35.5q49 0 86.5 -35t37.5 -92q0 -56 -37.5 -91 t-86.5 -35t-87 35t-38 91z" />
<glyph unicode="&#x1ef2;" horiz-adv-x="1285" d="M13 1490h245q82 -176 183 -358t208 -350q105 168 206.5 350t185.5 358h232q-117 -215 -247.5 -437t-276.5 -451v-602h-209v597q-148 230 -279.5 454t-247.5 439zM385 1876l129 127l276 -330l-101 -91z" />
<glyph unicode="&#x1ef3;" horiz-adv-x="1067" d="M4 -370l37 161q24 -10 61.5 -19.5t73.5 -9.5q119 0 185.5 52.5t120.5 170.5q-136 259 -253.5 547.5t-193.5 585.5h215q24 -96 57 -208t73.5 -230t88.5 -237t99 -228q82 226 142 447.5t113 455.5h207q-78 -316 -172.5 -607.5t-203.5 -545.5q-43 -96 -89 -166t-102.5 -115 t-126 -66.5t-158.5 -21.5q-24 0 -49.5 3t-50 8.5t-45 12t-29.5 10.5zM303 1541l129 127l276 -330l-101 -91z" />
<glyph unicode="&#x2000;" horiz-adv-x="1034" />
<glyph unicode="&#x2001;" horiz-adv-x="2068" />
<glyph unicode="&#x2002;" horiz-adv-x="1034" />
<glyph unicode="&#x2003;" horiz-adv-x="2068" />
<glyph unicode="&#x2004;" horiz-adv-x="689" />
<glyph unicode="&#x2005;" horiz-adv-x="517" />
<glyph unicode="&#x2006;" horiz-adv-x="344" />
<glyph unicode="&#x2007;" horiz-adv-x="344" />
<glyph unicode="&#x2008;" horiz-adv-x="258" />
<glyph unicode="&#x2009;" horiz-adv-x="413" />
<glyph unicode="&#x200a;" horiz-adv-x="114" />
<glyph unicode="&#x2010;" horiz-adv-x="642" d="M56 550v187h531v-187h-531z" />
<glyph unicode="&#x2011;" horiz-adv-x="642" d="M56 550v187h531v-187h-531z" />
<glyph unicode="&#x2012;" horiz-adv-x="642" d="M56 550v187h531v-187h-531z" />
<glyph unicode="&#x2013;" horiz-adv-x="1065" d="M-4 559v170h1075v-170h-1075z" />
<glyph unicode="&#x2014;" horiz-adv-x="2140" d="M-4 559v170h2150v-170h-2150z" />
<glyph unicode="&#x2018;" horiz-adv-x="505" d="M129 1118v46t2 45q9 111 50 220.5t98 204.5l156 -50q-45 -94 -68 -190.5t-23 -180.5q0 -21 1 -46.5t4 -48.5h-220z" />
<glyph unicode="&#x2019;" horiz-adv-x="505" d="M71 1147q46 96 68.5 191.5t22.5 179.5q0 21 -1 46t-3 49h218v-46.5t-2 -44.5q-9 -111 -49.5 -219.5t-98.5 -206.5z" />
<glyph unicode="&#x201a;" horiz-adv-x="505" d="M71 -222q46 95 68.5 191.5t22.5 180.5q0 21 -1 46.5t-3 48.5h218v-47t-2 -44q-9 -111 -49.5 -220.5t-98.5 -204.5z" />
<glyph unicode="&#x201c;" horiz-adv-x="896" d="M129 1118v46t2 45q9 111 50 220.5t98 204.5l156 -50q-45 -94 -68 -190.5t-23 -180.5q0 -21 1 -46.5t4 -48.5h-220zM521 1118v46t2 45q9 111 50 220.5t98 204.5l156 -50q-45 -94 -68 -190.5t-23 -180.5q0 -21 1 -46.5t4 -48.5h-220z" />
<glyph unicode="&#x201d;" horiz-adv-x="896" d="M71 1147q46 96 68.5 191.5t22.5 179.5q0 21 -1 46t-3 49h218v-46.5t-2 -44.5q-9 -111 -49.5 -219.5t-98.5 -206.5zM463 1147q46 96 68.5 191.5t22.5 179.5q0 21 -1 46t-3 49h218v-46.5t-2 -44.5q-9 -111 -49.5 -219.5t-98.5 -206.5z" />
<glyph unicode="&#x201e;" horiz-adv-x="896" d="M71 -222q46 95 68.5 191.5t22.5 180.5q0 21 -1 46.5t-3 48.5h218v-47t-2 -44q-9 -111 -49.5 -220.5t-98.5 -204.5zM463 -222q46 95 68.5 191.5t22.5 180.5q0 21 -1 46.5t-3 48.5h218v-47t-2 -44q-9 -111 -49.5 -220.5t-98.5 -204.5z" />
<glyph unicode="&#x2026;" horiz-adv-x="2140" d="M211 117q0 57 38 100t106 43q66 0 104.5 -43t38.5 -100q0 -58 -38.5 -101.5t-104.5 -43.5q-67 0 -105.5 43t-38.5 102zM927 117q0 57 38 100t106 43q66 0 104.5 -43t38.5 -100q0 -58 -38.5 -101.5t-104.5 -43.5q-67 0 -105.5 43t-38.5 102zM1643 117q0 57 38 100t106 43 q66 0 104.5 -43t38.5 -100q0 -58 -38.5 -101.5t-104.5 -43.5q-67 0 -105.5 43t-38.5 102z" />
<glyph unicode="&#x202f;" horiz-adv-x="413" />
<glyph unicode="&#x2039;" horiz-adv-x="624" d="M64 611l336 475l140 -75l-239 -400l239 -400l-140 -76z" />
<glyph unicode="&#x203a;" horiz-adv-x="624" d="M86 211l238 400l-238 400l140 75l336 -475l-336 -476z" />
<glyph unicode="&#x205f;" horiz-adv-x="517" />
<glyph unicode="&#x20ac;" horiz-adv-x="1212" d="M97 488v155h176q-2 24 -2 49.5v54.5v58t2 55h-176v155h198q49 252 195 377.5t374 125.5q95 0 157.5 -12t125.5 -31l-43 -172q-52 19 -113.5 31t-126.5 12q-82 0 -143 -23.5t-105 -66.5t-71.5 -104.5t-43.5 -136.5h501l-30 -155h-492q-2 -28 -2 -56v-57v-54.5t2 -49.5h449 l-30 -155h-402q36 -191 131.5 -266.5t239.5 -75.5q91 0 156.5 17.5t116.5 41.5l43 -170q-36 -19 -126 -41t-200 -22q-252 0 -389.5 136.5t-178.5 379.5h-193z" />
<glyph unicode="&#x2122;" horiz-adv-x="1631" d="M49 1359v131h600v-131h-226v-585h-148v585h-226zM679 774q17 264 30 435.5t31 280.5h142q17 -37 42.5 -88.5t56 -111.5t61.5 -122t62 -121q28 58 60 120.5t62 122.5t55.5 111.5t43.5 88.5h142q17 -109 30 -280.5t30 -435.5h-150q-3 53 -5 114.5t-5.5 123t-8 122 t-8.5 111.5q-24 -41 -52 -96t-54.5 -108.5t-51 -101t-37.5 -75.5h-106q-13 28 -37.5 75.5t-51.5 101t-55.5 108.5t-50.5 96q-5 -51 -9 -111.5t-7 -122t-5 -123t-6 -114.5h-148z" />
<glyph unicode="&#x25fc;" horiz-adv-x="1117" d="M0 0v1118h1118v-1118h-1118z" />
</font>
</defs>
</svg>
